STARTFONT 2.1
COMMENT $Xorg: $
COMMENT ISO10646-1 extension by Markus Kuhn <mkuhn@acm.org>, 2001-03-20
COMMENT  (c) Copyright Bigelow & Holmes 1986, 1985. Lucida is a registered
COMMENT  trademark of Bigelow & Holmes. See LEGAL NOTICE file for terms 
COMMENT  of the license. 
FONT -B&H-Lucida-Medium-I-Normal-Sans-25-180-100-100-P-141-ISO10646-1
SIZE 18 100 100
FONTBOUNDINGBOX 48 40 -15 -12
STARTPROPERTIES 22
COMMENT Begin LogicalFontDescription
FONTNAME_REGISTRY ""
FOUNDRY "B&H"
FAMILY_NAME "Lucida"
WEIGHT_NAME "Medium"
SLANT "I"
SETWIDTH_NAME "Normal"
ADD_STYLE_NAME "Sans"
PIXEL_SIZE 25
POINT_SIZE 180
RESOLUTION_X 100
RESOLUTION_Y 100
SPACING "P"
AVERAGE_WIDTH 141
CHARSET_REGISTRY "ISO10646"
CHARSET_ENCODING "1"
COMMENT END LogicalFontDescription
FONT_ASCENT 23
FONT_DESCENT 6
DEFAULT_CHAR 0
COPYRIGHT "Copyright Bigelow & Holmes 1986, 1985."
FACE_NAME "Lucida Sans Italic"
X_HEIGHT 13
CAP_HEIGHT 18
ENDPROPERTIES
CHARS 723
STARTCHAR char0
ENCODING 0
SWIDTH 735 0
DWIDTH 18 0
BBX 17 17 2 0
BITMAP
AAAA80
000000
800080
000000
800080
000000
800080
000000
800080
000000
800080
000000
800080
000000
800080
000000
AAAA80
ENDCHAR
STARTCHAR space
ENCODING 32
SWIDTH 316 0
DWIDTH 8 0
BBX 1 1 0 0
BITMAP
00
ENDCHAR
STARTCHAR exclam
ENCODING 33
SWIDTH 193 0
DWIDTH 8 0
BBX 6 18 3 0
BITMAP
1C
1C
1C
18
18
18
38
30
30
30
30
20
60
00
00
00
E0
E0
ENDCHAR
STARTCHAR quotedbl
ENCODING 34
SWIDTH 361 0
DWIDTH 9 0
BBX 7 6 4 12
BITMAP
CE
CE
CC
CC
CC
CC
ENDCHAR
STARTCHAR numbersign
ENCODING 35
SWIDTH 633 0
DWIDTH 16 0
BBX 15 18 2 0
BITMAP
00C6
008C
018C
0118
0318
7FFE
7FFE
0620
0460
0C40
08C0
FFFC
FFFC
3180
3380
6300
6700
C600
ENDCHAR
STARTCHAR dollar
ENCODING 36
SWIDTH 633 0
DWIDTH 16 0
BBX 12 22 3 -2
BITMAP
0180
0180
03F0
0FF0
1F90
3900
3100
3300
3A00
1E00
0E00
0700
0580
04C0
04C0
04C0
0CC0
89C0
FF80
FE00
0800
1800
ENDCHAR
STARTCHAR percent
ENCODING 37
SWIDTH 741 0
DWIDTH 19 0
BBX 18 18 2 0
BITMAP
0F01C0
1F8300
398600
318600
318C00
219800
333000
3F6000
1EC000
019E00
033F00
037300
066300
0C4300
184300
306600
607E00
C03800
ENDCHAR
STARTCHAR ampersand
ENCODING 38
SWIDTH 701 0
DWIDTH 18 0
BBX 16 18 2 0
BITMAP
00F8
01FC
038C
030C
031C
0338
03F0
07E0
1F83
7983
71C7
E0C6
E0E6
E07C
E038
7078
7FDC
1F1E
ENDCHAR
STARTCHAR quotesingle
ENCODING 39
SWIDTH 217 0
DWIDTH 5 0
BBX 3 6 4 12
BITMAP
E0
E0
E0
E0
E0
40
ENDCHAR
STARTCHAR parenleft
ENCODING 40
SWIDTH 325 0
DWIDTH 8 0
BBX 8 22 2 -4
BITMAP
01
03
06
0C
1C
18
30
70
60
60
E0
E0
C0
C0
C0
C0
C0
C0
60
60
30
10
ENDCHAR
STARTCHAR parenright
ENCODING 41
SWIDTH 325 0
DWIDTH 8 0
BBX 8 22 1 -4
BITMAP
08
0C
06
06
03
03
03
03
03
03
03
07
07
06
0E
0C
1C
18
30
60
C0
80
ENDCHAR
STARTCHAR asterisk
ENCODING 42
SWIDTH 470 0
DWIDTH 12 0
BBX 9 9 4 9
BITMAP
0C00
0C00
4800
EB80
3700
1800
2400
E600
4400
ENDCHAR
STARTCHAR plus
ENCODING 43
SWIDTH 633 0
DWIDTH 16 0
BBX 15 15 2 0
BITMAP
00C0
00C0
0180
0180
0180
0180
FFFE
FFFE
0300
0300
0300
0300
0300
0600
0600
ENDCHAR
STARTCHAR comma
ENCODING 44
SWIDTH 316 0
DWIDTH 8 0
BBX 4 8 2 -5
BITMAP
70
70
70
20
20
60
60
C0
ENDCHAR
STARTCHAR hyphen
ENCODING 45
SWIDTH 313 0
DWIDTH 8 0
BBX 6 2 2 7
BITMAP
FC
FC
ENDCHAR
STARTCHAR period
ENCODING 46
SWIDTH 316 0
DWIDTH 8 0
BBX 4 2 2 0
BITMAP
70
E0
ENDCHAR
STARTCHAR slash
ENCODING 47
SWIDTH 482 0
DWIDTH 12 0
BBX 16 22 0 -4
BITMAP
0003
0006
000C
000C
0018
0038
0030
0060
0060
00C0
0180
0180
0300
0600
0600
0C00
1C00
1800
3000
3000
6000
C000
ENDCHAR
STARTCHAR zero
ENCODING 48
SWIDTH 633 0
DWIDTH 16 0
BBX 13 18 3 0
BITMAP
03E0
07F0
1C38
1818
3018
7018
6018
6018
E018
E018
E038
C030
C070
C060
E0E0
71C0
7F80
1E00
ENDCHAR
STARTCHAR one
ENCODING 49
SWIDTH 633 0
DWIDTH 16 0
BBX 6 18 7 0
BITMAP
7C
FC
18
18
18
38
38
30
30
30
70
70
60
60
60
E0
E0
C0
ENDCHAR
STARTCHAR two
ENCODING 50
SWIDTH 633 0
DWIDTH 16 0
BBX 14 18 2 0
BITMAP
07F0
0FF8
183C
001C
001C
001C
0018
0038
0070
00E0
0380
0700
0C00
3800
7000
7000
FFE0
FFE0
ENDCHAR
STARTCHAR three
ENCODING 51
SWIDTH 633 0
DWIDTH 16 0
BBX 13 18 3 0
BITMAP
0FC0
0FF0
1870
0038
0038
0070
00E0
0FC0
1F80
01E0
00E0
0060
0060
0060
00E0
C1C0
FF80
7E00
ENDCHAR
STARTCHAR four
ENCODING 52
SWIDTH 633 0
DWIDTH 16 0
BBX 13 18 2 0
BITMAP
0038
0078
00F0
01F0
03B0
0730
0E70
1C60
1860
3060
6060
FFF8
FFF8
00C0
00C0
01C0
01C0
0180
ENDCHAR
STARTCHAR five
ENCODING 53
SWIDTH 633 0
DWIDTH 16 0
BBX 13 18 3 0
BITMAP
0FF8
1FF8
1800
1800
1800
1000
3F00
3FC0
01E0
00E0
0060
0060
0060
00E0
00C0
C3C0
FF80
FE00
ENDCHAR
STARTCHAR six
ENCODING 54
SWIDTH 633 0
DWIDTH 16 0
BBX 14 18 3 0
BITMAP
01F8
07FC
0E08
1800
3800
3000
67C0
7FE0
F870
E030
E030
E030
C030
E070
E0E0
71C0
7F80
1F00
ENDCHAR
STARTCHAR seven
ENCODING 55
SWIDTH 633 0
DWIDTH 16 0
BBX 14 18 4 0
BITMAP
3FFC
3FFC
003C
0078
00F0
00E0
01C0
0380
0700
0E00
1C00
1C00
3800
3800
7000
7000
E000
E000
ENDCHAR
STARTCHAR eight
ENCODING 56
SWIDTH 633 0
DWIDTH 16 0
BBX 13 18 3 0
BITMAP
03E0
0FF0
1C30
1838
3830
3830
1CE0
1FC0
0F80
3FC0
71E0
60E0
E060
C060
E0E0
E1C0
7F80
3F00
ENDCHAR
STARTCHAR nine
ENCODING 57
SWIDTH 633 0
DWIDTH 16 0
BBX 14 18 3 0
BITMAP
03E0
0FF0
1C38
3818
3018
301C
7018
7018
7038
3878
3FF8
0FB0
0030
0060
00E0
C1C0
FF80
7E00
ENDCHAR
STARTCHAR colon
ENCODING 58
SWIDTH 316 0
DWIDTH 8 0
BBX 5 13 3 0
BITMAP
38
38
00
00
00
00
00
00
00
00
00
E0
E0
ENDCHAR
STARTCHAR semicolon
ENCODING 59
SWIDTH 316 0
DWIDTH 8 0
BBX 6 18 2 -5
BITMAP
1C
1C
00
00
00
00
00
00
00
00
00
70
60
20
60
60
C0
80
ENDCHAR
STARTCHAR less
ENCODING 60
SWIDTH 633 0
DWIDTH 16 0
BBX 16 15 2 0
BITMAP
0001
0007
001E
0078
03E0
0F80
3C00
F000
3C00
1E00
0780
01E0
00F0
0038
0008
ENDCHAR
STARTCHAR equal
ENCODING 61
SWIDTH 633 0
DWIDTH 16 0
BBX 16 6 1 4
BITMAP
7FFF
7FFF
0000
0000
FFFE
FFFE
ENDCHAR
STARTCHAR greater
ENCODING 62
SWIDTH 633 0
DWIDTH 16 0
BBX 16 15 1 0
BITMAP
1000
1C00
0F00
0780
01E0
0078
003C
000F
003C
01F0
07C0
1E00
7800
E000
8000
ENDCHAR
STARTCHAR question
ENCODING 63
SWIDTH 464 0
DWIDTH 12 0
BBX 10 18 3 0
BITMAP
3F00
7F80
41C0
01C0
01C0
0180
0380
0700
0E00
1C00
3800
3000
7000
0000
0000
0000
E000
E000
ENDCHAR
STARTCHAR at
ENCODING 64
SWIDTH 858 0
DWIDTH 21 0
BBX 19 18 3 0
BITMAP
00FC00
03FF00
0F0380
1C01C0
30FCC0
21FC40
630860
460860
C61860
843840
8C70C0
8CD980
CF9F80
471E00
600000
381000
1FF000
07C000
ENDCHAR
STARTCHAR A
ENCODING 65
SWIDTH 687 0
DWIDTH 17 0
BBX 16 18 1 0
BITMAP
0038
0078
0078
00F8
01D8
019C
039C
030C
070C
060C
0C0E
0FFE
1FFE
3806
3006
7007
6007
E007
ENDCHAR
STARTCHAR B
ENCODING 66
SWIDTH 593 0
DWIDTH 15 0
BBX 13 18 2 0
BITMAP
1FE0
1FF8
1C38
1838
1838
3838
3870
38E0
3F80
3FE0
70F0
7070
7030
6070
6070
E1E0
FFE0
FF80
ENDCHAR
STARTCHAR C
ENCODING 67
SWIDTH 679 0
DWIDTH 17 0
BBX 17 18 2 0
BITMAP
00FF00
03FF80
0F0180
1E0000
3C0000
380000
700000
700000
E00000
E00000
E00000
E00000
E00000
E00000
700000
780C00
3FFC00
0FE000
ENDCHAR
STARTCHAR D
ENCODING 68
SWIDTH 743 0
DWIDTH 19 0
BBX 17 18 2 0
BITMAP
1FFC00
1FFE00
1C1F00
180780
180380
380380
380380
380380
300380
300380
700300
700700
700600
600E00
601C00
E07800
FFF000
FFC000
ENDCHAR
STARTCHAR E
ENCODING 69
SWIDTH 547 0
DWIDTH 14 0
BBX 14 18 2 0
BITMAP
0FFC
1FFC
1C00
1C00
1800
1800
3800
3800
3FE0
3FE0
3000
7000
7000
7000
6000
6000
FFE0
FFE0
ENDCHAR
STARTCHAR F
ENCODING 70
SWIDTH 536 0
DWIDTH 13 0
BBX 14 18 2 0
BITMAP
0FFC
1FFC
1C00
1C00
1800
1800
3800
3800
3FE0
3FE0
3000
7000
7000
7000
6000
6000
E000
E000
ENDCHAR
STARTCHAR G
ENCODING 71
SWIDTH 702 0
DWIDTH 18 0
BBX 16 18 3 0
BITMAP
00FE
07FF
0F03
1C00
3800
3000
7000
6000
E000
E000
E00C
E00C
E01C
E01C
701C
7838
3FF8
0FC0
ENDCHAR
STARTCHAR H
ENCODING 72
SWIDTH 735 0
DWIDTH 18 0
BBX 17 18 2 0
BITMAP
1C0380
1C0380
1C0380
180300
180300
380700
380700
380700
3FFE00
3FFE00
700600
700E00
700E00
600C00
600C00
E01C00
E01C00
E01C00
ENDCHAR
STARTCHAR I
ENCODING 73
SWIDTH 289 0
DWIDTH 7 0
BBX 6 18 2 0
BITMAP
1C
1C
1C
18
18
38
38
38
30
30
70
70
70
60
60
E0
E0
E0
ENDCHAR
STARTCHAR J
ENCODING 74
SWIDTH 408 0
DWIDTH 10 0
BBX 12 22 0 -4
BITMAP
0070
0070
0070
0060
0060
00E0
00E0
00E0
00C0
00C0
01C0
01C0
01C0
0180
0180
0380
0380
0300
0300
8600
FE00
F800
ENDCHAR
STARTCHAR K
ENCODING 75
SWIDTH 635 0
DWIDTH 16 0
BBX 16 18 2 0
BITMAP
0C07
1C0C
1C18
1C30
1860
18C0
3980
3B00
3E00
3700
3300
7180
71C0
70C0
6060
6070
E030
E018
ENDCHAR
STARTCHAR L
ENCODING 76
SWIDTH 545 0
DWIDTH 14 0
BBX 11 18 3 0
BITMAP
1C00
1C00
1C00
1800
1800
3800
3800
3800
3000
3000
7000
7000
7000
6000
6000
E000
FFE0
FFE0
ENDCHAR
STARTCHAR M
ENCODING 77
SWIDTH 828 0
DWIDTH 21 0
BBX 20 18 2 0
BITMAP
0E00F0
1E00F0
1F01E0
1F01E0
1F0360
1B07E0
3B06E0
330CC0
330CC0
3398C0
3399C0
71B1C0
61F180
61E180
61C180
61C380
C00380
C00300
ENDCHAR
STARTCHAR N
ENCODING 78
SWIDTH 741 0
DWIDTH 19 0
BBX 17 18 3 0
BITMAP
1C0180
1E0180
1E0380
1E0300
1F0300
3B0300
338300
318700
31C600
31C600
70C600
60E600
606E00
607C00
603C00
E03C00
C03C00
C01C00
ENDCHAR
STARTCHAR O
ENCODING 79
SWIDTH 777 0
DWIDTH 19 0
BBX 18 18 3 0
BITMAP
00FC00
03FF00
0F0700
1C0380
380180
3801C0
7001C0
6001C0
E00180
E00380
E00380
E00300
E00700
E00E00
701C00
787800
3FF000
0FC000
ENDCHAR
STARTCHAR P
ENCODING 80
SWIDTH 575 0
DWIDTH 14 0
BBX 14 18 2 0
BITMAP
0FF0
1FF8
1C1C
1C1C
181C
181C
3818
3838
38F0
3FE0
3F00
7000
7000
7000
6000
6000
E000
E000
ENDCHAR
STARTCHAR Q
ENCODING 81
SWIDTH 777 0
DWIDTH 19 0
BBX 18 23 3 -5
BITMAP
00FC00
03FF00
0F0700
1C0380
380180
3801C0
7001C0
6001C0
E00180
E00380
E00380
E00380
E00700
E00E00
701E00
787C00
3FF000
0FE000
007000
003C00
001F80
000F00
000300
ENDCHAR
STARTCHAR R
ENCODING 82
SWIDTH 632 0
DWIDTH 16 0
BBX 14 18 2 0
BITMAP
0FF0
1FFC
1C1C
1C1C
181C
181C
3838
3870
3FE0
3F80
31C0
71C0
70E0
60E0
6070
6070
E038
E038
ENDCHAR
STARTCHAR S
ENCODING 83
SWIDTH 553 0
DWIDTH 14 0
BBX 14 18 2 0
BITMAP
03F8
07FC
0E0C
1C00
1C00
1C00
1E00
0F00
0780
03C0
01E0
0070
0070
0070
0070
C0E0
FFC0
7F00
ENDCHAR
STARTCHAR T
ENCODING 84
SWIDTH 623 0
DWIDTH 16 0
BBX 16 18 3 0
BITMAP
FFFF
FFFF
0380
0380
0380
0300
0300
0700
0700
0700
0600
0600
0E00
0E00
0E00
0C00
0C00
1C00
ENDCHAR
STARTCHAR U
ENCODING 85
SWIDTH 693 0
DWIDTH 17 0
BBX 15 18 3 0
BITMAP
3806
380E
380E
300C
300C
700C
701C
701C
6018
6018
E018
E038
E030
E030
E070
F0E0
7FC0
3F80
ENDCHAR
STARTCHAR V
ENCODING 86
SWIDTH 687 0
DWIDTH 17 0
BBX 16 18 4 0
BITMAP
E007
E006
E00E
600C
601C
7038
7030
7070
3060
30E0
38C0
39C0
3980
1B00
1F00
1E00
1E00
1C00
ENDCHAR
STARTCHAR W
ENCODING 87
SWIDTH 886 0
DWIDTH 22 0
BBX 21 18 4 0
BITMAP
C07018
C07030
E0F030
E0F060
E0F060
E1B0E0
E1B0C0
E331C0
E33180
E63380
663300
6C3700
6C3600
7C3E00
783C00
783C00
703800
703800
ENDCHAR
STARTCHAR X
ENCODING 88
SWIDTH 620 0
DWIDTH 16 0
BBX 18 18 0 0
BITMAP
0E01C0
060380
070700
030E00
039C00
039800
01F000
01F000
00E000
01E000
03F000
037000
063800
0C3800
1C1800
381C00
700C00
E00E00
ENDCHAR
STARTCHAR Y
ENCODING 89
SWIDTH 608 0
DWIDTH 15 0
BBX 15 18 4 0
BITMAP
E00E
601C
7038
3030
3860
38C0
1DC0
1F80
0F00
0E00
0E00
0E00
0C00
0C00
1C00
1C00
1C00
1800
ENDCHAR
STARTCHAR Z
ENCODING 90
SWIDTH 578 0
DWIDTH 14 0
BBX 16 18 1 0
BITMAP
0FFF
0FFF
000E
001C
0038
0078
0070
00E0
01C0
0380
0700
0E00
1E00
3C00
3800
7000
FFF8
FFF8
ENDCHAR
STARTCHAR bracketleft
ENCODING 91
SWIDTH 325 0
DWIDTH 8 0
BBX 9 22 2 -4
BITMAP
0F80
0F80
0C00
0C00
1C00
1800
1800
1800
1800
3800
3000
3000
3000
3000
7000
6000
6000
6000
6000
C000
F800
F800
ENDCHAR
STARTCHAR backslash
ENCODING 92
SWIDTH 482 0
DWIDTH 12 0
BBX 7 22 4 -4
BITMAP
C0
C0
40
60
60
60
20
30
30
30
30
18
18
18
18
08
0C
0C
0C
04
06
06
ENDCHAR
STARTCHAR bracketright
ENCODING 93
SWIDTH 325 0
DWIDTH 8 0
BBX 9 22 1 -4
BITMAP
0F80
0F80
0180
0300
0300
0300
0300
0700
0600
0600
0600
0600
0E00
0C00
0C00
0C00
0C00
1C00
1800
1800
F800
F800
ENDCHAR
STARTCHAR asciicircum
ENCODING 94
SWIDTH 633 0
DWIDTH 16 0
BBX 14 15 2 3
BITMAP
0040
0040
00E0
01E0
01E0
0360
0730
0630
0C30
1C10
1818
3818
7018
600C
E00C
ENDCHAR
STARTCHAR underscore
ENCODING 95
SWIDTH 500 0
DWIDTH 13 0
BBX 10 2 1 -3
BITMAP
FFC0
FFC0
ENDCHAR
STARTCHAR grave
ENCODING 96
SWIDTH 572 0
DWIDTH 14 0
BBX 4 4 9 14
BITMAP
E0
60
60
30
ENDCHAR
STARTCHAR a
ENCODING 97
SWIDTH 608 0
DWIDTH 15 0
BBX 13 13 2 0
BITMAP
03F8
07F8
1E38
3830
3030
7070
60F0
E1F0
E1E0
E360
E760
FCE0
78E0
ENDCHAR
STARTCHAR b
ENCODING 98
SWIDTH 608 0
DWIDTH 15 0
BBX 13 18 3 0
BITMAP
0C00
1C00
1C00
1800
1800
18F0
39F8
3738
3638
3C38
3C38
7830
7070
6060
60E0
63C0
FF00
FE00
ENDCHAR
STARTCHAR c
ENCODING 99
SWIDTH 503 0
DWIDTH 13 0
BBX 11 13 2 0
BITMAP
03E0
0FE0
1C20
3800
7000
6000
E000
E000
E000
E000
E0C0
7F80
3F00
ENDCHAR
STARTCHAR d
ENCODING 100
SWIDTH 608 0
DWIDTH 15 0
BBX 15 18 2 0
BITMAP
000E
000E
000C
000C
001C
01FC
07FC
0E18
1C18
3838
7038
6070
E0F0
E1F0
E3F0
E770
FE60
7860
ENDCHAR
STARTCHAR e
ENCODING 101
SWIDTH 529 0
DWIDTH 13 0
BBX 11 13 2 0
BITMAP
07C0
0FE0
18E0
30E0
60C0
6180
FF00
FC00
C000
E020
E0C0
7FC0
3F00
ENDCHAR
STARTCHAR f
ENCODING 102
SWIDTH 383 0
DWIDTH 10 0
BBX 12 25 2 -5
BITMAP
01F0
03F0
0700
0600
0E00
0C00
0C00
7F80
7F80
1800
1800
1800
3800
3800
3000
3000
3000
7000
7000
7000
6000
6000
E000
E000
E000
ENDCHAR
STARTCHAR g
ENCODING 103
SWIDTH 608 0
DWIDTH 15 0
BBX 14 18 1 -5
BITMAP
01FC
07FC
0F18
1C18
1818
3838
3038
7070
70F0
71B0
7330
3E70
3C60
0060
0060
C0C0
FF80
7E00
ENDCHAR
STARTCHAR h
ENCODING 104
SWIDTH 620 0
DWIDTH 16 0
BBX 13 18 2 0
BITMAP
0C00
0C00
1C00
1C00
1800
1870
39F8
3BB8
3738
3E38
3C38
7830
7030
7070
6070
6060
E060
E060
ENDCHAR
STARTCHAR i
ENCODING 105
SWIDTH 289 0
DWIDTH 7 0
BBX 6 18 2 0
BITMAP
1C
1C
00
00
00
18
38
38
30
30
30
70
70
60
60
60
E0
E0
ENDCHAR
STARTCHAR j
ENCODING 106
SWIDTH 325 0
DWIDTH 8 0
BBX 12 23 -2 -5
BITMAP
0070
0070
0000
0000
0000
0060
00E0
00E0
00C0
00C0
00C0
01C0
01C0
0180
0180
0380
0380
0380
0300
0700
8E00
FC00
F800
ENDCHAR
STARTCHAR k
ENCODING 107
SWIDTH 572 0
DWIDTH 14 0
BBX 13 18 2 0
BITMAP
0C00
0C00
1C00
1800
1800
1838
3860
39C0
3380
3700
3E00
7E00
7700
6300
6380
61C0
E0E0
E070
ENDCHAR
STARTCHAR l
ENCODING 108
SWIDTH 289 0
DWIDTH 7 0
BBX 6 18 3 0
BITMAP
0C
1C
1C
18
18
18
38
38
30
30
30
70
70
60
60
60
E0
E0
ENDCHAR
STARTCHAR m
ENCODING 109
SWIDTH 934 0
DWIDTH 23 0
BBX 21 13 2 0
BITMAP
187070
19F9F8
3BBBB8
373F38
3E3E38
3C3C30
383830
707830
707070
606070
606060
606060
C0E0E0
ENDCHAR
STARTCHAR n
ENCODING 110
SWIDTH 620 0
DWIDTH 16 0
BBX 13 13 2 0
BITMAP
1870
39F8
3BB8
3738
3E38
3C38
7830
7030
7070
6070
6060
E060
E060
ENDCHAR
STARTCHAR o
ENCODING 111
SWIDTH 566 0
DWIDTH 14 0
BBX 12 13 2 0
BITMAP
07C0
0FE0
1C70
3030
7030
6030
E030
E070
E060
E0E0
E1C0
7F80
3E00
ENDCHAR
STARTCHAR p
ENCODING 112
SWIDTH 608 0
DWIDTH 15 0
BBX 14 18 2 -5
BITMAP
1C78
1CFC
1B9C
1F1C
1E1C
3E1C
3C18
3838
3030
3070
71E0
7F80
7F00
6000
6000
E000
E000
C000
ENDCHAR
STARTCHAR q
ENCODING 113
SWIDTH 608 0
DWIDTH 15 0
BBX 13 18 2 -5
BITMAP
03F8
07F8
1E38
3830
3030
7070
60F0
E1F0
E1E0
E360
E760
FCE0
78E0
00C0
00C0
00C0
01C0
01C0
ENDCHAR
STARTCHAR r
ENCODING 114
SWIDTH 478 0
DWIDTH 12 0
BBX 11 13 3 0
BITMAP
38E0
39E0
3300
3600
3C00
7C00
7800
7000
6000
6000
E000
E000
E000
ENDCHAR
STARTCHAR s
ENCODING 115
SWIDTH 489 0
DWIDTH 12 0
BBX 11 13 2 0
BITMAP
07C0
1FE0
1860
3800
1C00
1E00
0F00
0780
0380
0180
C380
FF80
7E00
ENDCHAR
STARTCHAR t
ENCODING 116
SWIDTH 383 0
DWIDTH 10 0
BBX 8 16 3 0
BITMAP
18
18
18
FF
FF
30
30
30
70
70
60
60
E0
60
7C
38
ENDCHAR
STARTCHAR u
ENCODING 117
SWIDTH 620 0
DWIDTH 16 0
BBX 13 13 3 0
BITMAP
3018
3038
3030
3030
6070
6070
60F0
61E0
E3E0
C760
EEE0
FCE0
70C0
ENDCHAR
STARTCHAR v
ENCODING 118
SWIDTH 545 0
DWIDTH 14 0
BBX 12 13 4 0
BITMAP
C070
C060
E0E0
E0C0
6180
6380
6300
6600
6600
6C00
7C00
7800
3000
ENDCHAR
STARTCHAR w
ENCODING 119
SWIDTH 795 0
DWIDTH 20 0
BBX 18 13 3 0
BITMAP
C0C0C0
C1C180
C1C180
E3C300
E3C300
666600
666E00
6C6C00
6C7C00
787800
787800
707000
707000
ENDCHAR
STARTCHAR x
ENCODING 120
SWIDTH 541 0
DWIDTH 14 0
BBX 15 13 0 0
BITMAP
1C0E
0E1C
0638
0770
03E0
03C0
0380
07C0
0EC0
1CE0
3860
7070
E038
ENDCHAR
STARTCHAR y
ENCODING 121
SWIDTH 548 0
DWIDTH 14 0
BBX 14 18 2 -5
BITMAP
601C
7018
7030
7070
3060
30C0
31C0
3980
3B80
3B00
1E00
1E00
1C00
1800
3800
3000
6000
E000
ENDCHAR
STARTCHAR z
ENCODING 122
SWIDTH 536 0
DWIDTH 13 0
BBX 13 13 1 0
BITMAP
1FF8
1FF8
0070
00E0
01C0
0380
0700
0E00
1C00
3800
7000
FFE0
FFE0
ENDCHAR
STARTCHAR braceleft
ENCODING 123
SWIDTH 325 0
DWIDTH 8 0
BBX 9 22 2 -4
BITMAP
0380
0F00
0E00
0C00
0C00
1C00
1C00
1C00
1800
3800
F000
E000
3000
3000
3000
7000
6000
6000
C000
C000
7000
3000
ENDCHAR
STARTCHAR bar
ENCODING 124
SWIDTH 233 0
DWIDTH 6 0
BBX 6 22 1 -4
BITMAP
0C
0C
0C
08
18
18
18
18
10
30
30
30
30
20
60
60
60
60
40
C0
C0
C0
ENDCHAR
STARTCHAR braceright
ENCODING 125
SWIDTH 325 0
DWIDTH 8 0
BBX 9 22 1 -4
BITMAP
0E00
0F00
0300
0300
0300
0700
0600
0600
0600
0600
0380
0F00
0C00
1C00
1800
1800
1800
1800
3800
F000
F000
C000
ENDCHAR
STARTCHAR asciitilde
ENCODING 126
SWIDTH 633 0
DWIDTH 16 0
BBX 15 5 2 5
BITMAP
3C06
7F06
638C
C1FC
C078
ENDCHAR
STARTCHAR space
ENCODING 160
SWIDTH 316 0
DWIDTH 8 0
BBX 1 1 0 0
BITMAP
00
ENDCHAR
STARTCHAR exclamdown
ENCODING 161
SWIDTH 193 0
DWIDTH 8 0
BBX 6 18 2 -5
BITMAP
1C
1C
00
00
00
18
10
30
30
30
30
70
60
60
60
E0
E0
E0
ENDCHAR
STARTCHAR cent
ENCODING 162
SWIDTH 633 0
DWIDTH 16 0
BBX 12 18 4 0
BITMAP
0080
0180
03F0
0FF0
1D00
3900
7300
6200
E200
E200
E600
E400
E440
E4C0
7FC0
3F00
0800
0800
ENDCHAR
STARTCHAR sterling
ENCODING 163
SWIDTH 633 0
DWIDTH 16 0
BBX 14 18 3 0
BITMAP
00FC
01FC
0384
0300
0700
0600
0600
0E00
3F80
3F80
0C00
0C00
0C00
1C00
1800
3000
FFE0
FFC0
ENDCHAR
STARTCHAR currency
ENCODING 164
SWIDTH 633 0
DWIDTH 16 0
BBX 18 16 1 1
BITMAP
100180
3803C0
1DE300
0FF600
071C00
0C0C00
0C0C00
180C00
180C00
180C00
181800
0C3000
1FF800
73DC00
E00E00
400400
ENDCHAR
STARTCHAR yen
ENCODING 165
SWIDTH 633 0
DWIDTH 16 0
BBX 15 18 4 0
BITMAP
E00E
701C
3038
3830
3860
1CC0
1D80
0F00
0F00
7FE0
7FC0
0E00
FFC0
FFC0
0C00
1C00
1C00
1800
ENDCHAR
STARTCHAR brokenbar
ENCODING 166
SWIDTH 233 0
DWIDTH 6 0
BBX 6 22 1 -4
BITMAP
0C
0C
0C
18
18
18
18
18
30
00
00
00
00
30
60
60
60
60
40
C0
C0
C0
ENDCHAR
STARTCHAR section
ENCODING 167
SWIDTH 633 0
DWIDTH 16 0
BBX 13 23 2 -5
BITMAP
03F8
07F8
0E08
1C00
1800
1C00
0E00
0F00
1FC0
38E0
3070
3030
3830
3C70
1FE0
07C0
01E0
0060
0060
00E0
C1C0
FFC0
7F00
ENDCHAR
STARTCHAR dieresis
ENCODING 168
SWIDTH 566 0
DWIDTH 14 0
BBX 7 2 7 16
BITMAP
C6
C6
ENDCHAR
STARTCHAR copyright
ENCODING 169
SWIDTH 858 0
DWIDTH 21 0
BBX 19 18 3 0
BITMAP
03F000
0FFE00
1C0F00
300380
60F980
41FCC0
C38840
C60040
860040
8C0060
CC0040
C61040
47F0C0
63E180
300380
1C0F00
0FFE00
03F000
ENDCHAR
STARTCHAR ordfeminine
ENCODING 170
SWIDTH 392 0
DWIDTH 10 0
BBX 10 10 3 8
BITMAP
0E00
3FC0
3180
6180
6380
C780
CF00
DB00
F300
6700
ENDCHAR
STARTCHAR guillemotleft
ENCODING 171
SWIDTH 527 0
DWIDTH 13 0
BBX 12 11 2 1
BITMAP
0420
0E70
1CE0
39C0
7380
E700
6300
7380
3180
18C0
1080
ENDCHAR
STARTCHAR logicalnot
ENCODING 172
SWIDTH 633 0
DWIDTH 16 0
BBX 15 6 2 4
BITMAP
FFFE
FFFE
0006
0004
000C
000C
ENDCHAR
STARTCHAR hyphen
ENCODING 173
SWIDTH 313 0
DWIDTH 8 0
BBX 6 2 2 7
BITMAP
FC
FC
ENDCHAR
STARTCHAR registered
ENCODING 174
SWIDTH 633 0
DWIDTH 16 0
BBX 9 11 6 7
BITMAP
1E00
7F00
6380
DF80
9280
9C80
9C80
F480
6380
7F00
1E00
ENDCHAR
STARTCHAR macron
ENCODING 175
SWIDTH 566 0
DWIDTH 14 0
BBX 7 2 7 16
BITMAP
FE
FE
ENDCHAR
STARTCHAR degree
ENCODING 176
SWIDTH 269 0
DWIDTH 7 0
BBX 4 4 5 14
BITMAP
70
90
90
70
ENDCHAR
STARTCHAR plusminus
ENCODING 177
SWIDTH 633 0
DWIDTH 16 0
BBX 16 15 1 0
BITMAP
0060
0040
00C0
00C0
00C0
3FFF
3FFF
0080
0180
0180
0180
0000
0000
FFFC
FFFC
ENDCHAR
STARTCHAR twosuperior
ENCODING 178
SWIDTH 392 0
DWIDTH 9 0
BBX 8 11 -13 7
BITMAP
1E
3F
23
03
06
0E
18
30
60
FC
FC
ENDCHAR
STARTCHAR threesuperior
ENCODING 179
SWIDTH 392 0
DWIDTH 9 0
BBX 8 11 -13 7
BITMAP
3E
3F
03
02
3C
3C
06
06
06
FC
F8
ENDCHAR
STARTCHAR acute
ENCODING 180
SWIDTH 566 0
DWIDTH 14 0
BBX 6 4 9 14
BITMAP
1C
30
60
C0
ENDCHAR
STARTCHAR mu
ENCODING 181
SWIDTH 627 0
DWIDTH 16 0
BBX 14 17 2 -4
BITMAP
1C1C
181C
1818
1818
3818
3838
3038
3070
30F0
71B0
7330
7F70
7C60
6000
E000
E000
C000
ENDCHAR
STARTCHAR paragraph
ENCODING 182
SWIDTH 633 0
DWIDTH 16 0
BBX 11 22 4 -4
BITMAP
3FE0
7FE0
FE60
FE40
FE40
FEC0
7EC0
7CC0
1C80
0C80
0C80
0D80
0980
0900
1900
1900
1B00
1300
1200
3200
3200
3600
ENDCHAR
STARTCHAR periodcentered
ENCODING 183
SWIDTH 316 0
DWIDTH 16 0
BBX 4 3 7 6
BITMAP
70
F0
E0
ENDCHAR
STARTCHAR cedilla
ENCODING 184
SWIDTH 566 0
DWIDTH 14 0
BBX 4 5 5 -5
BITMAP
20
60
30
30
E0
ENDCHAR
STARTCHAR onesuperior
ENCODING 185
SWIDTH 392 0
DWIDTH 9 0
BBX 4 11 -15 7
BITMAP
F0
F0
20
20
20
60
60
40
40
C0
C0
ENDCHAR
STARTCHAR ordmasculine
ENCODING 186
SWIDTH 392 0
DWIDTH 10 0
BBX 10 10 3 8
BITMAP
0F80
1F80
39C0
71C0
61C0
C180
C380
E700
FE00
7800
ENDCHAR
STARTCHAR guillemotright
ENCODING 187
SWIDTH 527 0
DWIDTH 13 0
BBX 12 11 1 1
BITMAP
3180
3180
18C0
1CE0
0C60
0E70
1CE0
39C0
7380
E700
4200
ENDCHAR
STARTCHAR onequarter
ENCODING 188
SWIDTH 865 0
DWIDTH 22 0
BBX 19 18 10 0
BITMAP
F000E0
F001C0
200380
200700
200E00
601C00
601800
4030C0
4061C0
C0C380
C18680
030D80
071180
0E3FC0
1C3FC0
380100
700300
E00300
ENDCHAR
STARTCHAR onehalf
ENCODING 189
SWIDTH 865 0
DWIDTH 22 0
BBX 19 18 10 0
BITMAP
F000E0
F001C0
200380
200700
200E00
601C00
601800
403780
406FC0
C0C8C0
C180C0
030180
070380
0E0600
1C0C00
381800
703F00
E03F00
ENDCHAR
STARTCHAR threequarters
ENCODING 190
SWIDTH 865 0
DWIDTH 22 0
BBX 21 18 12 0
BITMAP
3E0038
3F0070
0300E0
0201C0
3C0380
3C0700
060600
060C30
061870
FC30E0
F861A0
00C360
01C460
038FF0
070FF0
0E0040
1C00C0
3800C0
ENDCHAR
STARTCHAR questiondown
ENCODING 191
SWIDTH 464 0
DWIDTH 12 0
BBX 10 18 1 -5
BITMAP
01C0
01C0
0000
0000
0000
0380
0300
0700
0E00
1C00
3800
7000
E000
E000
E000
F080
7F80
3F00
ENDCHAR
STARTCHAR Agrave
ENCODING 192
SWIDTH 687 0
DWIDTH 17 0
BBX 16 23 1 0
BITMAP
0070
0030
0030
0018
0000
0038
0078
0078
00F8
01D8
019C
039C
030C
070C
060C
0C0E
0FFE
1FFE
3806
3006
7007
6007
E007
ENDCHAR
STARTCHAR Aacute
ENCODING 193
SWIDTH 687 0
DWIDTH 17 0
BBX 16 23 1 0
BITMAP
0007
000C
0018
0030
0000
0038
0078
0078
00F8
01D8
019C
039C
030C
070C
060C
0C0E
0FFE
1FFE
3806
3006
7007
6007
E007
ENDCHAR
STARTCHAR Acircumflex
ENCODING 194
SWIDTH 687 0
DWIDTH 17 0
BBX 16 23 1 0
BITMAP
003C
007C
00EC
01C6
0000
0038
0078
0078
00F8
01D8
019C
039C
030C
070C
060C
0C0E
0FFE
1FFE
3806
3006
7007
6007
E007
ENDCHAR
STARTCHAR Atilde
ENCODING 195
SWIDTH 687 0
DWIDTH 17 0
BBX 16 21 1 0
BITMAP
007B
00DE
0000
0038
0078
0078
00F8
01D8
019C
039C
030C
070C
060C
0C0E
0FFE
1FFE
3806
3006
7007
6007
E007
ENDCHAR
STARTCHAR Adieresis
ENCODING 196
SWIDTH 687 0
DWIDTH 17 0
BBX 16 21 1 0
BITMAP
00C6
00C6
0000
0038
0078
0078
00F8
01D8
019C
039C
030C
070C
060C
0C0E
0FFE
1FFE
3806
3006
7007
6007
E007
ENDCHAR
STARTCHAR Aring
ENCODING 197
SWIDTH 687 0
DWIDTH 17 0
BBX 16 23 1 0
BITMAP
0018
0024
0024
0018
0000
0038
0078
0078
00F8
01D8
019C
039C
030C
070C
060C
0C0E
0FFE
1FFE
3806
3006
7007
6007
E007
ENDCHAR
STARTCHAR AE
ENCODING 198
SWIDTH 893 0
DWIDTH 22 0
BBX 25 18 0 0
BITMAP
0003FF80
0007FF80
000F8000
001F8000
003B0000
00330000
00770000
00E7FC00
01C7FC00
01860000
03060000
07FE0000
0FFE0000
1C0E0000
180C0000
380C0000
701FFC00
E01FFC00
ENDCHAR
STARTCHAR Ccedilla
ENCODING 199
SWIDTH 679 0
DWIDTH 17 0
BBX 17 23 2 -5
BITMAP
00FF00
03FF80
0F0180
1E0000
3C0000
380000
700000
700000
E00000
E00000
E00000
E00000
E00000
E00000
700000
780C00
3FFC00
0FE000
020000
060000
030000
030000
0E0000
ENDCHAR
STARTCHAR Egrave
ENCODING 200
SWIDTH 547 0
DWIDTH 14 0
BBX 14 23 2 0
BITMAP
0380
0180
0180
00C0
0000
0FFC
1FFC
1C00
1C00
1800
1800
3800
3800
3FE0
3FE0
3000
7000
7000
7000
6000
6000
FFE0
FFE0
ENDCHAR
STARTCHAR Eacute
ENCODING 201
SWIDTH 547 0
DWIDTH 14 0
BBX 14 23 2 0
BITMAP
0070
00C0
0180
0300
0000
0FFC
1FFC
1C00
1C00
1800
1800
3800
3800
3FE0
3FE0
3000
7000
7000
7000
6000
6000
FFE0
FFE0
ENDCHAR
STARTCHAR Ecircumflex
ENCODING 202
SWIDTH 547 0
DWIDTH 14 0
BBX 14 23 2 0
BITMAP
01E0
03E0
0760
0E30
0000
0FFC
1FFC
1C00
1C00
1800
1800
3800
3800
3FE0
3FE0
3000
7000
7000
7000
6000
6000
FFE0
FFE0
ENDCHAR
STARTCHAR Edieresis
ENCODING 203
SWIDTH 547 0
DWIDTH 14 0
BBX 14 21 2 0
BITMAP
0630
0630
0000
0FFC
1FFC
1C00
1C00
1800
1800
3800
3800
3FE0
3FE0
3000
7000
7000
7000
6000
6000
FFE0
FFE0
ENDCHAR
STARTCHAR Igrave
ENCODING 204
SWIDTH 289 0
DWIDTH 7 0
BBX 7 23 2 0
BITMAP
1C
0C
0C
06
00
1C
1C
1C
18
18
38
38
38
30
30
70
70
70
60
60
E0
E0
E0
ENDCHAR
STARTCHAR Iacute
ENCODING 205
SWIDTH 289 0
DWIDTH 7 0
BBX 9 23 2 0
BITMAP
0380
0600
0C00
1800
0000
1C00
1C00
1C00
1800
1800
3800
3800
3800
3000
3000
7000
7000
7000
6000
6000
E000
E000
E000
ENDCHAR
STARTCHAR Icircumflex
ENCODING 206
SWIDTH 289 0
DWIDTH 7 0
BBX 9 23 2 0
BITMAP
0F00
1F00
3B00
7180
0000
1C00
1C00
1C00
1800
1800
3800
3800
3800
3000
3000
7000
7000
7000
6000
6000
E000
E000
E000
ENDCHAR
STARTCHAR Idieresis
ENCODING 207
SWIDTH 289 0
DWIDTH 7 0
BBX 8 21 2 0
BITMAP
63
63
00
1C
1C
1C
18
18
38
38
38
30
30
70
70
70
60
60
E0
E0
E0
ENDCHAR
STARTCHAR Eth
ENCODING 208
SWIDTH 743 0
DWIDTH 19 0
BBX 18 18 1 0
BITMAP
0FFE00
0FFF00
0E0F80
0C03C0
0C01C0
0C01C0
1C01C0
1C01C0
FFC1C0
FF81C0
180180
380380
380300
300700
300E00
303C00
7FF800
7FE000
ENDCHAR
STARTCHAR Ntilde
ENCODING 209
SWIDTH 741 0
DWIDTH 19 0
BBX 17 21 3 0
BITMAP
00F600
01BC00
000000
1C0180
1E0180
1E0380
1E0300
1F0300
3B0300
338300
318700
31C600
31C600
70C600
60E600
606E00
607C00
603C00
E03C00
C03C00
C01C00
ENDCHAR
STARTCHAR Ograve
ENCODING 210
SWIDTH 777 0
DWIDTH 19 0
BBX 18 23 3 0
BITMAP
00E000
006000
006000
003000
000000
00FC00
03FF00
0F0700
1C0380
380180
3801C0
7001C0
6001C0
E00180
E00380
E00380
E00300
E00700
E00E00
701C00
787800
3FF000
0FC000
ENDCHAR
STARTCHAR Oacute
ENCODING 211
SWIDTH 777 0
DWIDTH 19 0
BBX 18 23 3 0
BITMAP
000E00
001800
003000
006000
000000
00FC00
03FF00
0F0700
1C0380
380180
3801C0
7001C0
6001C0
E00180
E00380
E00380
E00300
E00700
E00E00
701C00
787800
3FF000
0FC000
ENDCHAR
STARTCHAR Ocircumflex
ENCODING 212
SWIDTH 777 0
DWIDTH 19 0
BBX 18 23 3 0
BITMAP
007800
00F800
01D800
038C00
000000
00FC00
03FF00
0F0700
1C0380
380180
3801C0
7001C0
6001C0
E00180
E00380
E00380
E00300
E00700
E00E00
701C00
787800
3FF000
0FC000
ENDCHAR
STARTCHAR Otilde
ENCODING 213
SWIDTH 777 0
DWIDTH 19 0
BBX 18 21 3 0
BITMAP
00F600
01BC00
000000
00FC00
03FF00
0F0700
1C0380
380180
3801C0
7001C0
6001C0
E00180
E00380
E00380
E00300
E00700
E00E00
701C00
787800
3FF000
0FC000
ENDCHAR
STARTCHAR Odieresis
ENCODING 214
SWIDTH 777 0
DWIDTH 19 0
BBX 18 21 3 0
BITMAP
018C00
018C00
000000
00FC00
03FF00
0F0700
1C0380
380180
3801C0
7001C0
6001C0
E00180
E00380
E00380
E00300
E00700
E00E00
701C00
787800
3FF000
0FC000
ENDCHAR
STARTCHAR multiply
ENCODING 215
SWIDTH 633 0
DWIDTH 16 0
BBX 17 15 1 0
BITMAP
300100
180380
1C0700
0E0E00
061800
037000
01E000
01C000
03E000
076000
0C3000
383800
701C00
E00C00
400600
ENDCHAR
STARTCHAR Oslash
ENCODING 216
SWIDTH 777 0
DWIDTH 19 0
BBX 21 18 4 0
BITMAP
007E38
01FFE0
0783C0
0E01C0
1C03C0
1C06E0
380CE0
3018E0
7030C0
7061C0
70C1C0
718180
730380
760700
3C0E00
3C3C00
3FF800
E7E000
ENDCHAR
STARTCHAR Ugrave
ENCODING 217
SWIDTH 693 0
DWIDTH 17 0
BBX 15 23 3 0
BITMAP
01C0
00C0
00C0
0060
0000
3806
380E
380E
300C
300C
700C
701C
701C
6018
6018
E018
E038
E030
E030
E070
F0E0
7FC0
3F80
ENDCHAR
STARTCHAR Uacute
ENCODING 218
SWIDTH 693 0
DWIDTH 17 0
BBX 15 23 3 0
BITMAP
0038
0060
00C0
0180
0000
3806
380E
380E
300C
300C
700C
701C
701C
6018
6018
E018
E038
E030
E030
E070
F0E0
7FC0
3F80
ENDCHAR
STARTCHAR Ucircumflex
ENCODING 219
SWIDTH 693 0
DWIDTH 17 0
BBX 15 23 3 0
BITMAP
00F0
01F0
03B0
0718
0000
3806
380E
380E
300C
300C
700C
701C
701C
6018
6018
E018
E038
E030
E030
E070
F0E0
7FC0
3F80
ENDCHAR
STARTCHAR Udieresis
ENCODING 220
SWIDTH 693 0
DWIDTH 17 0
BBX 15 21 3 0
BITMAP
0630
0630
0000
3806
380E
380E
300C
300C
700C
701C
701C
6018
6018
E018
E038
E030
E030
E070
F0E0
7FC0
3F80
ENDCHAR
STARTCHAR Yacute
ENCODING 221
SWIDTH 608 0
DWIDTH 15 0
BBX 15 23 4 0
BITMAP
0070
00C0
0180
0300
0000
E00E
601C
7038
3030
3860
38C0
1DC0
1F80
0F00
0E00
0E00
0E00
0C00
0C00
1C00
1C00
1C00
1800
ENDCHAR
STARTCHAR Thorn
ENCODING 222
SWIDTH 575 0
DWIDTH 14 0
BBX 13 18 2 0
BITMAP
1C00
1C00
1C00
1C00
1FE0
3FF8
3838
3838
3038
3038
7070
70E0
7FC0
7F00
6000
E000
E000
E000
ENDCHAR
STARTCHAR germandbls
ENCODING 223
SWIDTH 595 0
DWIDTH 15 0
BBX 13 25 2 -5
BITMAP
01E0
07F0
0630
0C30
0C30
0C60
1CC0
1D80
1B80
1B80
1B80
19C0
38E0
3870
3038
3018
3018
7238
77F0
63E0
6000
6000
E000
E000
C000
ENDCHAR
STARTCHAR agrave
ENCODING 224
SWIDTH 608 0
DWIDTH 15 0
BBX 13 18 2 0
BITMAP
01C0
00C0
00C0
0060
0000
03F8
07F8
1E38
3830
3030
7070
60F0
E1F0
E1E0
E360
E760
FCE0
78E0
ENDCHAR
STARTCHAR aacute
ENCODING 225
SWIDTH 608 0
DWIDTH 15 0
BBX 13 18 2 0
BITMAP
0038
0060
00C0
0180
0000
03F8
07F8
1E38
3830
3030
7070
60F0
E1F0
E1E0
E360
E760
FCE0
78E0
ENDCHAR
STARTCHAR acircumflex
ENCODING 226
SWIDTH 608 0
DWIDTH 15 0
BBX 13 18 2 0
BITMAP
00F0
01F0
03B0
0718
0000
03F8
07F8
1E38
3830
3030
7070
60F0
E1F0
E1E0
E360
E760
FCE0
78E0
ENDCHAR
STARTCHAR atilde
ENCODING 227
SWIDTH 608 0
DWIDTH 15 0
BBX 13 16 2 0
BITMAP
03D8
06F0
0000
03F8
07F8
1E38
3830
3030
7070
60F0
E1F0
E1E0
E360
E760
FCE0
78E0
ENDCHAR
STARTCHAR adieresis
ENCODING 228
SWIDTH 608 0
DWIDTH 15 0
BBX 13 16 2 0
BITMAP
0318
0318
0000
03F8
07F8
1E38
3830
3030
7070
60F0
E1F0
E1E0
E360
E760
FCE0
78E0
ENDCHAR
STARTCHAR aring
ENCODING 229
SWIDTH 608 0
DWIDTH 15 0
BBX 13 18 2 0
BITMAP
00C0
0120
0120
00C0
0000
03F8
07F8
1E38
3830
3030
7070
60F0
E1F0
E1E0
E360
E760
FCE0
78E0
ENDCHAR
STARTCHAR ae
ENCODING 230
SWIDTH 893 0
DWIDTH 22 0
BBX 20 13 2 0
BITMAP
03FBE0
07FFF0
1E1E70
383830
303870
7070E0
60FF80
E0FE00
E1F000
E3F010
E73070
FE3FE0
781F80
ENDCHAR
STARTCHAR ccedilla
ENCODING 231
SWIDTH 503 0
DWIDTH 13 0
BBX 11 18 2 -5
BITMAP
03E0
0FE0
1C20
3800
7000
6000
E000
E000
E000
E000
E0C0
7F80
3F00
0800
1800
0C00
0C00
3800
ENDCHAR
STARTCHAR egrave
ENCODING 232
SWIDTH 529 0
DWIDTH 13 0
BBX 11 18 2 0
BITMAP
0380
0180
0180
00C0
0000
07C0
0FE0
18E0
30E0
60C0
6180
FF00
FC00
C000
E020
E0C0
7FC0
3F00
ENDCHAR
STARTCHAR eacute
ENCODING 233
SWIDTH 529 0
DWIDTH 13 0
BBX 12 18 2 0
BITMAP
0070
00C0
0180
0300
0000
07C0
0FE0
18E0
30E0
60C0
6180
FF00
FC00
C000
E020
E0C0
7FC0
3F00
ENDCHAR
STARTCHAR ecircumflex
ENCODING 234
SWIDTH 529 0
DWIDTH 13 0
BBX 12 18 2 0
BITMAP
01E0
03E0
0760
0E30
0000
07C0
0FE0
18E0
30E0
60C0
6180
FF00
FC00
C000
E020
E0C0
7FC0
3F00
ENDCHAR
STARTCHAR edieresis
ENCODING 235
SWIDTH 529 0
DWIDTH 13 0
BBX 12 16 2 0
BITMAP
0630
0630
0000
07C0
0FE0
18E0
30E0
60C0
6180
FF00
FC00
C000
E020
E0C0
7FC0
3F00
ENDCHAR
STARTCHAR igrave
ENCODING 236
SWIDTH 289 0
DWIDTH 7 0
BBX 7 18 2 0
BITMAP
1C
0C
0C
06
00
18
38
38
30
30
30
70
70
60
60
60
E0
E0
ENDCHAR
STARTCHAR iacute
ENCODING 237
SWIDTH 289 0
DWIDTH 7 0
BBX 9 18 2 0
BITMAP
0380
0600
0C00
1800
0000
1800
3800
3800
3000
3000
3000
7000
7000
6000
6000
6000
E000
E000
ENDCHAR
STARTCHAR icircumflex
ENCODING 238
SWIDTH 289 0
DWIDTH 7 0
BBX 9 18 2 0
BITMAP
0F00
1F00
3B00
7180
0000
1800
3800
3800
3000
3000
3000
7000
7000
6000
6000
6000
E000
E000
ENDCHAR
STARTCHAR idieresis
ENCODING 239
SWIDTH 289 0
DWIDTH 7 0
BBX 8 16 2 0
BITMAP
63
63
00
18
38
38
30
30
30
70
70
60
60
60
E0
E0
ENDCHAR
STARTCHAR eth
ENCODING 240
SWIDTH 556 0
DWIDTH 14 0
BBX 12 18 2 0
BITMAP
1FE0
3FE0
03C0
0FE0
0660
07F0
1FF0
3C70
3030
7030
6030
E030
E070
E060
E0E0
F1C0
7F80
3E00
ENDCHAR
STARTCHAR ntilde
ENCODING 241
SWIDTH 620 0
DWIDTH 16 0
BBX 13 16 2 0
BITMAP
03D8
06F0
0000
1870
39F8
3BB8
3738
3E38
3C38
7830
7030
7070
6070
6060
E060
E060
ENDCHAR
STARTCHAR ograve
ENCODING 242
SWIDTH 566 0
DWIDTH 14 0
BBX 12 18 2 0
BITMAP
0380
0180
0180
00C0
0000
07C0
0FE0
1C70
3030
7030
6030
E030
E070
E060
E0E0
E1C0
7F80
3E00
ENDCHAR
STARTCHAR oacute
ENCODING 243
SWIDTH 566 0
DWIDTH 14 0
BBX 13 18 2 0
BITMAP
0038
0060
00C0
0180
0000
07C0
0FE0
1C70
3030
7030
6030
E030
E070
E060
E0E0
E1C0
7F80
3E00
ENDCHAR
STARTCHAR ocircumflex
ENCODING 244
SWIDTH 566 0
DWIDTH 14 0
BBX 12 18 2 0
BITMAP
01E0
03E0
0760
0E30
0000
07C0
0FE0
1C70
3030
7030
6030
E030
E070
E060
E0E0
E1C0
7F80
3E00
ENDCHAR
STARTCHAR otilde
ENCODING 245
SWIDTH 566 0
DWIDTH 14 0
BBX 13 16 2 0
BITMAP
03D8
06F0
0000
07C0
0FE0
1C70
3030
7030
6030
E030
E070
E060
E0E0
E1C0
7F80
3E00
ENDCHAR
STARTCHAR odieresis
ENCODING 246
SWIDTH 566 0
DWIDTH 14 0
BBX 12 16 2 0
BITMAP
0630
0630
0000
07C0
0FE0
1C70
3030
7030
6030
E030
E070
E060
E0E0
E1C0
7F80
3E00
ENDCHAR
STARTCHAR divide
ENCODING 247
SWIDTH 633 0
DWIDTH 16 0
BBX 15 13 2 0
BITMAP
01C0
01C0
0000
0000
0000
0000
FFFE
FFFE
0000
0000
0000
0700
0700
ENDCHAR
STARTCHAR oslash
ENCODING 248
SWIDTH 566 0
DWIDTH 14 0
BBX 15 13 3 0
BITMAP
03EE
07FC
0E38
1878
38F8
31D8
7398
7738
7E30
7C70
78E0
7FC0
FF00
ENDCHAR
STARTCHAR ugrave
ENCODING 249
SWIDTH 620 0
DWIDTH 16 0
BBX 13 18 3 0
BITMAP
0380
0180
0180
00C0
0000
3018
3038
3030
3030
6070
6070
60F0
61E0
E3E0
C760
EEE0
FCE0
70C0
ENDCHAR
STARTCHAR uacute
ENCODING 250
SWIDTH 620 0
DWIDTH 16 0
BBX 13 18 3 0
BITMAP
0038
0060
00C0
0180
0000
3018
3038
3030
3030
6070
6070
60F0
61E0
E3E0
C760
EEE0
FCE0
70C0
ENDCHAR
STARTCHAR ucircumflex
ENCODING 251
SWIDTH 620 0
DWIDTH 16 0
BBX 13 18 3 0
BITMAP
01E0
03E0
0760
0E30
0000
3018
3038
3030
3030
6070
6070
60F0
61E0
E3E0
C760
EEE0
FCE0
70C0
ENDCHAR
STARTCHAR udieresis
ENCODING 252
SWIDTH 620 0
DWIDTH 16 0
BBX 13 16 3 0
BITMAP
0630
0630
0000
3018
3038
3030
3030
6070
6070
60F0
61E0
E3E0
C760
EEE0
FCE0
70C0
ENDCHAR
STARTCHAR yacute
ENCODING 253
SWIDTH 548 0
DWIDTH 14 0
BBX 14 23 2 -5
BITMAP
0070
00C0
0180
0300
0000
601C
7018
7030
7070
3060
30C0
31C0
3980
3B80
3B00
1E00
1E00
1C00
1800
3800
3000
6000
E000
ENDCHAR
STARTCHAR thorn
ENCODING 254
SWIDTH 608 0
DWIDTH 15 0
BBX 14 22 2 -5
BITMAP
0E00
0C00
0C00
0C00
1C78
1DFC
1B9C
1F1C
1E1C
3E1C
3C18
3838
3030
3070
71E0
7F80
7F00
6000
6000
E000
E000
C000
ENDCHAR
STARTCHAR ydieresis
ENCODING 255
SWIDTH 548 0
DWIDTH 14 0
BBX 14 21 2 -5
BITMAP
0630
0630
0000
601C
7018
7030
7070
3060
30C0
31C0
3980
3B80
3B00
1E00
1E00
1C00
1800
3800
3000
6000
E000
ENDCHAR
STARTCHAR Amacron
ENCODING 256
SWIDTH 687 0
DWIDTH 17 0
BBX 16 21 1 0
BITMAP
03F8
03F8
0000
0038
0078
0078
00F8
01D8
019C
039C
030C
070C
060C
0C0E
0FFE
1FFE
3806
3006
7007
6007
E007
ENDCHAR
STARTCHAR amacron
ENCODING 257
SWIDTH 608 0
DWIDTH 15 0
BBX 13 16 2 0
BITMAP
0FE0
0FE0
0000
03F8
07F8
1E38
3830
3030
7070
60F0
E1F0
E1E0
E360
E760
FCE0
78E0
ENDCHAR
STARTCHAR Abreve
ENCODING 258
SWIDTH 687 0
DWIDTH 17 0
BBX 16 23 1 0
BITMAP
030C
0308
01F8
01E0
0000
0038
0078
0078
00F8
01D8
019C
039C
030C
070C
060C
0C0E
0FFE
1FFE
3806
3006
7007
6007
E007
ENDCHAR
STARTCHAR abreve
ENCODING 259
SWIDTH 608 0
DWIDTH 15 0
BBX 13 18 2 0
BITMAP
0C30
0C20
07E0
0780
0000
03F8
07F8
1E38
3830
3030
7070
60F0
E1F0
E1E0
E360
E760
FCE0
78E0
ENDCHAR
STARTCHAR Aogonek
ENCODING 260
SWIDTH 687 0
DWIDTH 17 0
BBX 16 22 1 -4
BITMAP
0038
0078
0078
00F8
01D8
019C
039C
030C
070C
060C
0C0E
0FFE
1FFE
3806
3006
7007
6007
E007
00C0
0180
0180
00E0
ENDCHAR
STARTCHAR aogonek
ENCODING 261
SWIDTH 608 0
DWIDTH 15 0
BBX 13 17 2 -4
BITMAP
03F8
07F8
1E38
3830
3030
7070
60F0
E1F0
E1E0
E360
E760
FCE0
78E0
0600
0C00
0C00
0700
ENDCHAR
STARTCHAR Cacute
ENCODING 262
SWIDTH 679 0
DWIDTH 17 0
BBX 17 23 2 0
BITMAP
003800
006000
00C000
018000
000000
00FF00
03FF80
0F0180
1E0000
3C0000
380000
700000
700000
E00000
E00000
E00000
E00000
E00000
E00000
700000
780C00
3FFC00
0FE000
ENDCHAR
STARTCHAR cacute
ENCODING 263
SWIDTH 503 0
DWIDTH 13 0
BBX 11 18 2 0
BITMAP
01C0
0300
0600
0C00
0000
03E0
0FE0
1C20
3800
7000
6000
E000
E000
E000
E000
E0C0
7F80
3F00
ENDCHAR
STARTCHAR Ccircumflex
ENCODING 264
SWIDTH 679 0
DWIDTH 17 0
BBX 17 23 2 0
BITMAP
00F000
01F000
03B000
071800
000000
00FF00
03FF80
0F0180
1E0000
3C0000
380000
700000
700000
E00000
E00000
E00000
E00000
E00000
E00000
700000
780C00
3FFC00
0FE000
ENDCHAR
STARTCHAR ccircumflex
ENCODING 265
SWIDTH 503 0
DWIDTH 13 0
BBX 11 18 2 0
BITMAP
03C0
07C0
0EC0
1C60
0000
03E0
0FE0
1C20
3800
7000
6000
E000
E000
E000
E000
E0C0
7F80
3F00
ENDCHAR
STARTCHAR Cdotaccent
ENCODING 266
SWIDTH 679 0
DWIDTH 17 0
BBX 17 21 2 0
BITMAP
00E000
00E000
000000
00FF00
03FF80
0F0180
1E0000
3C0000
380000
700000
700000
E00000
E00000
E00000
E00000
E00000
E00000
700000
780C00
3FFC00
0FE000
ENDCHAR
STARTCHAR cdotaccent
ENCODING 267
SWIDTH 503 0
DWIDTH 13 0
BBX 11 16 2 0
BITMAP
0700
0700
0000
03E0
0FE0
1C20
3800
7000
6000
E000
E000
E000
E000
E0C0
7F80
3F00
ENDCHAR
STARTCHAR Ccaron
ENCODING 268
SWIDTH 679 0
DWIDTH 17 0
BBX 17 23 2 0
BITMAP
031C00
01B800
01B000
00E000
000000
00FF00
03FF80
0F0180
1E0000
3C0000
380000
700000
700000
E00000
E00000
E00000
E00000
E00000
E00000
700000
780C00
3FFC00
0FE000
ENDCHAR
STARTCHAR ccaron
ENCODING 269
SWIDTH 503 0
DWIDTH 13 0
BBX 11 18 2 0
BITMAP
18E0
0DC0
0D80
0700
0000
03E0
0FE0
1C20
3800
7000
6000
E000
E000
E000
E000
E0C0
7F80
3F00
ENDCHAR
STARTCHAR Dcaron
ENCODING 270
SWIDTH 743 0
DWIDTH 19 0
BBX 17 23 2 0
BITMAP
031C00
01B800
01B000
00E000
000000
1FFC00
1FFE00
1C1F00
180780
180380
380380
380380
380380
300380
300380
700300
700700
700600
600E00
601C00
E07800
FFF000
FFC000
ENDCHAR
STARTCHAR dcaron
ENCODING 271
SWIDTH 795 0
DWIDTH 19 0
BBX 20 18 2 0
BITMAP
000E70
000E70
000C70
000C60
001C60
01FCC0
07FC00
0E1800
1C1800
383800
703800
607000
E0F000
E1F000
E3F000
E77000
FE6000
786000
ENDCHAR
STARTCHAR Dcroat
ENCODING 272
SWIDTH 743 0
DWIDTH 19 0
BBX 18 18 1 0
BITMAP
0FFE00
0FFF00
0E0F80
0C03C0
0C01C0
0C01C0
1C01C0
1C01C0
FFC1C0
FF81C0
180180
380380
380300
300700
300E00
303C00
7FF800
7FE000
ENDCHAR
STARTCHAR dcroat
ENCODING 273
SWIDTH 608 0
DWIDTH 15 0
BBX 15 18 2 0
BITMAP
000E
000E
000C
00FC
00FC
01FC
07FC
0E18
1C18
3838
7038
6070
E0F0
E1F0
E3F0
E770
FE60
7860
ENDCHAR
STARTCHAR Emacron
ENCODING 274
SWIDTH 547 0
DWIDTH 14 0
BBX 14 21 2 0
BITMAP
0FE0
0FE0
0000
0FFC
1FFC
1C00
1C00
1800
1800
3800
3800
3FE0
3FE0
3000
7000
7000
7000
6000
6000
FFE0
FFE0
ENDCHAR
STARTCHAR emacron
ENCODING 275
SWIDTH 529 0
DWIDTH 13 0
BBX 11 16 2 0
BITMAP
1FC0
1FC0
0000
07C0
0FE0
18E0
30E0
60C0
6180
FF00
FC00
C000
E020
E0C0
7FC0
3F00
ENDCHAR
STARTCHAR Ebreve
ENCODING 276
SWIDTH 547 0
DWIDTH 14 0
BBX 14 23 2 0
BITMAP
0C30
0C20
07E0
0780
0000
0FFC
1FFC
1C00
1C00
1800
1800
3800
3800
3FE0
3FE0
3000
7000
7000
7000
6000
6000
FFE0
FFE0
ENDCHAR
STARTCHAR ebreve
ENCODING 277
SWIDTH 529 0
DWIDTH 13 0
BBX 11 18 2 0
BITMAP
1860
1840
0FC0
0F00
0000
07C0
0FE0
18E0
30E0
60C0
6180
FF00
FC00
C000
E020
E0C0
7FC0
3F00
ENDCHAR
STARTCHAR Edotaccent
ENCODING 278
SWIDTH 547 0
DWIDTH 14 0
BBX 14 21 2 0
BITMAP
0380
0380
0000
0FFC
1FFC
1C00
1C00
1800
1800
3800
3800
3FE0
3FE0
3000
7000
7000
7000
6000
6000
FFE0
FFE0
ENDCHAR
STARTCHAR edotaccent
ENCODING 279
SWIDTH 529 0
DWIDTH 13 0
BBX 11 16 2 0
BITMAP
0700
0700
0000
07C0
0FE0
18E0
30E0
60C0
6180
FF00
FC00
C000
E020
E0C0
7FC0
3F00
ENDCHAR
STARTCHAR Eogonek
ENCODING 280
SWIDTH 547 0
DWIDTH 14 0
BBX 14 22 2 -4
BITMAP
0FFC
1FFC
1C00
1C00
1800
1800
3800
3800
3FE0
3FE0
3000
7000
7000
7000
6000
6000
FFE0
FFE0
0600
0C00
0C00
0700
ENDCHAR
STARTCHAR eogonek
ENCODING 281
SWIDTH 529 0
DWIDTH 13 0
BBX 11 17 2 -4
BITMAP
07C0
0FE0
18E0
30E0
60C0
6180
FF00
FC00
C000
E020
E0C0
7FC0
3F00
0C00
1800
1800
0E00
ENDCHAR
STARTCHAR Ecaron
ENCODING 282
SWIDTH 547 0
DWIDTH 14 0
BBX 14 23 2 0
BITMAP
0C70
06E0
06C0
0380
0000
0FFC
1FFC
1C00
1C00
1800
1800
3800
3800
3FE0
3FE0
3000
7000
7000
7000
6000
6000
FFE0
FFE0
ENDCHAR
STARTCHAR ecaron
ENCODING 283
SWIDTH 529 0
DWIDTH 13 0
BBX 11 18 2 0
BITMAP
18E0
0DC0
0D80
0700
0000
07C0
0FE0
18E0
30E0
60C0
6180
FF00
FC00
C000
E020
E0C0
7FC0
3F00
ENDCHAR
STARTCHAR Gcircumflex
ENCODING 284
SWIDTH 702 0
DWIDTH 18 0
BBX 16 23 3 0
BITMAP
00F0
01F0
03B0
0718
0000
00FE
07FF
0F03
1C00
3800
3000
7000
6000
E000
E000
E00C
E00C
E01C
E01C
701C
7838
3FF8
0FC0
ENDCHAR
STARTCHAR gcircumflex
ENCODING 285
SWIDTH 608 0
DWIDTH 15 0
BBX 14 23 1 -5
BITMAP
01E0
03E0
0760
0E30
0000
01FC
07FC
0F18
1C18
1818
3838
3038
7070
70F0
71B0
7330
3E70
3C60
0060
0060
C0C0
FF80
7E00
ENDCHAR
STARTCHAR Gbreve
ENCODING 286
SWIDTH 702 0
DWIDTH 18 0
BBX 16 23 3 0
BITMAP
0618
0610
03F0
03C0
0000
00FE
07FF
0F03
1C00
3800
3000
7000
6000
E000
E000
E00C
E00C
E01C
E01C
701C
7838
3FF8
0FC0
ENDCHAR
STARTCHAR gbreve
ENCODING 287
SWIDTH 608 0
DWIDTH 15 0
BBX 14 23 1 -5
BITMAP
0618
0610
03F0
03C0
0000
01FC
07FC
0F18
1C18
1818
3838
3038
7070
70F0
71B0
7330
3E70
3C60
0060
0060
C0C0
FF80
7E00
ENDCHAR
STARTCHAR Gdotaccent
ENCODING 288
SWIDTH 702 0
DWIDTH 18 0
BBX 16 21 3 0
BITMAP
01C0
01C0
0000
00FE
07FF
0F03
1C00
3800
3000
7000
6000
E000
E000
E00C
E00C
E01C
E01C
701C
7838
3FF8
0FC0
ENDCHAR
STARTCHAR gdotaccent
ENCODING 289
SWIDTH 608 0
DWIDTH 15 0
BBX 14 21 1 -5
BITMAP
01C0
01C0
0000
01FC
07FC
0F18
1C18
1818
3838
3038
7070
70F0
71B0
7330
3E70
3C60
0060
0060
C0C0
FF80
7E00
ENDCHAR
STARTCHAR Gcommaaccent
ENCODING 290
SWIDTH 702 0
DWIDTH 18 0
BBX 16 27 3 -9
BITMAP
00FE
07FF
0F03
1C00
3800
3000
7000
6000
E000
E000
E00C
E00C
E01C
E01C
701C
7838
3FF8
0FC0
0000
0380
0380
0380
0100
0100
0300
0300
0600
ENDCHAR
STARTCHAR gcommaaccent
ENCODING 291
SWIDTH 608 0
DWIDTH 15 0
BBX 14 25 1 -5
BITMAP
0060
00C0
0080
0180
01C0
01C0
0000
01FC
07FC
0F18
1C18
1818
3838
3038
7070
70F0
71B0
7330
3E70
3C60
0060
0060
C0C0
FF80
7E00
ENDCHAR
STARTCHAR Hcircumflex
ENCODING 292
SWIDTH 735 0
DWIDTH 18 0
BBX 17 23 2 0
BITMAP
007800
00F800
01D800
038C00
000000
1C0380
1C0380
1C0380
180300
180300
380700
380700
380700
3FFE00
3FFE00
700600
700E00
700E00
600C00
600C00
E01C00
E01C00
E01C00
ENDCHAR
STARTCHAR hcircumflex
ENCODING 293
SWIDTH 620 0
DWIDTH 16 0
BBX 13 23 2 0
BITMAP
0F00
1F00
3B00
7180
0000
0C00
0C00
1C00
1C00
1800
1870
39F8
3BB8
3738
3E38
3C38
7830
7030
7070
6070
6060
E060
E060
ENDCHAR
STARTCHAR Hbar
ENCODING 294
SWIDTH 735 0
DWIDTH 18 0
BBX 17 18 2 0
BITMAP
1C0380
1C0380
1C0380
180300
FFFF80
FFFF80
380700
380700
3FFE00
3FFE00
700600
700E00
700E00
600C00
600C00
E01C00
E01C00
E01C00
ENDCHAR
STARTCHAR hbar
ENCODING 295
SWIDTH 620 0
DWIDTH 16 0
BBX 13 18 2 0
BITMAP
0C00
0C00
1C00
FC00
FC00
1870
39F8
3BB8
3738
3E38
3C38
7830
7030
7070
6070
6060
E060
E060
ENDCHAR
STARTCHAR Itilde
ENCODING 296
SWIDTH 289 0
DWIDTH 7 0
BBX 8 21 2 0
BITMAP
7B
DE
00
1C
1C
1C
18
18
38
38
38
30
30
70
70
70
60
60
E0
E0
E0
ENDCHAR
STARTCHAR itilde
ENCODING 297
SWIDTH 289 0
DWIDTH 7 0
BBX 8 16 1 0
BITMAP
7B
DE
00
0C
1C
1C
18
18
18
38
38
30
30
30
70
70
ENDCHAR
STARTCHAR Imacron
ENCODING 298
SWIDTH 289 0
DWIDTH 7 0
BBX 7 21 2 0
BITMAP
FE
FE
00
1C
1C
1C
18
18
38
38
38
30
30
70
70
70
60
60
E0
E0
E0
ENDCHAR
STARTCHAR imacron
ENCODING 299
SWIDTH 289 0
DWIDTH 7 0
BBX 7 16 2 0
BITMAP
FE
FE
00
18
38
38
30
30
30
70
70
60
60
60
E0
E0
ENDCHAR
STARTCHAR Ibreve
ENCODING 300
SWIDTH 289 0
DWIDTH 7 0
BBX 8 23 2 0
BITMAP
C3
C2
7E
78
00
1C
1C
1C
18
18
38
38
38
30
30
70
70
70
60
60
E0
E0
E0
ENDCHAR
STARTCHAR ibreve
ENCODING 301
SWIDTH 289 0
DWIDTH 7 0
BBX 8 18 1 0
BITMAP
C3
C2
7E
78
00
0C
1C
1C
18
18
18
38
38
30
30
30
70
70
ENDCHAR
STARTCHAR Iogonek
ENCODING 302
SWIDTH 289 0
DWIDTH 7 0
BBX 6 22 2 -4
BITMAP
1C
1C
1C
18
18
38
38
38
30
30
70
70
70
60
60
E0
E0
E0
60
C0
C0
70
ENDCHAR
STARTCHAR iogonek
ENCODING 303
SWIDTH 289 0
DWIDTH 7 0
BBX 6 22 2 -4
BITMAP
1C
1C
00
00
00
18
38
38
30
30
30
70
70
60
60
60
E0
E0
30
60
60
38
ENDCHAR
STARTCHAR Idotaccent
ENCODING 304
SWIDTH 289 0
DWIDTH 7 0
BBX 6 21 2 0
BITMAP
38
38
00
1C
1C
1C
18
18
38
38
38
30
30
70
70
70
60
60
E0
E0
E0
ENDCHAR
STARTCHAR dotlessi
ENCODING 305
SWIDTH 289 0
DWIDTH 7 0
BBX 5 13 2 0
BITMAP
18
38
38
30
30
30
70
70
60
60
60
E0
E0
ENDCHAR
STARTCHAR IJ
ENCODING 306
SWIDTH 683 0
DWIDTH 17 0
BBX 17 22 2 -4
BITMAP
1C0380
1C0380
1C0380
180300
180300
380700
380700
380700
300600
300600
700E00
700E00
700E00
600C00
600C00
E01C00
E01C00
E01800
001800
043000
07F000
07C000
ENDCHAR
STARTCHAR ij
ENCODING 307
SWIDTH 600 0
DWIDTH 15 0
BBX 15 23 2 -5
BITMAP
1C0E
1C0E
0000
0000
0000
180C
381C
381C
3018
3018
3018
7038
7038
6030
6030
6070
E070
E070
0060
00E0
11C0
1F80
1F00
ENDCHAR
STARTCHAR Jcircumflex
ENCODING 308
SWIDTH 408 0
DWIDTH 10 0
BBX 13 27 0 -4
BITMAP
00F0
01F0
03B0
0718
0000
0070
0070
0070
0060
0060
00E0
00E0
00E0
00C0
00C0
01C0
01C0
01C0
0180
0180
0380
0380
0300
0300
8600
FE00
F800
ENDCHAR
STARTCHAR jcircumflex
ENCODING 309
SWIDTH 325 0
DWIDTH 8 0
BBX 12 23 -2 -5
BITMAP
01E0
03E0
0760
0E30
0000
0060
00E0
00E0
00C0
00C0
00C0
01C0
01C0
0180
0180
0380
0380
0380
0300
0700
8E00
FC00
F800
ENDCHAR
STARTCHAR Kcommaaccent
ENCODING 310
SWIDTH 635 0
DWIDTH 16 0
BBX 16 27 2 -9
BITMAP
0C07
1C0C
1C18
1C30
1860
18C0
3980
3B00
3E00
3700
3300
7180
71C0
70C0
6060
6070
E030
E018
0000
0700
0700
0700
0200
0200
0600
0600
0C00
ENDCHAR
STARTCHAR kcommaaccent
ENCODING 311
SWIDTH 572 0
DWIDTH 14 0
BBX 13 27 2 -9
BITMAP
0C00
0C00
1C00
1800
1800
1838
3860
39C0
3380
3700
3E00
7E00
7700
6300
6380
61C0
E0E0
E070
0000
0700
0700
0700
0200
0200
0600
0600
0C00
ENDCHAR
STARTCHAR kgreenlandic
ENCODING 312
SWIDTH 572 0
DWIDTH 14 0
BBX 13 13 2 0
BITMAP
1838
3860
39C0
3380
3700
3E00
7E00
7700
6300
6380
61C0
E0E0
E070
ENDCHAR
STARTCHAR Lacute
ENCODING 313
SWIDTH 545 0
DWIDTH 14 0
BBX 11 23 3 0
BITMAP
0380
0600
0C00
1800
0000
1C00
1C00
1C00
1800
1800
3800
3800
3800
3000
3000
7000
7000
7000
6000
6000
E000
FFE0
FFE0
ENDCHAR
STARTCHAR lacute
ENCODING 314
SWIDTH 289 0
DWIDTH 7 0
BBX 8 23 3 0
BITMAP
07
0C
18
30
00
0C
1C
1C
18
18
18
38
38
30
30
30
70
70
60
60
60
E0
E0
ENDCHAR
STARTCHAR Lcommaaccent
ENCODING 315
SWIDTH 545 0
DWIDTH 14 0
BBX 11 27 3 -9
BITMAP
1C00
1C00
1C00
1800
1800
3800
3800
3800
3000
3000
7000
7000
7000
6000
6000
E000
FFE0
FFE0
0000
0E00
0E00
0E00
0400
0400
0C00
0C00
1800
ENDCHAR
STARTCHAR lcommaaccent
ENCODING 316
SWIDTH 289 0
DWIDTH 7 0
BBX 6 27 3 -9
BITMAP
0C
1C
1C
18
18
18
38
38
30
30
30
70
70
60
60
60
E0
E0
00
70
70
70
20
20
60
60
C0
ENDCHAR
STARTCHAR Lcaron
ENCODING 317
SWIDTH 735 0
DWIDTH 18 0
BBX 18 18 3 0
BITMAP
1C01C0
1C01C0
1C01C0
180180
180180
380300
380000
380000
300000
300000
700000
700000
700000
600000
600000
E00000
FFE000
FFE000
ENDCHAR
STARTCHAR lcaron
ENCODING 318
SWIDTH 492 0
DWIDTH 12 0
BBX 12 18 3 0
BITMAP
0C70
1C70
1C70
1860
1860
18C0
3800
3800
3000
3000
3000
7000
7000
6000
6000
6000
E000
E000
ENDCHAR
STARTCHAR Ldot
ENCODING 319
SWIDTH 834 0
DWIDTH 29 0
BBX 21 18 3 0
BITMAP
1C0000
1C0000
1C0000
180000
180000
380000
380000
380000
300000
300038
700078
700070
700000
600000
600000
E00000
FFE000
FFE000
ENDCHAR
STARTCHAR ldot
ENCODING 320
SWIDTH 591 0
DWIDTH 23 0
BBX 15 18 3 0
BITMAP
0C00
1C00
1C00
1800
1800
1800
3800
3800
3000
300E
301E
701C
7000
6000
6000
6000
E000
E000
ENDCHAR
STARTCHAR Lslash
ENCODING 321
SWIDTH 545 0
DWIDTH 14 0
BBX 13 18 1 0
BITMAP
0700
0600
0600
0E00
0E00
0E80
0D80
0F80
1E00
7C00
FC00
9800
1800
3800
3800
3800
3FF8
3FF8
ENDCHAR
STARTCHAR lslash
ENCODING 322
SWIDTH 289 0
DWIDTH 7 0
BBX 9 18 1 0
BITMAP
0600
0600
0600
0E00
0E00
0C80
0F80
0F00
1C00
7800
D800
9800
3800
3800
3800
3000
3000
7000
ENDCHAR
STARTCHAR Nacute
ENCODING 323
SWIDTH 741 0
DWIDTH 19 0
BBX 17 23 3 0
BITMAP
003800
006000
00C000
018000
000000
1C0180
1E0180
1E0380
1E0300
1F0300
3B0300
338300
318700
31C600
31C600
70C600
60E600
606E00
607C00
603C00
E03C00
C03C00
C01C00
ENDCHAR
STARTCHAR nacute
ENCODING 324
SWIDTH 620 0
DWIDTH 16 0
BBX 13 18 2 0
BITMAP
00E0
0180
0300
0600
0000
1870
39F8
3BB8
3738
3E38
3C38
7830
7030
7070
6070
6060
E060
E060
ENDCHAR
STARTCHAR Ncommaaccent
ENCODING 325
SWIDTH 741 0
DWIDTH 19 0
BBX 17 27 3 -9
BITMAP
1C0180
1E0180
1E0380
1E0300
1F0300
3B0300
338300
318700
31C600
31C600
70C600
60E600
606E00
607C00
603C00
E03C00
C03C00
C01C00
000000
01C000
01C000
01C000
008000
008000
018000
018000
030000
ENDCHAR
STARTCHAR ncommaaccent
ENCODING 326
SWIDTH 620 0
DWIDTH 16 0
BBX 13 22 2 -9
BITMAP
1870
39F8
3BB8
3738
3E38
3C38
7830
7030
7070
6070
6060
E060
E060
0000
0700
0700
0700
0200
0200
0600
0600
0C00
ENDCHAR
STARTCHAR Ncaron
ENCODING 327
SWIDTH 741 0
DWIDTH 19 0
BBX 17 23 3 0
BITMAP
063800
037000
036000
01C000
000000
1C0180
1E0180
1E0380
1E0300
1F0300
3B0300
338300
318700
31C600
31C600
70C600
60E600
606E00
607C00
603C00
E03C00
C03C00
C01C00
ENDCHAR
STARTCHAR ncaron
ENCODING 328
SWIDTH 620 0
DWIDTH 16 0
BBX 13 18 2 0
BITMAP
0C70
06E0
06C0
0380
0000
1870
39F8
3BB8
3738
3E38
3C38
7830
7030
7070
6070
6060
E060
E060
ENDCHAR
STARTCHAR napostrophe
ENCODING 329
SWIDTH 826 0
DWIDTH 21 0
BBX 16 18 4 0
BITMAP
7000
7000
7000
6000
6000
C30E
073F
0777
06E7
07C7
0787
0F06
0E06
0E0E
0C0E
0C0C
1C0C
1C0C
ENDCHAR
STARTCHAR Eng
ENCODING 330
SWIDTH 741 0
DWIDTH 19 0
BBX 17 23 3 -5
BITMAP
1C0180
1E0180
1E0380
1E0300
1F0300
3B0300
338300
318700
31C600
31C600
70C600
60E600
606E00
607C00
603C00
E03C00
C03C00
C01C00
001800
003800
047000
07E000
07C000
ENDCHAR
STARTCHAR eng
ENCODING 331
SWIDTH 620 0
DWIDTH 16 0
BBX 13 18 2 -5
BITMAP
1870
39F8
3BB8
3738
3E38
3C38
7830
7070
7060
6060
60E0
E0E0
E0E0
00C0
01C0
2380
3F00
3E00
ENDCHAR
STARTCHAR Omacron
ENCODING 332
SWIDTH 777 0
DWIDTH 19 0
BBX 18 21 3 0
BITMAP
03F800
03F800
000000
00FC00
03FF00
0F0700
1C0380
380180
3801C0
7001C0
6001C0
E00180
E00380
E00380
E00300
E00700
E00E00
701C00
787800
3FF000
0FC000
ENDCHAR
STARTCHAR omacron
ENCODING 333
SWIDTH 566 0
DWIDTH 14 0
BBX 12 16 2 0
BITMAP
1FC0
1FC0
0000
07C0
0FE0
1C70
3030
7030
6030
E030
E070
E060
E0E0
E1C0
7F80
3E00
ENDCHAR
STARTCHAR Obreve
ENCODING 334
SWIDTH 777 0
DWIDTH 19 0
BBX 18 23 3 0
BITMAP
030C00
030800
01F800
01E000
000000
00FC00
03FF00
0F0700
1C0380
380180
3801C0
7001C0
6001C0
E00180
E00380
E00380
E00300
E00700
E00E00
701C00
787800
3FF000
0FC000
ENDCHAR
STARTCHAR obreve
ENCODING 335
SWIDTH 566 0
DWIDTH 14 0
BBX 12 18 2 0
BITMAP
1860
1840
0FC0
0F00
0000
07C0
0FE0
1C70
3030
7030
6030
E030
E070
E060
E0E0
E1C0
7F80
3E00
ENDCHAR
STARTCHAR Ohungarumlaut
ENCODING 336
SWIDTH 777 0
DWIDTH 19 0
BBX 18 23 3 0
BITMAP
006C00
00D800
01B000
036000
000000
00FC00
03FF00
0F0700
1C0380
380180
3801C0
7001C0
6001C0
E00180
E00380
E00380
E00300
E00700
E00E00
701C00
787800
3FF000
0FC000
ENDCHAR
STARTCHAR ohungarumlaut
ENCODING 337
SWIDTH 566 0
DWIDTH 14 0
BBX 12 18 2 0
BITMAP
01B0
0360
06C0
0D80
0000
07C0
0FE0
1C70
3030
7030
6030
E030
E070
E060
E0E0
E1C0
7F80
3E00
ENDCHAR
STARTCHAR OE
ENCODING 338
SWIDTH 1005 0
DWIDTH 25 0
BBX 25 18 3 0
BITMAP
00FDFF80
03FFFF80
0F078000
1C038000
38038000
38030000
70070000
60070000
E007FC00
E007FC00
E0060000
E00E0000
E00E0000
E00E0000
701C0000
783C0000
3FFFFC00
0FDFFC00
ENDCHAR
STARTCHAR oe
ENCODING 339
SWIDTH 899 0
DWIDTH 22 0
BBX 20 13 2 0
BITMAP
07C3E0
0FE7F0
1C7C70
307870
703860
6030E0
E07F80
E07E00
E07000
E0F010
E1F070
7FBFE0
3E1F80
ENDCHAR
STARTCHAR Racute
ENCODING 340
SWIDTH 632 0
DWIDTH 16 0
BBX 14 23 2 0
BITMAP
0070
00C0
0180
0300
0000
0FF0
1FFC
1C1C
1C1C
181C
181C
3838
3870
3FE0
3F80
31C0
71C0
70E0
60E0
6070
6070
E038
E038
ENDCHAR
STARTCHAR racute
ENCODING 341
SWIDTH 478 0
DWIDTH 12 0
BBX 11 18 3 0
BITMAP
01C0
0300
0600
0C00
0000
38E0
39E0
3300
3600
3C00
7C00
7800
7000
6000
6000
E000
E000
E000
ENDCHAR
STARTCHAR Rcommaaccent
ENCODING 342
SWIDTH 632 0
DWIDTH 16 0
BBX 14 27 2 -9
BITMAP
0FF0
1FFC
1C1C
1C1C
181C
181C
3838
3870
3FE0
3F80
31C0
71C0
70E0
60E0
6070
6070
E038
E038
0000
0700
0700
0700
0200
0200
0600
0600
0C00
ENDCHAR
STARTCHAR rcommaaccent
ENCODING 343
SWIDTH 478 0
DWIDTH 12 0
BBX 11 22 3 -9
BITMAP
38E0
39E0
3300
3600
3C00
7C00
7800
7000
6000
6000
E000
E000
E000
0000
3800
3800
3800
1000
1000
3000
3000
6000
ENDCHAR
STARTCHAR Rcaron
ENCODING 344
SWIDTH 632 0
DWIDTH 16 0
BBX 14 23 2 0
BITMAP
0C70
06E0
06C0
0380
0000
0FF0
1FFC
1C1C
1C1C
181C
181C
3838
3870
3FE0
3F80
31C0
71C0
70E0
60E0
6070
6070
E038
E038
ENDCHAR
STARTCHAR rcaron
ENCODING 345
SWIDTH 478 0
DWIDTH 12 0
BBX 11 18 3 0
BITMAP
31C0
1B80
1B00
0E00
0000
38E0
39E0
3300
3600
3C00
7C00
7800
7000
6000
6000
E000
E000
E000
ENDCHAR
STARTCHAR Sacute
ENCODING 346
SWIDTH 553 0
DWIDTH 14 0
BBX 14 23 2 0
BITMAP
0070
00C0
0180
0300
0000
03F8
07FC
0E0C
1C00
1C00
1C00
1E00
0F00
0780
03C0
01E0
0070
0070
0070
0070
C0E0
FFC0
7F00
ENDCHAR
STARTCHAR sacute
ENCODING 347
SWIDTH 489 0
DWIDTH 12 0
BBX 11 18 2 0
BITMAP
01C0
0300
0600
0C00
0000
07C0
1FE0
1860
3800
1C00
1E00
0F00
0780
0380
0180
C380
FF80
7E00
ENDCHAR
STARTCHAR Scircumflex
ENCODING 348
SWIDTH 553 0
DWIDTH 14 0
BBX 14 23 2 0
BITMAP
01E0
03E0
0760
0E30
0000
03F8
07FC
0E0C
1C00
1C00
1C00
1E00
0F00
0780
03C0
01E0
0070
0070
0070
0070
C0E0
FFC0
7F00
ENDCHAR
STARTCHAR scircumflex
ENCODING 349
SWIDTH 489 0
DWIDTH 12 0
BBX 11 18 2 0
BITMAP
0780
0F80
1D80
38C0
0000
07C0
1FE0
1860
3800
1C00
1E00
0F00
0780
0380
0180
C380
FF80
7E00
ENDCHAR
STARTCHAR Scedilla
ENCODING 350
SWIDTH 553 0
DWIDTH 14 0
BBX 14 23 2 -5
BITMAP
03F8
07FC
0E0C
1C00
1C00
1C00
1E00
0F00
0780
03C0
01E0
0070
0070
0070
0070
C0E0
FFC0
7F00
0200
0600
0300
0300
0E00
ENDCHAR
STARTCHAR scedilla
ENCODING 351
SWIDTH 489 0
DWIDTH 12 0
BBX 11 18 2 -5
BITMAP
07C0
1FE0
1860
3800
1C00
1E00
0F00
0780
0380
0180
C380
FF80
7E00
0400
0C00
0600
0600
1C00
ENDCHAR
STARTCHAR Scaron
ENCODING 352
SWIDTH 553 0
DWIDTH 14 0
BBX 14 23 2 0
BITMAP
031C
01B8
01B0
00E0
0000
03F8
07FC
0E0C
1C00
1C00
1C00
1E00
0F00
0780
03C0
01E0
0070
0070
0070
0070
C0E0
FFC0
7F00
ENDCHAR
STARTCHAR scaron
ENCODING 353
SWIDTH 489 0
DWIDTH 12 0
BBX 13 18 2 0
BITMAP
0638
0370
0360
01C0
0000
07C0
1FE0
1860
3800
1C00
1E00
0F00
0780
0380
0180
C380
FF80
7E00
ENDCHAR
STARTCHAR Tcommaaccent
ENCODING 354
SWIDTH 623 0
DWIDTH 16 0
BBX 16 23 3 -5
BITMAP
FFFF
FFFF
0380
0380
0380
0300
0300
0700
0700
0700
0600
0600
0E00
0E00
0E00
0C00
0C00
1C00
0200
0600
0300
0300
0E00
ENDCHAR
STARTCHAR tcommaaccent
ENCODING 355
SWIDTH 383 0
DWIDTH 10 0
BBX 8 21 3 -5
BITMAP
18
18
18
FF
FF
30
30
30
70
70
60
60
E0
60
7C
38
10
30
18
18
70
ENDCHAR
STARTCHAR Tcaron
ENCODING 356
SWIDTH 623 0
DWIDTH 16 0
BBX 16 23 3 0
BITMAP
0C70
06E0
06C0
0380
0000
FFFF
FFFF
0380
0380
0380
0300
0300
0700
0700
0700
0600
0600
0E00
0E00
0E00
0C00
0C00
1C00
ENDCHAR
STARTCHAR tcaron
ENCODING 357
SWIDTH 581 0
DWIDTH 15 0
BBX 15 18 3 0
BITMAP
000E
000E
180E
180C
180C
FF18
FF00
3000
3000
3000
7000
7000
6000
6000
E000
6000
7C00
3800
ENDCHAR
STARTCHAR Tbar
ENCODING 358
SWIDTH 623 0
DWIDTH 16 0
BBX 16 18 3 0
BITMAP
FFFF
FFFF
0380
0380
0380
0300
0300
0700
07E0
07E0
0600
0600
0E00
0E00
0E00
0C00
0C00
1C00
ENDCHAR
STARTCHAR tbar
ENCODING 359
SWIDTH 383 0
DWIDTH 10 0
BBX 8 16 3 0
BITMAP
18
18
18
FF
FF
30
30
30
7E
7E
60
60
E0
60
7C
38
ENDCHAR
STARTCHAR Utilde
ENCODING 360
SWIDTH 693 0
DWIDTH 17 0
BBX 15 21 3 0
BITMAP
07B0
0DE0
0000
3806
380E
380E
300C
300C
700C
701C
701C
6018
6018
E018
E038
E030
E030
E070
F0E0
7FC0
3F80
ENDCHAR
STARTCHAR utilde
ENCODING 361
SWIDTH 620 0
DWIDTH 16 0
BBX 13 16 3 0
BITMAP
0F60
1BC0
0000
3018
3038
3030
3030
6070
6070
60F0
61E0
E3E0
C760
EEE0
FCE0
70C0
ENDCHAR
STARTCHAR Umacron
ENCODING 362
SWIDTH 693 0
DWIDTH 17 0
BBX 15 21 3 0
BITMAP
0FE0
0FE0
0000
3806
380E
380E
300C
300C
700C
701C
701C
6018
6018
E018
E038
E030
E030
E070
F0E0
7FC0
3F80
ENDCHAR
STARTCHAR umacron
ENCODING 363
SWIDTH 620 0
DWIDTH 16 0
BBX 13 16 3 0
BITMAP
0FE0
0FE0
0000
3018
3038
3030
3030
6070
6070
60F0
61E0
E3E0
C760
EEE0
FCE0
70C0
ENDCHAR
STARTCHAR Ubreve
ENCODING 364
SWIDTH 693 0
DWIDTH 17 0
BBX 15 23 3 0
BITMAP
0C30
0C20
07E0
0780
0000
3806
380E
380E
300C
300C
700C
701C
701C
6018
6018
E018
E038
E030
E030
E070
F0E0
7FC0
3F80
ENDCHAR
STARTCHAR ubreve
ENCODING 365
SWIDTH 620 0
DWIDTH 16 0
BBX 13 18 3 0
BITMAP
1860
1840
0FC0
0F00
0000
3018
3038
3030
3030
6070
6070
60F0
61E0
E3E0
C760
EEE0
FCE0
70C0
ENDCHAR
STARTCHAR Uring
ENCODING 366
SWIDTH 693 0
DWIDTH 17 0
BBX 15 23 3 0
BITMAP
0180
0240
0240
0180
0000
3806
380E
380E
300C
300C
700C
701C
701C
6018
6018
E018
E038
E030
E030
E070
F0E0
7FC0
3F80
ENDCHAR
STARTCHAR uring
ENCODING 367
SWIDTH 620 0
DWIDTH 16 0
BBX 13 18 3 0
BITMAP
0300
0480
0480
0300
0000
3018
3038
3030
3030
6070
6070
60F0
61E0
E3E0
C760
EEE0
FCE0
70C0
ENDCHAR
STARTCHAR Uhungarumlaut
ENCODING 368
SWIDTH 693 0
DWIDTH 17 0
BBX 15 23 3 0
BITMAP
00D8
01B0
0360
06C0
0000
3806
380E
380E
300C
300C
700C
701C
701C
6018
6018
E018
E038
E030
E030
E070
F0E0
7FC0
3F80
ENDCHAR
STARTCHAR uhungarumlaut
ENCODING 369
SWIDTH 620 0
DWIDTH 16 0
BBX 13 18 3 0
BITMAP
01B0
0360
06C0
0D80
0000
3018
3038
3030
3030
6070
6070
60F0
61E0
E3E0
C760
EEE0
FCE0
70C0
ENDCHAR
STARTCHAR Uogonek
ENCODING 370
SWIDTH 693 0
DWIDTH 17 0
BBX 15 22 3 -4
BITMAP
3806
380E
380E
300C
300C
700C
701C
701C
6018
6018
E018
E038
E030
E030
E070
F0E0
7FC0
3F80
0300
0600
0600
0380
ENDCHAR
STARTCHAR uogonek
ENCODING 371
SWIDTH 620 0
DWIDTH 16 0
BBX 13 17 3 -4
BITMAP
3018
3038
3030
3030
6070
6070
60F0
61E0
E3E0
C760
EEE0
FCE0
70C0
0600
0C00
0C00
0700
ENDCHAR
STARTCHAR Wcircumflex
ENCODING 372
SWIDTH 886 0
DWIDTH 22 0
BBX 21 23 4 0
BITMAP
007800
00F800
01D800
038C00
000000
C07018
C07030
E0F030
E0F060
E0F060
E1B0E0
E1B0C0
E331C0
E33180
E63380
663300
6C3700
6C3600
7C3E00
783C00
783C00
703800
703800
ENDCHAR
STARTCHAR wcircumflex
ENCODING 373
SWIDTH 795 0
DWIDTH 20 0
BBX 18 18 3 0
BITMAP
00F000
01F000
03B000
071800
000000
C0C0C0
C1C180
C1C180
E3C300
E3C300
666600
666E00
6C6C00
6C7C00
787800
787800
707000
707000
ENDCHAR
STARTCHAR Ycircumflex
ENCODING 374
SWIDTH 608 0
DWIDTH 15 0
BBX 15 23 4 0
BITMAP
03C0
07C0
0EC0
1C60
0000
E00E
601C
7038
3030
3860
38C0
1DC0
1F80
0F00
0E00
0E00
0E00
0C00
0C00
1C00
1C00
1C00
1800
ENDCHAR
STARTCHAR ycircumflex
ENCODING 375
SWIDTH 548 0
DWIDTH 14 0
BBX 14 23 2 -5
BITMAP
03C0
07C0
0EC0
1C60
0000
601C
7018
7030
7070
3060
30C0
31C0
3980
3B80
3B00
1E00
1E00
1C00
1800
3800
3000
6000
E000
ENDCHAR
STARTCHAR Ydieresis
ENCODING 376
SWIDTH 608 0
DWIDTH 15 0
BBX 15 21 4 0
BITMAP
0C60
0C60
0000
E00E
601C
7038
3030
3860
38C0
1DC0
1F80
0F00
0E00
0E00
0E00
0C00
0C00
1C00
1C00
1C00
1800
ENDCHAR
STARTCHAR Zacute
ENCODING 377
SWIDTH 578 0
DWIDTH 14 0
BBX 16 23 1 0
BITMAP
001C
0030
0060
00C0
0000
0FFF
0FFF
000E
001C
0038
0078
0070
00E0
01C0
0380
0700
0E00
1E00
3C00
3800
7000
FFF8
FFF8
ENDCHAR
STARTCHAR zacute
ENCODING 378
SWIDTH 536 0
DWIDTH 13 0
BBX 13 18 1 0
BITMAP
0070
00C0
0180
0300
0000
1FF8
1FF8
0070
00E0
01C0
0380
0700
0E00
1C00
3800
7000
FFE0
FFE0
ENDCHAR
STARTCHAR Zdotaccent
ENCODING 379
SWIDTH 578 0
DWIDTH 14 0
BBX 16 21 1 0
BITMAP
00E0
00E0
0000
0FFF
0FFF
000E
001C
0038
0078
0070
00E0
01C0
0380
0700
0E00
1E00
3C00
3800
7000
FFF8
FFF8
ENDCHAR
STARTCHAR zdotaccent
ENCODING 380
SWIDTH 536 0
DWIDTH 13 0
BBX 13 16 1 0
BITMAP
0380
0380
0000
1FF8
1FF8
0070
00E0
01C0
0380
0700
0E00
1C00
3800
7000
FFE0
FFE0
ENDCHAR
STARTCHAR Zcaron
ENCODING 381
SWIDTH 578 0
DWIDTH 14 0
BBX 16 23 1 0
BITMAP
018E
00DC
00D8
0070
0000
0FFF
0FFF
000E
001C
0038
0078
0070
00E0
01C0
0380
0700
0E00
1E00
3C00
3800
7000
FFF8
FFF8
ENDCHAR
STARTCHAR zcaron
ENCODING 382
SWIDTH 536 0
DWIDTH 13 0
BBX 14 18 1 0
BITMAP
031C
01B8
01B0
00E0
0000
1FF8
1FF8
0070
00E0
01C0
0380
0700
0E00
1C00
3800
7000
FFE0
FFE0
ENDCHAR
STARTCHAR uni0186
ENCODING 390
SWIDTH 679 0
DWIDTH 17 0
BBX 17 18 2 0
BITMAP
03F800
1FFE00
180F00
000700
000380
000380
000380
000380
000380
000380
000700
000700
000E00
001E00
003C00
C07800
FFE000
7F8000
ENDCHAR
STARTCHAR uni0189
ENCODING 393
SWIDTH 743 0
DWIDTH 19 0
BBX 18 18 1 0
BITMAP
0FFE00
0FFF00
0E0F80
0C03C0
0C01C0
0C01C0
1C01C0
1C01C0
FFC1C0
FF81C0
180180
380380
380300
300700
300E00
303C00
7FF800
7FE000
ENDCHAR
STARTCHAR uni018E
ENCODING 398
SWIDTH 547 0
DWIDTH 14 0
BBX 14 18 2 0
BITMAP
1FFC
1FFC
0018
0018
0038
0038
0038
0030
1FF0
1FF0
0070
0070
0060
0060
00E0
00E0
FFE0
FFC0
ENDCHAR
STARTCHAR florin
ENCODING 402
SWIDTH 633 0
DWIDTH 16 0
BBX 12 22 5 -4
BITMAP
01F0
07F0
0600
0C00
0C00
1C00
1C00
1800
FF00
FE00
3800
3800
3000
3000
3000
7000
7000
6000
6000
6000
E000
E000
ENDCHAR
STARTCHAR uni0197
ENCODING 407
SWIDTH 289 0
DWIDTH 7 0
BBX 6 18 2 0
BITMAP
1C
1C
1C
18
18
38
38
38
FC
FC
70
70
70
60
60
E0
E0
E0
ENDCHAR
STARTCHAR uni019A
ENCODING 410
SWIDTH 289 0
DWIDTH 7 0
BBX 6 18 3 0
BITMAP
0C
1C
1C
18
18
18
38
38
FC
FC
30
70
70
60
60
60
E0
E0
ENDCHAR
STARTCHAR uni019D
ENCODING 413
SWIDTH 741 0
DWIDTH 19 0
BBX 23 23 -3 -5
BITMAP
007006
007806
00780E
00780C
007C0C
00EC0C
00CE0C
00C61C
00C718
00C718
01C318
018398
01C1B8
0181F0
0180F0
0380F0
0380F0
038070
030000
070000
8E0000
FC0000
F80000
ENDCHAR
STARTCHAR uni019F
ENCODING 415
SWIDTH 777 0
DWIDTH 19 0
BBX 18 18 3 0
BITMAP
00FC00
03FF00
0F0700
1C0380
380180
3801C0
7001C0
6001C0
FFFFC0
FFFFC0
E00380
E00300
E00700
E00E00
701C00
787800
3FF000
0FC000
ENDCHAR
STARTCHAR Ohorn
ENCODING 416
SWIDTH 777 0
DWIDTH 19 0
BBX 20 18 3 0
BITMAP
00FC70
03FF70
0F0770
1C03E0
3801E0
3801C0
7001C0
6001C0
E00180
E00380
E00380
E00300
E00700
E00E00
701C00
787800
3FF000
0FC000
ENDCHAR
STARTCHAR ohorn
ENCODING 417
SWIDTH 566 0
DWIDTH 14 0
BBX 15 13 2 0
BITMAP
07CE
0FEE
1C7E
303C
703C
6038
E030
E070
E060
E0E0
E1C0
7F80
3E00
ENDCHAR
STARTCHAR Uhorn
ENCODING 431
SWIDTH 693 0
DWIDTH 17 0
BBX 18 18 3 0
BITMAP
3807C0
380FC0
380FC0
300D80
300D80
700F00
701C00
701C00
601800
601800
E01800
E03800
E03000
E03000
E07000
F0E000
7FC000
3F8000
ENDCHAR
STARTCHAR uhorn
ENCODING 432
SWIDTH 620 0
DWIDTH 16 0
BBX 16 13 3 0
BITMAP
301F
303F
3037
3036
6076
607C
60F0
61E0
E3E0
C760
EEE0
FCE0
70C0
ENDCHAR
STARTCHAR uni01B5
ENCODING 437
SWIDTH 578 0
DWIDTH 14 0
BBX 16 18 1 0
BITMAP
0FFF
0FFF
000E
001C
0038
0078
0070
00E0
07E0
07E0
0700
0E00
1E00
3C00
3800
7000
FFF8
FFF8
ENDCHAR
STARTCHAR uni01B6
ENCODING 438
SWIDTH 536 0
DWIDTH 13 0
BBX 13 13 1 0
BITMAP
1FF8
1FF8
0070
00E0
01C0
0FC0
0FC0
0E00
1C00
3800
7000
FFE0
FFE0
ENDCHAR
STARTCHAR uni01BB
ENCODING 443
SWIDTH 633 0
DWIDTH 16 0
BBX 14 18 2 0
BITMAP
07F0
0FF8
183C
001C
001C
001C
0018
0038
FFFC
FFFC
0380
0700
0C00
3800
7000
7000
FFE0
FFE0
ENDCHAR
STARTCHAR uni01BC
ENCODING 444
SWIDTH 633 0
DWIDTH 16 0
BBX 13 18 3 0
BITMAP
0FF8
1FF8
1800
1800
1800
1000
3F00
3FC0
01E0
00E0
0060
0060
0060
00E0
00C0
C3C0
FF80
FE00
ENDCHAR
STARTCHAR uni01C0
ENCODING 448
SWIDTH 233 0
DWIDTH 6 0
BBX 6 22 1 -4
BITMAP
0C
0C
0C
08
18
18
18
18
10
30
30
30
30
20
60
60
60
60
40
C0
C0
C0
ENDCHAR
STARTCHAR uni01C2
ENCODING 450
SWIDTH 633 0
DWIDTH 16 0
BBX 16 22 1 -4
BITMAP
0060
0060
0060
0040
00C0
00C0
00C0
00C0
7FFF
7FFF
0180
0180
FFFE
FFFE
0300
0300
0300
0300
0200
0600
0600
0600
ENDCHAR
STARTCHAR uni01C3
ENCODING 451
SWIDTH 193 0
DWIDTH 8 0
BBX 6 18 3 0
BITMAP
1C
1C
1C
18
18
18
38
30
30
30
30
20
60
00
00
00
E0
E0
ENDCHAR
STARTCHAR uni01CD
ENCODING 461
SWIDTH 687 0
DWIDTH 17 0
BBX 16 23 1 0
BITMAP
031C
01B8
01B0
00E0
0000
0038
0078
0078
00F8
01D8
019C
039C
030C
070C
060C
0C0E
0FFE
1FFE
3806
3006
7007
6007
E007
ENDCHAR
STARTCHAR uni01CE
ENCODING 462
SWIDTH 608 0
DWIDTH 15 0
BBX 13 18 2 0
BITMAP
0C70
06E0
06C0
0380
0000
03F8
07F8
1E38
3830
3030
7070
60F0
E1F0
E1E0
E360
E760
FCE0
78E0
ENDCHAR
STARTCHAR uni01CF
ENCODING 463
SWIDTH 289 0
DWIDTH 7 0
BBX 8 23 2 0
BITMAP
C7
6E
6C
38
00
1C
1C
1C
18
18
38
38
38
30
30
70
70
70
60
60
E0
E0
E0
ENDCHAR
STARTCHAR uni01D0
ENCODING 464
SWIDTH 289 0
DWIDTH 7 0
BBX 8 18 2 0
BITMAP
C7
6E
6C
38
00
18
38
38
30
30
30
70
70
60
60
60
E0
E0
ENDCHAR
STARTCHAR uni01D1
ENCODING 465
SWIDTH 777 0
DWIDTH 19 0
BBX 18 23 3 0
BITMAP
031C00
01B800
01B000
00E000
000000
00FC00
03FF00
0F0700
1C0380
380180
3801C0
7001C0
6001C0
E00180
E00380
E00380
E00300
E00700
E00E00
701C00
787800
3FF000
0FC000
ENDCHAR
STARTCHAR uni01D2
ENCODING 466
SWIDTH 566 0
DWIDTH 14 0
BBX 12 18 2 0
BITMAP
18E0
0DC0
0D80
0700
0000
07C0
0FE0
1C70
3030
7030
6030
E030
E070
E060
E0E0
E1C0
7F80
3E00
ENDCHAR
STARTCHAR uni01D3
ENCODING 467
SWIDTH 693 0
DWIDTH 17 0
BBX 15 23 3 0
BITMAP
0C70
06E0
06C0
0380
0000
3806
380E
380E
300C
300C
700C
701C
701C
6018
6018
E018
E038
E030
E030
E070
F0E0
7FC0
3F80
ENDCHAR
STARTCHAR uni01D4
ENCODING 468
SWIDTH 620 0
DWIDTH 16 0
BBX 13 18 3 0
BITMAP
18E0
0DC0
0D80
0700
0000
3018
3038
3030
3030
6070
6070
60F0
61E0
E3E0
C760
EEE0
FCE0
70C0
ENDCHAR
STARTCHAR uni01D5
ENCODING 469
SWIDTH 693 0
DWIDTH 17 0
BBX 15 24 3 0
BITMAP
07F0
07F0
0000
0630
0630
0000
3806
380E
380E
300C
300C
700C
701C
701C
6018
6018
E018
E038
E030
E030
E070
F0E0
7FC0
3F80
ENDCHAR
STARTCHAR uni01D6
ENCODING 470
SWIDTH 620 0
DWIDTH 16 0
BBX 13 19 3 0
BITMAP
0FE0
0FE0
0000
0630
0630
0000
3018
3038
3030
3030
6070
6070
60F0
61E0
E3E0
C760
EEE0
FCE0
70C0
ENDCHAR
STARTCHAR uni01D7
ENCODING 471
SWIDTH 693 0
DWIDTH 17 0
BBX 15 26 3 0
BITMAP
0070
00C0
0180
0300
0000
0630
0630
0000
3806
380E
380E
300C
300C
700C
701C
701C
6018
6018
E018
E038
E030
E030
E070
F0E0
7FC0
3F80
ENDCHAR
STARTCHAR uni01D8
ENCODING 472
SWIDTH 620 0
DWIDTH 16 0
BBX 13 21 3 0
BITMAP
0070
00C0
0180
0300
0000
0630
0630
0000
3018
3038
3030
3030
6070
6070
60F0
61E0
E3E0
C760
EEE0
FCE0
70C0
ENDCHAR
STARTCHAR uni01D9
ENCODING 473
SWIDTH 693 0
DWIDTH 17 0
BBX 15 26 3 0
BITMAP
0C70
06E0
06C0
0380
0000
0630
0630
0000
3806
380E
380E
300C
300C
700C
701C
701C
6018
6018
E018
E038
E030
E030
E070
F0E0
7FC0
3F80
ENDCHAR
STARTCHAR uni01DA
ENCODING 474
SWIDTH 620 0
DWIDTH 16 0
BBX 13 21 3 0
BITMAP
0C70
06E0
06C0
0380
0000
0630
0630
0000
3018
3038
3030
3030
6070
6070
60F0
61E0
E3E0
C760
EEE0
FCE0
70C0
ENDCHAR
STARTCHAR uni01DB
ENCODING 475
SWIDTH 693 0
DWIDTH 17 0
BBX 15 26 3 0
BITMAP
0380
0180
0180
00C0
0000
0630
0630
0000
3806
380E
380E
300C
300C
700C
701C
701C
6018
6018
E018
E038
E030
E030
E070
F0E0
7FC0
3F80
ENDCHAR
STARTCHAR uni01DC
ENCODING 476
SWIDTH 620 0
DWIDTH 16 0
BBX 13 21 3 0
BITMAP
0700
0300
0300
0180
0000
0630
0630
0000
3018
3038
3030
3030
6070
6070
60F0
61E0
E3E0
C760
EEE0
FCE0
70C0
ENDCHAR
STARTCHAR uni01DD
ENCODING 477
SWIDTH 529 0
DWIDTH 13 0
BBX 11 13 2 0
BITMAP
1F80
7FC0
60E0
80E0
0060
07E0
1FE0
30C0
60C0
E180
E300
FE00
7C00
ENDCHAR
STARTCHAR uni01DE
ENCODING 478
SWIDTH 687 0
DWIDTH 17 0
BBX 16 24 1 0
BITMAP
01FC
01FC
0000
00C6
00C6
0000
0038
0078
0078
00F8
01D8
019C
039C
030C
070C
060C
0C0E
0FFE
1FFE
3806
3006
7007
6007
E007
ENDCHAR
STARTCHAR uni01DF
ENCODING 479
SWIDTH 608 0
DWIDTH 15 0
BBX 13 19 2 0
BITMAP
07F0
07F0
0000
0318
0318
0000
03F8
07F8
1E38
3830
3030
7070
60F0
E1F0
E1E0
E360
E760
FCE0
78E0
ENDCHAR
STARTCHAR uni01E0
ENCODING 480
SWIDTH 687 0
DWIDTH 17 0
BBX 16 24 1 0
BITMAP
03F8
03F8
0000
00E0
00E0
0000
0038
0078
0078
00F8
01D8
019C
039C
030C
070C
060C
0C0E
0FFE
1FFE
3806
3006
7007
6007
E007
ENDCHAR
STARTCHAR uni01E1
ENCODING 481
SWIDTH 608 0
DWIDTH 15 0
BBX 13 19 2 0
BITMAP
0FE0
0FE0
0000
0380
0380
0000
03F8
07F8
1E38
3830
3030
7070
60F0
E1F0
E1E0
E360
E760
FCE0
78E0
ENDCHAR
STARTCHAR uni01E2
ENCODING 482
SWIDTH 893 0
DWIDTH 22 0
BBX 25 21 0 0
BITMAP
000FE000
000FE000
00000000
0003FF80
0007FF80
000F8000
001F8000
003B0000
00330000
00770000
00E7FC00
01C7FC00
01860000
03060000
07FE0000
0FFE0000
1C0E0000
180C0000
380C0000
701FFC00
E01FFC00
ENDCHAR
STARTCHAR uni01E3
ENCODING 483
SWIDTH 893 0
DWIDTH 22 0
BBX 20 16 2 0
BITMAP
00FE00
00FE00
000000
03FBE0
07FFF0
1E1E70
383830
303870
7070E0
60FF80
E0FE00
E1F000
E3F010
E73070
FE3FE0
781F80
ENDCHAR
STARTCHAR uni01E4
ENCODING 484
SWIDTH 702 0
DWIDTH 18 0
BBX 16 18 3 0
BITMAP
00FE
07FF
0F03
1C00
3800
3000
7000
6000
E000
E000
E00C
E00C
E01C
E03F
703F
7838
3FF8
0FC0
ENDCHAR
STARTCHAR uni01E5
ENCODING 485
SWIDTH 608 0
DWIDTH 15 0
BBX 14 18 1 -5
BITMAP
01FC
07FC
0F18
1C18
1818
3838
3038
7070
70F0
71B0
7330
3E70
FFFC
FFFC
0060
C0C0
FF80
7E00
ENDCHAR
STARTCHAR Gcaron
ENCODING 486
SWIDTH 702 0
DWIDTH 18 0
BBX 16 23 3 0
BITMAP
0638
0370
0360
01C0
0000
00FE
07FF
0F03
1C00
3800
3000
7000
6000
E000
E000
E00C
E00C
E01C
E01C
701C
7838
3FF8
0FC0
ENDCHAR
STARTCHAR gcaron
ENCODING 487
SWIDTH 608 0
DWIDTH 15 0
BBX 14 23 1 -5
BITMAP
0638
0370
0360
01C0
0000
01FC
07FC
0F18
1C18
1818
3838
3038
7070
70F0
71B0
7330
3E70
3C60
0060
0060
C0C0
FF80
7E00
ENDCHAR
STARTCHAR uni01E8
ENCODING 488
SWIDTH 635 0
DWIDTH 16 0
BBX 16 23 2 0
BITMAP
0C70
06E0
06C0
0380
0000
0C07
1C0C
1C18
1C30
1860
18C0
3980
3B00
3E00
3700
3300
7180
71C0
70C0
6060
6070
E030
E018
ENDCHAR
STARTCHAR uni01E9
ENCODING 489
SWIDTH 572 0
DWIDTH 14 0
BBX 13 23 2 0
BITMAP
31C0
1B80
1B00
0E00
0000
0C00
0C00
1C00
1800
1800
1838
3860
39C0
3380
3700
3E00
7E00
7700
6300
6380
61C0
E0E0
E070
ENDCHAR
STARTCHAR uni01EA
ENCODING 490
SWIDTH 777 0
DWIDTH 19 0
BBX 18 22 3 -4
BITMAP
00FC00
03FF00
0F0700
1C0380
380180
3801C0
7001C0
6001C0
E00180
E00380
E00380
E00300
E00700
E00E00
701C00
787800
3FF000
0FC000
018000
030000
030000
01C000
ENDCHAR
STARTCHAR uni01EB
ENCODING 491
SWIDTH 566 0
DWIDTH 14 0
BBX 12 17 2 -4
BITMAP
07C0
0FE0
1C70
3030
7030
6030
E030
E070
E060
E0E0
E1C0
7F80
3E00
0600
0C00
0C00
0700
ENDCHAR
STARTCHAR uni01EC
ENCODING 492
SWIDTH 777 0
DWIDTH 19 0
BBX 18 25 3 -4
BITMAP
03F800
03F800
000000
00FC00
03FF00
0F0700
1C0380
380180
3801C0
7001C0
6001C0
E00180
E00380
E00380
E00300
E00700
E00E00
701C00
787800
3FF000
0FC000
018000
030000
030000
01C000
ENDCHAR
STARTCHAR uni01ED
ENCODING 493
SWIDTH 566 0
DWIDTH 14 0
BBX 12 20 2 -4
BITMAP
1FC0
1FC0
0000
07C0
0FE0
1C70
3030
7030
6030
E030
E070
E060
E0E0
E1C0
7F80
3E00
0600
0C00
0C00
0700
ENDCHAR
STARTCHAR uni01F0
ENCODING 496
SWIDTH 325 0
DWIDTH 8 0
BBX 13 23 -2 -5
BITMAP
0638
0370
0360
01C0
0000
0060
00E0
00E0
00C0
00C0
00C0
01C0
01C0
0180
0180
0380
0380
0380
0300
0700
8E00
FC00
F800
ENDCHAR
STARTCHAR uni01F4
ENCODING 500
SWIDTH 702 0
DWIDTH 18 0
BBX 16 23 3 0
BITMAP
0038
0060
00C0
0180
0000
00FE
07FF
0F03
1C00
3800
3000
7000
6000
E000
E000
E00C
E00C
E01C
E01C
701C
7838
3FF8
0FC0
ENDCHAR
STARTCHAR uni01F5
ENCODING 501
SWIDTH 608 0
DWIDTH 15 0
BBX 14 23 1 -5
BITMAP
0070
00C0
0180
0300
0000
01FC
07FC
0F18
1C18
1818
3838
3038
7070
70F0
71B0
7330
3E70
3C60
0060
0060
C0C0
FF80
7E00
ENDCHAR
STARTCHAR uni01F8
ENCODING 504
SWIDTH 741 0
DWIDTH 19 0
BBX 17 23 3 0
BITMAP
038000
018000
018000
00C000
000000
1C0180
1E0180
1E0380
1E0300
1F0300
3B0300
338300
318700
31C600
31C600
70C600
60E600
606E00
607C00
603C00
E03C00
C03C00
C01C00
ENDCHAR
STARTCHAR uni01F9
ENCODING 505
SWIDTH 620 0
DWIDTH 16 0
BBX 13 18 2 0
BITMAP
0700
0300
0300
0180
0000
1870
39F8
3BB8
3738
3E38
3C38
7830
7030
7070
6070
6060
E060
E060
ENDCHAR
STARTCHAR Aringacute
ENCODING 506
SWIDTH 687 0
DWIDTH 17 0
BBX 16 28 1 0
BITMAP
000E
0018
0030
0060
0000
0018
0024
0024
0018
0000
0038
0078
0078
00F8
01D8
019C
039C
030C
070C
060C
0C0E
0FFE
1FFE
3806
3006
7007
6007
E007
ENDCHAR
STARTCHAR aringacute
ENCODING 507
SWIDTH 608 0
DWIDTH 15 0
BBX 13 23 2 0
BITMAP
0070
00C0
0180
0300
0000
00C0
0120
0120
00C0
0000
03F8
07F8
1E38
3830
3030
7070
60F0
E1F0
E1E0
E360
E760
FCE0
78E0
ENDCHAR
STARTCHAR AEacute
ENCODING 508
SWIDTH 893 0
DWIDTH 22 0
BBX 25 23 0 0
BITMAP
00007000
0000C000
00018000
00030000
00000000
0003FF80
0007FF80
000F8000
001F8000
003B0000
00330000
00770000
00E7FC00
01C7FC00
01860000
03060000
07FE0000
0FFE0000
1C0E0000
180C0000
380C0000
701FFC00
E01FFC00
ENDCHAR
STARTCHAR aeacute
ENCODING 509
SWIDTH 893 0
DWIDTH 22 0
BBX 20 18 2 0
BITMAP
000E00
001800
003000
006000
000000
03FBE0
07FFF0
1E1E70
383830
303870
7070E0
60FF80
E0FE00
E1F000
E3F010
E73070
FE3FE0
781F80
ENDCHAR
STARTCHAR Oslashacute
ENCODING 510
SWIDTH 777 0
DWIDTH 19 0
BBX 21 23 4 0
BITMAP
000700
000C00
001800
003000
000000
007E38
01FFE0
0783C0
0E01C0
1C03C0
1C06E0
380CE0
3018E0
7030C0
7061C0
70C1C0
718180
730380
760700
3C0E00
3C3C00
3FF800
E7E000
ENDCHAR
STARTCHAR oslashacute
ENCODING 511
SWIDTH 566 0
DWIDTH 14 0
BBX 15 18 3 0
BITMAP
0038
0060
00C0
0180
0000
03EE
07FC
0E38
1878
38F8
31D8
7398
7738
7E30
7C70
78E0
7FC0
FF00
ENDCHAR
STARTCHAR Scommaaccent
ENCODING 536
SWIDTH 553 0
DWIDTH 14 0
BBX 14 27 2 -9
BITMAP
03F8
07FC
0E0C
1C00
1C00
1C00
1E00
0F00
0780
03C0
01E0
0070
0070
0070
0070
C0E0
FFC0
7F00
0000
0700
0700
0700
0200
0200
0600
0600
0C00
ENDCHAR
STARTCHAR scommaaccent
ENCODING 537
SWIDTH 489 0
DWIDTH 12 0
BBX 11 22 2 -9
BITMAP
07C0
1FE0
1860
3800
1C00
1E00
0F00
0780
0380
0180
C380
FF80
7E00
0000
0E00
0E00
0E00
0400
0400
0C00
0C00
1800
ENDCHAR
STARTCHAR Tcommaaccent
ENCODING 538
SWIDTH 623 0
DWIDTH 16 0
BBX 16 27 3 -9
BITMAP
FFFF
FFFF
0380
0380
0380
0300
0300
0700
0700
0700
0600
0600
0E00
0E00
0E00
0C00
0C00
1C00
0000
0700
0700
0700
0200
0200
0600
0600
0C00
ENDCHAR
STARTCHAR tcommaaccent
ENCODING 539
SWIDTH 383 0
DWIDTH 10 0
BBX 8 25 3 -9
BITMAP
18
18
18
FF
FF
30
30
30
70
70
60
60
E0
60
7C
38
00
38
38
38
10
10
30
30
60
ENDCHAR
STARTCHAR uni021E
ENCODING 542
SWIDTH 735 0
DWIDTH 18 0
BBX 17 23 2 0
BITMAP
031C00
01B800
01B000
00E000
000000
1C0380
1C0380
1C0380
180300
180300
380700
380700
380700
3FFE00
3FFE00
700600
700E00
700E00
600C00
600C00
E01C00
E01C00
E01C00
ENDCHAR
STARTCHAR uni021F
ENCODING 543
SWIDTH 620 0
DWIDTH 16 0
BBX 13 23 2 0
BITMAP
31C0
1B80
1B00
0E00
0000
0C00
0C00
1C00
1C00
1800
1870
39F8
3BB8
3738
3E38
3C38
7830
7030
7070
6070
6060
E060
E060
ENDCHAR
STARTCHAR uni0226
ENCODING 550
SWIDTH 687 0
DWIDTH 17 0
BBX 16 21 1 0
BITMAP
00E0
00E0
0000
0038
0078
0078
00F8
01D8
019C
039C
030C
070C
060C
0C0E
0FFE
1FFE
3806
3006
7007
6007
E007
ENDCHAR
STARTCHAR uni0227
ENCODING 551
SWIDTH 608 0
DWIDTH 15 0
BBX 13 16 2 0
BITMAP
0380
0380
0000
03F8
07F8
1E38
3830
3030
7070
60F0
E1F0
E1E0
E360
E760
FCE0
78E0
ENDCHAR
STARTCHAR uni0228
ENCODING 552
SWIDTH 547 0
DWIDTH 14 0
BBX 14 23 2 -5
BITMAP
0FFC
1FFC
1C00
1C00
1800
1800
3800
3800
3FE0
3FE0
3000
7000
7000
7000
6000
6000
FFE0
FFE0
0400
0C00
0600
0600
1C00
ENDCHAR
STARTCHAR uni0229
ENCODING 553
SWIDTH 529 0
DWIDTH 13 0
BBX 11 18 2 -5
BITMAP
07C0
0FE0
18E0
30E0
60C0
6180
FF00
FC00
C000
E020
E0C0
7FC0
3F00
0400
0C00
0600
0600
1C00
ENDCHAR
STARTCHAR uni022A
ENCODING 554
SWIDTH 777 0
DWIDTH 19 0
BBX 18 24 3 0
BITMAP
01FC00
01FC00
000000
018C00
018C00
000000
00FC00
03FF00
0F0700
1C0380
380180
3801C0
7001C0
6001C0
E00180
E00380
E00380
E00300
E00700
E00E00
701C00
787800
3FF000
0FC000
ENDCHAR
STARTCHAR uni022B
ENCODING 555
SWIDTH 566 0
DWIDTH 14 0
BBX 12 19 2 0
BITMAP
0FE0
0FE0
0000
0630
0630
0000
07C0
0FE0
1C70
3030
7030
6030
E030
E070
E060
E0E0
E1C0
7F80
3E00
ENDCHAR
STARTCHAR uni022C
ENCODING 556
SWIDTH 777 0
DWIDTH 19 0
BBX 18 24 3 0
BITMAP
01FC00
01FC00
000000
00F600
01BC00
000000
00FC00
03FF00
0F0700
1C0380
380180
3801C0
7001C0
6001C0
E00180
E00380
E00380
E00300
E00700
E00E00
701C00
787800
3FF000
0FC000
ENDCHAR
STARTCHAR uni022D
ENCODING 557
SWIDTH 566 0
DWIDTH 14 0
BBX 13 19 2 0
BITMAP
0FE0
0FE0
0000
03D8
06F0
0000
07C0
0FE0
1C70
3030
7030
6030
E030
E070
E060
E0E0
E1C0
7F80
3E00
ENDCHAR
STARTCHAR uni022E
ENCODING 558
SWIDTH 777 0
DWIDTH 19 0
BBX 18 21 3 0
BITMAP
00E000
00E000
000000
00FC00
03FF00
0F0700
1C0380
380180
3801C0
7001C0
6001C0
E00180
E00380
E00380
E00300
E00700
E00E00
701C00
787800
3FF000
0FC000
ENDCHAR
STARTCHAR uni022F
ENCODING 559
SWIDTH 566 0
DWIDTH 14 0
BBX 12 16 2 0
BITMAP
0700
0700
0000
07C0
0FE0
1C70
3030
7030
6030
E030
E070
E060
E0E0
E1C0
7F80
3E00
ENDCHAR
STARTCHAR uni0230
ENCODING 560
SWIDTH 777 0
DWIDTH 19 0
BBX 18 24 3 0
BITMAP
03F800
03F800
000000
00E000
00E000
000000
00FC00
03FF00
0F0700
1C0380
380180
3801C0
7001C0
6001C0
E00180
E00380
E00380
E00300
E00700
E00E00
701C00
787800
3FF000
0FC000
ENDCHAR
STARTCHAR uni0231
ENCODING 561
SWIDTH 566 0
DWIDTH 14 0
BBX 12 19 2 0
BITMAP
1FC0
1FC0
0000
0700
0700
0000
07C0
0FE0
1C70
3030
7030
6030
E030
E070
E060
E0E0
E1C0
7F80
3E00
ENDCHAR
STARTCHAR uni0232
ENCODING 562
SWIDTH 608 0
DWIDTH 15 0
BBX 15 21 4 0
BITMAP
0FE0
0FE0
0000
E00E
601C
7038
3030
3860
38C0
1DC0
1F80
0F00
0E00
0E00
0E00
0C00
0C00
1C00
1C00
1C00
1800
ENDCHAR
STARTCHAR uni0233
ENCODING 563
SWIDTH 548 0
DWIDTH 14 0
BBX 14 21 2 -5
BITMAP
1FC0
1FC0
0000
601C
7018
7030
7070
3060
30C0
31C0
3980
3B80
3B00
1E00
1E00
1C00
1800
3800
3000
6000
E000
ENDCHAR
STARTCHAR uni0250
ENCODING 592
SWIDTH 608 0
DWIDTH 15 0
BBX 13 13 2 0
BITMAP
38F0
39F8
3738
3638
3C38
7C38
7830
7070
6060
60E0
E3C0
FF00
FE00
ENDCHAR
STARTCHAR uni0259
ENCODING 601
SWIDTH 529 0
DWIDTH 13 0
BBX 11 13 2 0
BITMAP
1F80
7FC0
60E0
80E0
0060
07E0
1FE0
30C0
60C0
E180
E300
FE00
7C00
ENDCHAR
STARTCHAR uni025F
ENCODING 607
SWIDTH 383 0
DWIDTH 10 0
BBX 12 25 2 -12
BITMAP
0070
0070
0070
0060
0060
00E0
00E0
00E0
00C0
00C0
00C0
01C0
01C0
0180
0180
0180
1FE0
1FE0
0300
0300
0700
0600
0E00
FC00
F800
ENDCHAR
STARTCHAR uni0265
ENCODING 613
SWIDTH 620 0
DWIDTH 16 0
BBX 13 18 2 -5
BITMAP
3038
3038
3030
7030
7070
6070
60F0
E1E0
E3E0
E760
EEE0
FCE0
70C0
00C0
01C0
01C0
0180
0180
ENDCHAR
STARTCHAR uni0275
ENCODING 629
SWIDTH 566 0
DWIDTH 14 0
BBX 12 13 2 0
BITMAP
07C0
0FE0
1C70
3030
7030
FFF0
FFF0
E070
E060
E0E0
E1C0
7F80
3E00
ENDCHAR
STARTCHAR uni0279
ENCODING 633
SWIDTH 478 0
DWIDTH 12 0
BBX 11 13 3 0
BITMAP
00E0
00E0
00E0
00C0
00C0
01C0
03C0
07C0
0780
0D80
1980
F380
E380
ENDCHAR
STARTCHAR uni0287
ENCODING 647
SWIDTH 383 0
DWIDTH 10 0
BBX 8 16 3 0
BITMAP
1C
3E
06
07
06
06
0E
0E
0C
0C
0C
FF
FF
18
18
18
ENDCHAR
STARTCHAR uni0289
ENCODING 649
SWIDTH 620 0
DWIDTH 16 0
BBX 13 13 3 0
BITMAP
3018
3038
3030
3030
6070
FFF8
FFF8
61E0
E3E0
C760
EEE0
FCE0
70C0
ENDCHAR
STARTCHAR uni028C
ENCODING 652
SWIDTH 545 0
DWIDTH 14 0
BBX 12 13 4 0
BITMAP
00C0
01E0
03E0
0360
0660
0660
0C60
1C60
1860
3070
7070
6030
E030
ENDCHAR
STARTCHAR uni028D
ENCODING 653
SWIDTH 795 0
DWIDTH 20 0
BBX 18 13 3 0
BITMAP
038380
038380
078780
078780
0F8D80
0D8D80
1D9980
199980
30F1C0
30F1C0
60E0C0
60E0C0
C0C0C0
ENDCHAR
STARTCHAR uni028E
ENCODING 654
SWIDTH 548 0
DWIDTH 14 0
BBX 14 18 2 0
BITMAP
001C
0018
0030
0070
0060
00E0
01E0
01E0
0370
0770
0670
0E30
0C30
1830
3838
3038
6038
E018
ENDCHAR
STARTCHAR uni029E
ENCODING 670
SWIDTH 572 0
DWIDTH 14 0
BBX 13 18 2 -5
BITMAP
7038
3838
1C30
0E30
0630
0770
03F0
03E0
0760
0E60
1CE0
30E0
E0C0
00C0
00C0
01C0
0180
0180
ENDCHAR
STARTCHAR uni02BB
ENCODING 699
SWIDTH 217 0
DWIDTH 5 0
BBX 4 6 4 12
BITMAP
30
60
40
C0
E0
E0
ENDCHAR
STARTCHAR afii57929
ENCODING 700
SWIDTH 217 0
DWIDTH 5 0
BBX 4 6 4 12
BITMAP
70
70
70
60
60
C0
ENDCHAR
STARTCHAR afii64937
ENCODING 701
SWIDTH 217 0
DWIDTH 5 0
BBX 4 6 4 12
BITMAP
E0
E0
E0
60
60
30
ENDCHAR
STARTCHAR circumflex
ENCODING 710
SWIDTH 566 0
DWIDTH 14 0
BBX 8 4 7 14
BITMAP
1E
3E
76
E3
ENDCHAR
STARTCHAR caron
ENCODING 711
SWIDTH 568 0
DWIDTH 14 0
BBX 8 4 7 14
BITMAP
C7
6E
6C
38
ENDCHAR
STARTCHAR uni02C8
ENCODING 712
SWIDTH 217 0
DWIDTH 5 0
BBX 3 6 4 12
BITMAP
E0
E0
E0
E0
E0
40
ENDCHAR
STARTCHAR macron
ENCODING 713
SWIDTH 566 0
DWIDTH 14 0
BBX 7 2 7 16
BITMAP
FE
FE
ENDCHAR
STARTCHAR uni02CA
ENCODING 714
SWIDTH 566 0
DWIDTH 14 0
BBX 6 4 9 14
BITMAP
1C
30
60
C0
ENDCHAR
STARTCHAR uni02CB
ENCODING 715
SWIDTH 572 0
DWIDTH 14 0
BBX 4 4 9 14
BITMAP
E0
60
60
30
ENDCHAR
STARTCHAR uni02CD
ENCODING 717
SWIDTH 566 0
DWIDTH 14 0
BBX 7 2 7 -3
BITMAP
FE
FE
ENDCHAR
STARTCHAR uni02CE
ENCODING 718
SWIDTH 572 0
DWIDTH 14 0
BBX 4 4 9 -5
BITMAP
E0
60
60
30
ENDCHAR
STARTCHAR uni02CF
ENCODING 719
SWIDTH 566 0
DWIDTH 14 0
BBX 6 4 9 -5
BITMAP
1C
30
60
C0
ENDCHAR
STARTCHAR breve
ENCODING 728
SWIDTH 566 0
DWIDTH 14 0
BBX 8 4 7 14
BITMAP
C3
C2
7E
78
ENDCHAR
STARTCHAR dotaccent
ENCODING 729
SWIDTH 566 0
DWIDTH 14 0
BBX 3 2 9 16
BITMAP
E0
E0
ENDCHAR
STARTCHAR ring
ENCODING 730
SWIDTH 567 0
DWIDTH 14 0
BBX 4 4 9 16
BITMAP
60
90
90
60
ENDCHAR
STARTCHAR ogonek
ENCODING 731
SWIDTH 566 0
DWIDTH 14 0
BBX 4 4 4 -4
BITMAP
60
C0
C0
70
ENDCHAR
STARTCHAR tilde
ENCODING 732
SWIDTH 566 0
DWIDTH 14 0
BBX 8 2 7 16
BITMAP
7B
DE
ENDCHAR
STARTCHAR hungarumlaut
ENCODING 733
SWIDTH 566 0
DWIDTH 14 0
BBX 8 4 7 14
BITMAP
1B
36
6C
D8
ENDCHAR
STARTCHAR uni02EE
ENCODING 750
SWIDTH 361 0
DWIDTH 9 0
BBX 8 6 4 12
BITMAP
77
67
22
62
46
88
ENDCHAR
STARTCHAR uni037E
ENCODING 894
SWIDTH 316 0
DWIDTH 8 0
BBX 6 18 2 -5
BITMAP
1C
1C
00
00
00
00
00
00
00
00
00
70
60
20
60
60
C0
80
ENDCHAR
STARTCHAR tonos
ENCODING 900
SWIDTH 566 0
DWIDTH 14 0
BBX 6 4 9 14
BITMAP
1C
30
60
C0
ENDCHAR
STARTCHAR dieresistonos
ENCODING 901
SWIDTH 566 0
DWIDTH 14 0
BBX 8 7 7 16
BITMAP
07
0C
18
30
00
C6
C6
ENDCHAR
STARTCHAR anoteleia
ENCODING 903
SWIDTH 316 0
DWIDTH 16 0
BBX 4 3 7 6
BITMAP
70
F0
E0
ENDCHAR
STARTCHAR mu
ENCODING 956
SWIDTH 627 0
DWIDTH 16 0
BBX 14 17 2 -4
BITMAP
1C1C
181C
1818
1818
3818
3838
3038
3070
30F0
71B0
7330
7F70
7C60
6000
E000
E000
C000
ENDCHAR
STARTCHAR uni1E00
ENCODING 7680
SWIDTH 687 0
DWIDTH 17 0
BBX 16 23 1 -5
BITMAP
0038
0078
0078
00F8
01D8
019C
039C
030C
070C
060C
0C0E
0FFE
1FFE
3806
3006
7007
6007
E007
0000
0180
0240
0240
0180
ENDCHAR
STARTCHAR uni1E01
ENCODING 7681
SWIDTH 608 0
DWIDTH 15 0
BBX 13 18 2 -5
BITMAP
03F8
07F8
1E38
3830
3030
7070
60F0
E1F0
E1E0
E360
E760
FCE0
78E0
0000
0600
0900
0900
0600
ENDCHAR
STARTCHAR uni1E02
ENCODING 7682
SWIDTH 593 0
DWIDTH 15 0
BBX 13 21 2 0
BITMAP
0380
0380
0000
1FE0
1FF8
1C38
1838
1838
3838
3870
38E0
3F80
3FE0
70F0
7070
7030
6070
6070
E1E0
FFE0
FF80
ENDCHAR
STARTCHAR uni1E03
ENCODING 7683
SWIDTH 608 0
DWIDTH 15 0
BBX 13 21 3 0
BITMAP
0E00
0E00
0000
0C00
1C00
1C00
1800
1800
18F0
39F8
3738
3638
3C38
3C38
7830
7070
6060
60E0
63C0
FF00
FE00
ENDCHAR
STARTCHAR uni1E04
ENCODING 7684
SWIDTH 593 0
DWIDTH 15 0
BBX 13 21 2 -3
BITMAP
1FE0
1FF8
1C38
1838
1838
3838
3870
38E0
3F80
3FE0
70F0
7070
7030
6070
6070
E1E0
FFE0
FF80
0000
0E00
0E00
ENDCHAR
STARTCHAR uni1E05
ENCODING 7685
SWIDTH 608 0
DWIDTH 15 0
BBX 13 21 3 -3
BITMAP
0C00
1C00
1C00
1800
1800
18F0
39F8
3738
3638
3C38
3C38
7830
7070
6060
60E0
63C0
FF00
FE00
0000
0E00
0E00
ENDCHAR
STARTCHAR uni1E06
ENCODING 7686
SWIDTH 593 0
DWIDTH 15 0
BBX 13 21 2 -3
BITMAP
1FE0
1FF8
1C38
1838
1838
3838
3870
38E0
3F80
3FE0
70F0
7070
7030
6070
6070
E1E0
FFE0
FF80
0000
3F80
3F80
ENDCHAR
STARTCHAR uni1E07
ENCODING 7687
SWIDTH 608 0
DWIDTH 15 0
BBX 13 21 3 -3
BITMAP
0C00
1C00
1C00
1800
1800
18F0
39F8
3738
3638
3C38
3C38
7830
7070
6060
60E0
63C0
FF00
FE00
0000
3F80
3F80
ENDCHAR
STARTCHAR uni1E08
ENCODING 7688
SWIDTH 679 0
DWIDTH 17 0
BBX 17 28 2 -5
BITMAP
003800
006000
00C000
018000
000000
00FF00
03FF80
0F0180
1E0000
3C0000
380000
700000
700000
E00000
E00000
E00000
E00000
E00000
E00000
700000
780C00
3FFC00
0FE000
020000
060000
030000
030000
0E0000
ENDCHAR
STARTCHAR uni1E09
ENCODING 7689
SWIDTH 503 0
DWIDTH 13 0
BBX 11 23 2 -5
BITMAP
01C0
0300
0600
0C00
0000
03E0
0FE0
1C20
3800
7000
6000
E000
E000
E000
E000
E0C0
7F80
3F00
0800
1800
0C00
0C00
3800
ENDCHAR
STARTCHAR uni1E0A
ENCODING 7690
SWIDTH 743 0
DWIDTH 19 0
BBX 17 21 2 0
BITMAP
00E000
00E000
000000
1FFC00
1FFE00
1C1F00
180780
180380
380380
380380
380380
300380
300380
700300
700700
700600
600E00
601C00
E07800
FFF000
FFC000
ENDCHAR
STARTCHAR uni1E0B
ENCODING 7691
SWIDTH 608 0
DWIDTH 15 0
BBX 15 21 2 0
BITMAP
0038
0038
0000
000E
000E
000C
000C
001C
01FC
07FC
0E18
1C18
3838
7038
6070
E0F0
E1F0
E3F0
E770
FE60
7860
ENDCHAR
STARTCHAR uni1E0C
ENCODING 7692
SWIDTH 743 0
DWIDTH 19 0
BBX 17 21 2 -3
BITMAP
1FFC00
1FFE00
1C1F00
180780
180380
380380
380380
380380
300380
300380
700300
700700
700600
600E00
601C00
E07800
FFF000
FFC000
000000
038000
038000
ENDCHAR
STARTCHAR uni1E0D
ENCODING 7693
SWIDTH 608 0
DWIDTH 15 0
BBX 15 21 2 -3
BITMAP
000E
000E
000C
000C
001C
01FC
07FC
0E18
1C18
3838
7038
6070
E0F0
E1F0
E3F0
E770
FE60
7860
0000
0700
0700
ENDCHAR
STARTCHAR uni1E0E
ENCODING 7694
SWIDTH 743 0
DWIDTH 19 0
BBX 17 21 2 -3
BITMAP
1FFC00
1FFE00
1C1F00
180780
180380
380380
380380
380380
300380
300380
700300
700700
700600
600E00
601C00
E07800
FFF000
FFC000
000000
0FE000
0FE000
ENDCHAR
STARTCHAR uni1E0F
ENCODING 7695
SWIDTH 608 0
DWIDTH 15 0
BBX 15 21 2 -3
BITMAP
000E
000E
000C
000C
001C
01FC
07FC
0E18
1C18
3838
7038
6070
E0F0
E1F0
E3F0
E770
FE60
7860
0000
1FC0
1FC0
ENDCHAR
STARTCHAR uni1E10
ENCODING 7696
SWIDTH 743 0
DWIDTH 19 0
BBX 17 23 2 -5
BITMAP
1FFC00
1FFE00
1C1F00
180780
180380
380380
380380
380380
300380
300380
700300
700700
700600
600E00
601C00
E07800
FFF000
FFC000
010000
030000
018000
018000
070000
ENDCHAR
STARTCHAR uni1E11
ENCODING 7697
SWIDTH 608 0
DWIDTH 15 0
BBX 15 23 2 -5
BITMAP
000E
000E
000C
000C
001C
01FC
07FC
0E18
1C18
3838
7038
6070
E0F0
E1F0
E3F0
E770
FE60
7860
0200
0600
0300
0300
0E00
ENDCHAR
STARTCHAR uni1E12
ENCODING 7698
SWIDTH 743 0
DWIDTH 19 0
BBX 17 23 2 -5
BITMAP
1FFC00
1FFE00
1C1F00
180780
180380
380380
380380
380380
300380
300380
700300
700700
700600
600E00
601C00
E07800
FFF000
FFC000
000000
03C000
07C000
0EC000
1C6000
ENDCHAR
STARTCHAR uni1E13
ENCODING 7699
SWIDTH 608 0
DWIDTH 15 0
BBX 15 23 2 -5
BITMAP
000E
000E
000C
000C
001C
01FC
07FC
0E18
1C18
3838
7038
6070
E0F0
E1F0
E3F0
E770
FE60
7860
0000
0780
0F80
1D80
38C0
ENDCHAR
STARTCHAR uni1E14
ENCODING 7700
SWIDTH 547 0
DWIDTH 14 0
BBX 14 26 2 0
BITMAP
0700
0300
0300
0180
0000
0FE0
0FE0
0000
0FFC
1FFC
1C00
1C00
1800
1800
3800
3800
3FE0
3FE0
3000
7000
7000
7000
6000
6000
FFE0
FFE0
ENDCHAR
STARTCHAR uni1E15
ENCODING 7701
SWIDTH 529 0
DWIDTH 13 0
BBX 11 21 2 0
BITMAP
0E00
0600
0600
0300
0000
1FC0
1FC0
0000
07C0
0FE0
18E0
30E0
60C0
6180
FF00
FC00
C000
E020
E0C0
7FC0
3F00
ENDCHAR
STARTCHAR uni1E16
ENCODING 7702
SWIDTH 547 0
DWIDTH 14 0
BBX 14 26 2 0
BITMAP
0070
00C0
0180
0300
0000
0FE0
0FE0
0000
0FFC
1FFC
1C00
1C00
1800
1800
3800
3800
3FE0
3FE0
3000
7000
7000
7000
6000
6000
FFE0
FFE0
ENDCHAR
STARTCHAR uni1E17
ENCODING 7703
SWIDTH 529 0
DWIDTH 13 0
BBX 11 21 2 0
BITMAP
01C0
0300
0600
0C00
0000
1FC0
1FC0
0000
07C0
0FE0
18E0
30E0
60C0
6180
FF00
FC00
C000
E020
E0C0
7FC0
3F00
ENDCHAR
STARTCHAR uni1E18
ENCODING 7704
SWIDTH 547 0
DWIDTH 14 0
BBX 14 23 2 -5
BITMAP
0FFC
1FFC
1C00
1C00
1800
1800
3800
3800
3FE0
3FE0
3000
7000
7000
7000
6000
6000
FFE0
FFE0
0000
0F00
1F00
3B00
7180
ENDCHAR
STARTCHAR uni1E19
ENCODING 7705
SWIDTH 529 0
DWIDTH 13 0
BBX 11 18 2 -5
BITMAP
07C0
0FE0
18E0
30E0
60C0
6180
FF00
FC00
C000
E020
E0C0
7FC0
3F00
0000
0F00
1F00
3B00
7180
ENDCHAR
STARTCHAR uni1E1A
ENCODING 7706
SWIDTH 547 0
DWIDTH 14 0
BBX 14 21 2 -3
BITMAP
0FFC
1FFC
1C00
1C00
1800
1800
3800
3800
3FE0
3FE0
3000
7000
7000
7000
6000
6000
FFE0
FFE0
0000
3D80
6F00
ENDCHAR
STARTCHAR uni1E1B
ENCODING 7707
SWIDTH 529 0
DWIDTH 13 0
BBX 11 16 2 -3
BITMAP
07C0
0FE0
18E0
30E0
60C0
6180
FF00
FC00
C000
E020
E0C0
7FC0
3F00
0000
3D80
6F00
ENDCHAR
STARTCHAR uni1E1C
ENCODING 7708
SWIDTH 547 0
DWIDTH 14 0
BBX 14 28 2 -5
BITMAP
1860
1840
0FC0
0F00
0000
0FFC
1FFC
1C00
1C00
1800
1800
3800
3800
3FE0
3FE0
3000
7000
7000
7000
6000
6000
FFE0
FFE0
0400
0C00
0600
0600
1C00
ENDCHAR
STARTCHAR uni1E1D
ENCODING 7709
SWIDTH 529 0
DWIDTH 13 0
BBX 11 23 2 -5
BITMAP
1860
1840
0FC0
0F00
0000
07C0
0FE0
18E0
30E0
60C0
6180
FF00
FC00
C000
E020
E0C0
7FC0
3F00
0400
0C00
0600
0600
1C00
ENDCHAR
STARTCHAR uni1E1E
ENCODING 7710
SWIDTH 536 0
DWIDTH 13 0
BBX 14 21 2 0
BITMAP
0380
0380
0000
0FFC
1FFC
1C00
1C00
1800
1800
3800
3800
3FE0
3FE0
3000
7000
7000
7000
6000
6000
E000
E000
ENDCHAR
STARTCHAR uni1E1F
ENCODING 7711
SWIDTH 383 0
DWIDTH 10 0
BBX 12 28 2 -5
BITMAP
0700
0700
0000
01F0
03F0
0700
0600
0E00
0C00
0C00
7F80
7F80
1800
1800
1800
3800
3800
3000
3000
3000
7000
7000
7000
6000
6000
E000
E000
E000
ENDCHAR
STARTCHAR uni1E20
ENCODING 7712
SWIDTH 702 0
DWIDTH 18 0
BBX 16 21 3 0
BITMAP
07F0
07F0
0000
00FE
07FF
0F03
1C00
3800
3000
7000
6000
E000
E000
E00C
E00C
E01C
E01C
701C
7838
3FF8
0FC0
ENDCHAR
STARTCHAR uni1E21
ENCODING 7713
SWIDTH 608 0
DWIDTH 15 0
BBX 14 21 1 -5
BITMAP
07F0
07F0
0000
01FC
07FC
0F18
1C18
1818
3838
3038
7070
70F0
71B0
7330
3E70
3C60
0060
0060
C0C0
FF80
7E00
ENDCHAR
STARTCHAR uni1E22
ENCODING 7714
SWIDTH 735 0
DWIDTH 18 0
BBX 17 21 2 0
BITMAP
00E000
00E000
000000
1C0380
1C0380
1C0380
180300
180300
380700
380700
380700
3FFE00
3FFE00
700600
700E00
700E00
600C00
600C00
E01C00
E01C00
E01C00
ENDCHAR
STARTCHAR uni1E23
ENCODING 7715
SWIDTH 620 0
DWIDTH 16 0
BBX 13 21 2 0
BITMAP
0E00
0E00
0000
0C00
0C00
1C00
1C00
1800
1870
39F8
3BB8
3738
3E38
3C38
7830
7030
7070
6070
6060
E060
E060
ENDCHAR
STARTCHAR uni1E24
ENCODING 7716
SWIDTH 735 0
DWIDTH 18 0
BBX 17 21 2 -3
BITMAP
1C0380
1C0380
1C0380
180300
180300
380700
380700
380700
3FFE00
3FFE00
700600
700E00
700E00
600C00
600C00
E01C00
E01C00
E01C00
000000
038000
038000
ENDCHAR
STARTCHAR uni1E25
ENCODING 7717
SWIDTH 620 0
DWIDTH 16 0
BBX 13 21 2 -3
BITMAP
0C00
0C00
1C00
1C00
1800
1870
39F8
3BB8
3738
3E38
3C38
7830
7030
7070
6070
6060
E060
E060
0000
0700
0700
ENDCHAR
STARTCHAR uni1E26
ENCODING 7718
SWIDTH 735 0
DWIDTH 18 0
BBX 17 21 2 0
BITMAP
031800
031800
000000
1C0380
1C0380
1C0380
180300
180300
380700
380700
380700
3FFE00
3FFE00
700600
700E00
700E00
600C00
600C00
E01C00
E01C00
E01C00
ENDCHAR
STARTCHAR uni1E27
ENCODING 7719
SWIDTH 620 0
DWIDTH 16 0
BBX 13 21 2 0
BITMAP
3180
3180
0000
0C00
0C00
1C00
1C00
1800
1870
39F8
3BB8
3738
3E38
3C38
7830
7030
7070
6070
6060
E060
E060
ENDCHAR
STARTCHAR uni1E28
ENCODING 7720
SWIDTH 735 0
DWIDTH 18 0
BBX 17 23 2 -5
BITMAP
1C0380
1C0380
1C0380
180300
180300
380700
380700
380700
3FFE00
3FFE00
700600
700E00
700E00
600C00
600C00
E01C00
E01C00
E01C00
010000
030000
018000
018000
070000
ENDCHAR
STARTCHAR uni1E29
ENCODING 7721
SWIDTH 620 0
DWIDTH 16 0
BBX 13 23 2 -5
BITMAP
0C00
0C00
1C00
1C00
1800
1870
39F8
3BB8
3738
3E38
3C38
7830
7030
7070
6070
6060
E060
E060
0200
0600
0300
0300
0E00
ENDCHAR
STARTCHAR uni1E2A
ENCODING 7722
SWIDTH 735 0
DWIDTH 18 0
BBX 17 23 2 -5
BITMAP
1C0380
1C0380
1C0380
180300
180300
380700
380700
380700
3FFE00
3FFE00
700600
700E00
700E00
600C00
600C00
E01C00
E01C00
E01C00
000000
0C3000
0C2000
07E000
078000
ENDCHAR
STARTCHAR uni1E2B
ENCODING 7723
SWIDTH 620 0
DWIDTH 16 0
BBX 13 23 2 -5
BITMAP
0C00
0C00
1C00
1C00
1800
1870
39F8
3BB8
3738
3E38
3C38
7830
7030
7070
6070
6060
E060
E060
0000
30C0
3080
1F80
1E00
ENDCHAR
STARTCHAR uni1E2C
ENCODING 7724
SWIDTH 289 0
DWIDTH 7 0
BBX 8 21 0 -3
BITMAP
07
07
07
06
06
0E
0E
0E
0C
0C
1C
1C
1C
18
18
38
38
38
00
7B
DE
ENDCHAR
STARTCHAR uni1E2D
ENCODING 7725
SWIDTH 289 0
DWIDTH 7 0
BBX 8 21 0 -3
BITMAP
07
07
00
00
00
06
0E
0E
0C
0C
0C
1C
1C
18
18
18
38
38
00
7B
DE
ENDCHAR
STARTCHAR uni1E2E
ENCODING 7726
SWIDTH 289 0
DWIDTH 7 0
BBX 8 26 2 0
BITMAP
07
0C
18
30
00
63
63
00
1C
1C
1C
18
18
38
38
38
30
30
70
70
70
60
60
E0
E0
E0
ENDCHAR
STARTCHAR uni1E2F
ENCODING 7727
SWIDTH 289 0
DWIDTH 7 0
BBX 8 21 2 0
BITMAP
07
0C
18
30
00
63
63
00
18
38
38
30
30
30
70
70
60
60
60
E0
E0
ENDCHAR
STARTCHAR uni1E30
ENCODING 7728
SWIDTH 635 0
DWIDTH 16 0
BBX 16 23 2 0
BITMAP
0070
00C0
0180
0300
0000
0C07
1C0C
1C18
1C30
1860
18C0
3980
3B00
3E00
3700
3300
7180
71C0
70C0
6060
6070
E030
E018
ENDCHAR
STARTCHAR uni1E31
ENCODING 7729
SWIDTH 572 0
DWIDTH 14 0
BBX 13 23 2 0
BITMAP
0380
0600
0C00
1800
0000
0C00
0C00
1C00
1800
1800
1838
3860
39C0
3380
3700
3E00
7E00
7700
6300
6380
61C0
E0E0
E070
ENDCHAR
STARTCHAR uni1E32
ENCODING 7730
SWIDTH 635 0
DWIDTH 16 0
BBX 16 21 2 -3
BITMAP
0C07
1C0C
1C18
1C30
1860
18C0
3980
3B00
3E00
3700
3300
7180
71C0
70C0
6060
6070
E030
E018
0000
0700
0700
ENDCHAR
STARTCHAR uni1E33
ENCODING 7731
SWIDTH 572 0
DWIDTH 14 0
BBX 13 21 2 -3
BITMAP
0C00
0C00
1C00
1800
1800
1838
3860
39C0
3380
3700
3E00
7E00
7700
6300
6380
61C0
E0E0
E070
0000
0E00
0E00
ENDCHAR
STARTCHAR uni1E34
ENCODING 7732
SWIDTH 635 0
DWIDTH 16 0
BBX 16 21 2 -3
BITMAP
0C07
1C0C
1C18
1C30
1860
18C0
3980
3B00
3E00
3700
3300
7180
71C0
70C0
6060
6070
E030
E018
0000
1FC0
1FC0
ENDCHAR
STARTCHAR uni1E35
ENCODING 7733
SWIDTH 572 0
DWIDTH 14 0
BBX 13 21 2 -3
BITMAP
0C00
0C00
1C00
1800
1800
1838
3860
39C0
3380
3700
3E00
7E00
7700
6300
6380
61C0
E0E0
E070
0000
3F80
3F80
ENDCHAR
STARTCHAR uni1E36
ENCODING 7734
SWIDTH 545 0
DWIDTH 14 0
BBX 11 21 3 -3
BITMAP
1C00
1C00
1C00
1800
1800
3800
3800
3800
3000
3000
7000
7000
7000
6000
6000
E000
FFE0
FFE0
0000
1C00
1C00
ENDCHAR
STARTCHAR uni1E37
ENCODING 7735
SWIDTH 289 0
DWIDTH 7 0
BBX 6 21 3 -3
BITMAP
0C
1C
1C
18
18
18
38
38
30
30
30
70
70
60
60
60
E0
E0
00
70
70
ENDCHAR
STARTCHAR uni1E38
ENCODING 7736
SWIDTH 545 0
DWIDTH 14 0
BBX 11 24 3 -3
BITMAP
7F00
7F00
0000
1C00
1C00
1C00
1800
1800
3800
3800
3800
3000
3000
7000
7000
7000
6000
6000
E000
FFE0
FFE0
0000
1C00
1C00
ENDCHAR
STARTCHAR uni1E39
ENCODING 7737
SWIDTH 289 0
DWIDTH 7 0
BBX 7 24 3 -3
BITMAP
FE
FE
00
0C
1C
1C
18
18
18
38
38
30
30
30
70
70
60
60
60
E0
E0
00
70
70
ENDCHAR
STARTCHAR uni1E3A
ENCODING 7738
SWIDTH 545 0
DWIDTH 14 0
BBX 11 21 3 -3
BITMAP
1C00
1C00
1C00
1800
1800
3800
3800
3800
3000
3000
7000
7000
7000
6000
6000
E000
FFE0
FFE0
0000
7F00
7F00
ENDCHAR
STARTCHAR uni1E3B
ENCODING 7739
SWIDTH 289 0
DWIDTH 7 0
BBX 7 21 2 -3
BITMAP
06
0E
0E
0C
0C
0C
1C
1C
18
18
18
38
38
30
30
30
70
70
00
FE
FE
ENDCHAR
STARTCHAR uni1E3C
ENCODING 7740
SWIDTH 545 0
DWIDTH 14 0
BBX 11 23 3 -5
BITMAP
1C00
1C00
1C00
1800
1800
3800
3800
3800
3000
3000
7000
7000
7000
6000
6000
E000
FFE0
FFE0
0000
1E00
3E00
7600
E300
ENDCHAR
STARTCHAR uni1E3D
ENCODING 7741
SWIDTH 289 0
DWIDTH 7 0
BBX 8 23 1 -5
BITMAP
03
07
07
06
06
06
0E
0E
0C
0C
0C
1C
1C
18
18
18
38
38
00
1E
3E
76
E3
ENDCHAR
STARTCHAR uni1E3E
ENCODING 7742
SWIDTH 828 0
DWIDTH 21 0
BBX 20 23 2 0
BITMAP
000E00
001800
003000
006000
000000
0E00F0
1E00F0
1F01E0
1F01E0
1F0360
1B07E0
3B06E0
330CC0
330CC0
3398C0
3399C0
71B1C0
61F180
61E180
61C180
61C380
C00380
C00300
ENDCHAR
STARTCHAR uni1E3F
ENCODING 7743
SWIDTH 934 0
DWIDTH 23 0
BBX 21 18 2 0
BITMAP
000E00
001800
003000
006000
000000
187070
19F9F8
3BBBB8
373F38
3E3E38
3C3C30
383830
707830
707070
606070
606060
606060
C0E0E0
ENDCHAR
STARTCHAR uni1E40
ENCODING 7744
SWIDTH 828 0
DWIDTH 21 0
BBX 20 21 2 0
BITMAP
007000
007000
000000
0E00F0
1E00F0
1F01E0
1F01E0
1F0360
1B07E0
3B06E0
330CC0
330CC0
3398C0
3399C0
71B1C0
61F180
61E180
61C180
61C380
C00380
C00300
ENDCHAR
STARTCHAR uni1E41
ENCODING 7745
SWIDTH 934 0
DWIDTH 23 0
BBX 21 16 2 0
BITMAP
003800
003800
000000
187070
19F9F8
3BBBB8
373F38
3E3E38
3C3C30
383830
707830
707070
606070
606060
606060
C0E0E0
ENDCHAR
STARTCHAR uni1E42
ENCODING 7746
SWIDTH 828 0
DWIDTH 21 0
BBX 20 21 2 -3
BITMAP
0E00F0
1E00F0
1F01E0
1F01E0
1F0360
1B07E0
3B06E0
330CC0
330CC0
3398C0
3399C0
71B1C0
61F180
61E180
61C180
61C380
C00380
C00300
000000
00E000
00E000
ENDCHAR
STARTCHAR uni1E43
ENCODING 7747
SWIDTH 934 0
DWIDTH 23 0
BBX 21 16 2 -3
BITMAP
187070
19F9F8
3BBBB8
373F38
3E3E38
3C3C30
383830
707830
707070
606070
606060
606060
C0E0E0
000000
007000
007000
ENDCHAR
STARTCHAR uni1E44
ENCODING 7748
SWIDTH 741 0
DWIDTH 19 0
BBX 17 21 3 0
BITMAP
01C000
01C000
000000
1C0180
1E0180
1E0380
1E0300
1F0300
3B0300
338300
318700
31C600
31C600
70C600
60E600
606E00
607C00
603C00
E03C00
C03C00
C01C00
ENDCHAR
STARTCHAR uni1E45
ENCODING 7749
SWIDTH 620 0
DWIDTH 16 0
BBX 13 16 2 0
BITMAP
0380
0380
0000
1870
39F8
3BB8
3738
3E38
3C38
7830
7030
7070
6070
6060
E060
E060
ENDCHAR
STARTCHAR uni1E46
ENCODING 7750
SWIDTH 741 0
DWIDTH 19 0
BBX 17 21 3 -3
BITMAP
1C0180
1E0180
1E0380
1E0300
1F0300
3B0300
338300
318700
31C600
31C600
70C600
60E600
606E00
607C00
603C00
E03C00
C03C00
C01C00
000000
01C000
01C000
ENDCHAR
STARTCHAR uni1E47
ENCODING 7751
SWIDTH 620 0
DWIDTH 16 0
BBX 13 16 2 -3
BITMAP
1870
39F8
3BB8
3738
3E38
3C38
7830
7030
7070
6070
6060
E060
E060
0000
0E00
0E00
ENDCHAR
STARTCHAR uni1E48
ENCODING 7752
SWIDTH 741 0
DWIDTH 19 0
BBX 17 21 3 -3
BITMAP
1C0180
1E0180
1E0380
1E0300
1F0300
3B0300
338300
318700
31C600
31C600
70C600
60E600
606E00
607C00
603C00
E03C00
C03C00
C01C00
000000
07F000
07F000
ENDCHAR
STARTCHAR uni1E49
ENCODING 7753
SWIDTH 620 0
DWIDTH 16 0
BBX 13 16 2 -3
BITMAP
1870
39F8
3BB8
3738
3E38
3C38
7830
7030
7070
6070
6060
E060
E060
0000
3F80
3F80
ENDCHAR
STARTCHAR uni1E4A
ENCODING 7754
SWIDTH 741 0
DWIDTH 19 0
BBX 17 23 3 -5
BITMAP
1C0180
1E0180
1E0380
1E0300
1F0300
3B0300
338300
318700
31C600
31C600
70C600
60E600
606E00
607C00
603C00
E03C00
C03C00
C01C00
000000
01E000
03E000
076000
0E3000
ENDCHAR
STARTCHAR uni1E4B
ENCODING 7755
SWIDTH 620 0
DWIDTH 16 0
BBX 13 18 2 -5
BITMAP
1870
39F8
3BB8
3738
3E38
3C38
7830
7030
7070
6070
6060
E060
E060
0000
0F00
1F00
3B00
7180
ENDCHAR
STARTCHAR uni1E4C
ENCODING 7756
SWIDTH 777 0
DWIDTH 19 0
BBX 18 26 3 0
BITMAP
001C00
003000
006000
00C000
000000
00F600
01BC00
000000
00FC00
03FF00
0F0700
1C0380
380180
3801C0
7001C0
6001C0
E00180
E00380
E00380
E00300
E00700
E00E00
701C00
787800
3FF000
0FC000
ENDCHAR
STARTCHAR uni1E4D
ENCODING 7757
SWIDTH 566 0
DWIDTH 14 0
BBX 13 21 2 0
BITMAP
0070
00C0
0180
0300
0000
03D8
06F0
0000
07C0
0FE0
1C70
3030
7030
6030
E030
E070
E060
E0E0
E1C0
7F80
3E00
ENDCHAR
STARTCHAR uni1E4E
ENCODING 7758
SWIDTH 777 0
DWIDTH 19 0
BBX 18 24 3 0
BITMAP
018C00
018C00
000000
00F600
01BC00
000000
00FC00
03FF00
0F0700
1C0380
380180
3801C0
7001C0
6001C0
E00180
E00380
E00380
E00300
E00700
E00E00
701C00
787800
3FF000
0FC000
ENDCHAR
STARTCHAR uni1E4F
ENCODING 7759
SWIDTH 566 0
DWIDTH 14 0
BBX 13 19 2 0
BITMAP
0C60
0C60
0000
03D8
06F0
0000
07C0
0FE0
1C70
3030
7030
6030
E030
E070
E060
E0E0
E1C0
7F80
3E00
ENDCHAR
STARTCHAR uni1E50
ENCODING 7760
SWIDTH 777 0
DWIDTH 19 0
BBX 18 26 3 0
BITMAP
01C000
00C000
00C000
006000
000000
03F800
03F800
000000
00FC00
03FF00
0F0700
1C0380
380180
3801C0
7001C0
6001C0
E00180
E00380
E00380
E00300
E00700
E00E00
701C00
787800
3FF000
0FC000
ENDCHAR
STARTCHAR uni1E51
ENCODING 7761
SWIDTH 566 0
DWIDTH 14 0
BBX 12 21 2 0
BITMAP
0E00
0600
0600
0300
0000
1FC0
1FC0
0000
07C0
0FE0
1C70
3030
7030
6030
E030
E070
E060
E0E0
E1C0
7F80
3E00
ENDCHAR
STARTCHAR uni1E52
ENCODING 7762
SWIDTH 777 0
DWIDTH 19 0
BBX 18 26 3 0
BITMAP
001C00
003000
006000
00C000
000000
03F800
03F800
000000
00FC00
03FF00
0F0700
1C0380
380180
3801C0
7001C0
6001C0
E00180
E00380
E00380
E00300
E00700
E00E00
701C00
787800
3FF000
0FC000
ENDCHAR
STARTCHAR uni1E53
ENCODING 7763
SWIDTH 566 0
DWIDTH 14 0
BBX 12 21 2 0
BITMAP
00E0
0180
0300
0600
0000
1FC0
1FC0
0000
07C0
0FE0
1C70
3030
7030
6030
E030
E070
E060
E0E0
E1C0
7F80
3E00
ENDCHAR
STARTCHAR uni1E54
ENCODING 7764
SWIDTH 575 0
DWIDTH 14 0
BBX 14 23 2 0
BITMAP
0070
00C0
0180
0300
0000
0FF0
1FF8
1C1C
1C1C
181C
181C
3818
3838
38F0
3FE0
3F00
7000
7000
7000
6000
6000
E000
E000
ENDCHAR
STARTCHAR uni1E55
ENCODING 7765
SWIDTH 608 0
DWIDTH 15 0
BBX 14 23 2 -5
BITMAP
0070
00C0
0180
0300
0000
1C78
1CFC
1B9C
1F1C
1E1C
3E1C
3C18
3838
3030
3070
71E0
7F80
7F00
6000
6000
E000
E000
C000
ENDCHAR
STARTCHAR uni1E56
ENCODING 7766
SWIDTH 575 0
DWIDTH 14 0
BBX 14 21 2 0
BITMAP
0380
0380
0000
0FF0
1FF8
1C1C
1C1C
181C
181C
3818
3838
38F0
3FE0
3F00
7000
7000
7000
6000
6000
E000
E000
ENDCHAR
STARTCHAR uni1E57
ENCODING 7767
SWIDTH 608 0
DWIDTH 15 0
BBX 14 21 2 -5
BITMAP
0380
0380
0000
1C78
1CFC
1B9C
1F1C
1E1C
3E1C
3C18
3838
3030
3070
71E0
7F80
7F00
6000
6000
E000
E000
C000
ENDCHAR
STARTCHAR uni1E58
ENCODING 7768
SWIDTH 632 0
DWIDTH 16 0
BBX 14 21 2 0
BITMAP
0380
0380
0000
0FF0
1FFC
1C1C
1C1C
181C
181C
3838
3870
3FE0
3F80
31C0
71C0
70E0
60E0
6070
6070
E038
E038
ENDCHAR
STARTCHAR uni1E59
ENCODING 7769
SWIDTH 478 0
DWIDTH 12 0
BBX 11 16 3 0
BITMAP
0E00
0E00
0000
38E0
39E0
3300
3600
3C00
7C00
7800
7000
6000
6000
E000
E000
E000
ENDCHAR
STARTCHAR uni1E5A
ENCODING 7770
SWIDTH 632 0
DWIDTH 16 0
BBX 14 21 2 -3
BITMAP
0FF0
1FFC
1C1C
1C1C
181C
181C
3838
3870
3FE0
3F80
31C0
71C0
70E0
60E0
6070
6070
E038
E038
0000
0700
0700
ENDCHAR
STARTCHAR uni1E5B
ENCODING 7771
SWIDTH 478 0
DWIDTH 12 0
BBX 11 16 3 -3
BITMAP
38E0
39E0
3300
3600
3C00
7C00
7800
7000
6000
6000
E000
E000
E000
0000
7000
7000
ENDCHAR
STARTCHAR uni1E5C
ENCODING 7772
SWIDTH 632 0
DWIDTH 16 0
BBX 14 24 2 -3
BITMAP
07F0
07F0
0000
0FF0
1FFC
1C1C
1C1C
181C
181C
3838
3870
3FE0
3F80
31C0
71C0
70E0
60E0
6070
6070
E038
E038
0000
0700
0700
ENDCHAR
STARTCHAR uni1E5D
ENCODING 7773
SWIDTH 478 0
DWIDTH 12 0
BBX 11 19 3 -3
BITMAP
3F80
3F80
0000
38E0
39E0
3300
3600
3C00
7C00
7800
7000
6000
6000
E000
E000
E000
0000
7000
7000
ENDCHAR
STARTCHAR uni1E5E
ENCODING 7774
SWIDTH 632 0
DWIDTH 16 0
BBX 14 21 2 -3
BITMAP
0FF0
1FFC
1C1C
1C1C
181C
181C
3838
3870
3FE0
3F80
31C0
71C0
70E0
60E0
6070
6070
E038
E038
0000
1FC0
1FC0
ENDCHAR
STARTCHAR uni1E5F
ENCODING 7775
SWIDTH 478 0
DWIDTH 12 0
BBX 12 16 2 -3
BITMAP
1C70
1CF0
1980
1B00
1E00
3E00
3C00
3800
3000
3000
7000
7000
7000
0000
FE00
FE00
ENDCHAR
STARTCHAR uni1E60
ENCODING 7776
SWIDTH 553 0
DWIDTH 14 0
BBX 14 21 2 0
BITMAP
0380
0380
0000
03F8
07FC
0E0C
1C00
1C00
1C00
1E00
0F00
0780
03C0
01E0
0070
0070
0070
0070
C0E0
FFC0
7F00
ENDCHAR
STARTCHAR uni1E61
ENCODING 7777
SWIDTH 489 0
DWIDTH 12 0
BBX 11 16 2 0
BITMAP
0700
0700
0000
07C0
1FE0
1860
3800
1C00
1E00
0F00
0780
0380
0180
C380
FF80
7E00
ENDCHAR
STARTCHAR uni1E62
ENCODING 7778
SWIDTH 553 0
DWIDTH 14 0
BBX 14 21 2 -3
BITMAP
03F8
07FC
0E0C
1C00
1C00
1C00
1E00
0F00
0780
03C0
01E0
0070
0070
0070
0070
C0E0
FFC0
7F00
0000
0700
0700
ENDCHAR
STARTCHAR uni1E63
ENCODING 7779
SWIDTH 489 0
DWIDTH 12 0
BBX 11 16 2 -3
BITMAP
07C0
1FE0
1860
3800
1C00
1E00
0F00
0780
0380
0180
C380
FF80
7E00
0000
0E00
0E00
ENDCHAR
STARTCHAR uni1E64
ENCODING 7780
SWIDTH 553 0
DWIDTH 14 0
BBX 14 26 2 0
BITMAP
01C0
01C0
0000
0070
00C0
0180
0300
0000
03F8
07FC
0E0C
1C00
1C00
1C00
1E00
0F00
0780
03C0
01E0
0070
0070
0070
0070
C0E0
FFC0
7F00
ENDCHAR
STARTCHAR uni1E65
ENCODING 7781
SWIDTH 489 0
DWIDTH 12 0
BBX 11 21 2 0
BITMAP
0700
0700
0000
01C0
0300
0600
0C00
0000
07C0
1FE0
1860
3800
1C00
1E00
0F00
0780
0380
0180
C380
FF80
7E00
ENDCHAR
STARTCHAR uni1E66
ENCODING 7782
SWIDTH 553 0
DWIDTH 14 0
BBX 14 26 2 0
BITMAP
01C0
01C0
0000
031C
01B8
01B0
00E0
0000
03F8
07FC
0E0C
1C00
1C00
1C00
1E00
0F00
0780
03C0
01E0
0070
0070
0070
0070
C0E0
FFC0
7F00
ENDCHAR
STARTCHAR uni1E67
ENCODING 7783
SWIDTH 489 0
DWIDTH 12 0
BBX 13 21 2 0
BITMAP
01C0
01C0
0000
0638
0370
0360
01C0
0000
07C0
1FE0
1860
3800
1C00
1E00
0F00
0780
0380
0180
C380
FF80
7E00
ENDCHAR
STARTCHAR uni1E68
ENCODING 7784
SWIDTH 553 0
DWIDTH 14 0
BBX 14 24 2 -3
BITMAP
0380
0380
0000
03F8
07FC
0E0C
1C00
1C00
1C00
1E00
0F00
0780
03C0
01E0
0070
0070
0070
0070
C0E0
FFC0
7F00
0000
0700
0700
ENDCHAR
STARTCHAR uni1E69
ENCODING 7785
SWIDTH 489 0
DWIDTH 12 0
BBX 11 19 2 -3
BITMAP
0700
0700
0000
07C0
1FE0
1860
3800
1C00
1E00
0F00
0780
0380
0180
C380
FF80
7E00
0000
0E00
0E00
ENDCHAR
STARTCHAR uni1E6A
ENCODING 7786
SWIDTH 623 0
DWIDTH 16 0
BBX 16 21 3 0
BITMAP
0380
0380
0000
FFFF
FFFF
0380
0380
0380
0300
0300
0700
0700
0700
0600
0600
0E00
0E00
0E00
0C00
0C00
1C00
ENDCHAR
STARTCHAR uni1E6B
ENCODING 7787
SWIDTH 383 0
DWIDTH 10 0
BBX 8 19 3 0
BITMAP
1C
1C
00
18
18
18
FF
FF
30
30
30
70
70
60
60
E0
60
7C
38
ENDCHAR
STARTCHAR uni1E6C
ENCODING 7788
SWIDTH 623 0
DWIDTH 16 0
BBX 16 21 3 -3
BITMAP
FFFF
FFFF
0380
0380
0380
0300
0300
0700
0700
0700
0600
0600
0E00
0E00
0E00
0C00
0C00
1C00
0000
0700
0700
ENDCHAR
STARTCHAR uni1E6D
ENCODING 7789
SWIDTH 383 0
DWIDTH 10 0
BBX 8 19 3 -3
BITMAP
18
18
18
FF
FF
30
30
30
70
70
60
60
E0
60
7C
38
00
38
38
ENDCHAR
STARTCHAR uni1E6E
ENCODING 7790
SWIDTH 623 0
DWIDTH 16 0
BBX 16 21 3 -3
BITMAP
FFFF
FFFF
0380
0380
0380
0300
0300
0700
0700
0700
0600
0600
0E00
0E00
0E00
0C00
0C00
1C00
0000
1FC0
1FC0
ENDCHAR
STARTCHAR uni1E6F
ENCODING 7791
SWIDTH 383 0
DWIDTH 10 0
BBX 8 19 3 -3
BITMAP
18
18
18
FF
FF
30
30
30
70
70
60
60
E0
60
7C
38
00
FE
FE
ENDCHAR
STARTCHAR uni1E70
ENCODING 7792
SWIDTH 623 0
DWIDTH 16 0
BBX 16 23 3 -5
BITMAP
FFFF
FFFF
0380
0380
0380
0300
0300
0700
0700
0700
0600
0600
0E00
0E00
0E00
0C00
0C00
1C00
0000
0780
0F80
1D80
38C0
ENDCHAR
STARTCHAR uni1E71
ENCODING 7793
SWIDTH 383 0
DWIDTH 10 0
BBX 9 21 2 -5
BITMAP
0C00
0C00
0C00
7F80
7F80
1800
1800
1800
3800
3800
3000
3000
7000
3000
3E00
1C00
0000
1E00
3E00
7600
E300
ENDCHAR
STARTCHAR uni1E72
ENCODING 7794
SWIDTH 693 0
DWIDTH 17 0
BBX 15 21 3 -3
BITMAP
3806
380E
380E
300C
300C
700C
701C
701C
6018
6018
E018
E038
E030
E030
E070
F0E0
7FC0
3F80
0000
18C0
18C0
ENDCHAR
STARTCHAR uni1E73
ENCODING 7795
SWIDTH 620 0
DWIDTH 16 0
BBX 13 16 3 -3
BITMAP
3018
3038
3030
3030
6070
6070
60F0
61E0
E3E0
C760
EEE0
FCE0
70C0
0000
3180
3180
ENDCHAR
STARTCHAR uni1E74
ENCODING 7796
SWIDTH 693 0
DWIDTH 17 0
BBX 15 21 3 -3
BITMAP
3806
380E
380E
300C
300C
700C
701C
701C
6018
6018
E018
E038
E030
E030
E070
F0E0
7FC0
3F80
0000
1EC0
3780
ENDCHAR
STARTCHAR uni1E75
ENCODING 7797
SWIDTH 620 0
DWIDTH 16 0
BBX 13 16 3 -3
BITMAP
3018
3038
3030
3030
6070
6070
60F0
61E0
E3E0
C760
EEE0
FCE0
70C0
0000
1EC0
3780
ENDCHAR
STARTCHAR uni1E76
ENCODING 7798
SWIDTH 693 0
DWIDTH 17 0
BBX 15 23 3 -5
BITMAP
3806
380E
380E
300C
300C
700C
701C
701C
6018
6018
E018
E038
E030
E030
E070
F0E0
7FC0
3F80
0000
0780
0F80
1D80
38C0
ENDCHAR
STARTCHAR uni1E77
ENCODING 7799
SWIDTH 620 0
DWIDTH 16 0
BBX 13 18 3 -5
BITMAP
3018
3038
3030
3030
6070
6070
60F0
61E0
E3E0
C760
EEE0
FCE0
70C0
0000
0F00
1F00
3B00
7180
ENDCHAR
STARTCHAR uni1E78
ENCODING 7800
SWIDTH 693 0
DWIDTH 17 0
BBX 15 26 3 0
BITMAP
0070
00C0
0180
0300
0000
07B0
0DE0
0000
3806
380E
380E
300C
300C
700C
701C
701C
6018
6018
E018
E038
E030
E030
E070
F0E0
7FC0
3F80
ENDCHAR
STARTCHAR uni1E79
ENCODING 7801
SWIDTH 620 0
DWIDTH 16 0
BBX 13 21 3 0
BITMAP
00E0
0180
0300
0600
0000
0F60
1BC0
0000
3018
3038
3030
3030
6070
6070
60F0
61E0
E3E0
C760
EEE0
FCE0
70C0
ENDCHAR
STARTCHAR uni1E7A
ENCODING 7802
SWIDTH 693 0
DWIDTH 17 0
BBX 15 24 3 0
BITMAP
0C60
0C60
0000
0FE0
0FE0
0000
3806
380E
380E
300C
300C
700C
701C
701C
6018
6018
E018
E038
E030
E030
E070
F0E0
7FC0
3F80
ENDCHAR
STARTCHAR uni1E7B
ENCODING 7803
SWIDTH 620 0
DWIDTH 16 0
BBX 13 19 3 0
BITMAP
0C60
0C60
0000
0FE0
0FE0
0000
3018
3038
3030
3030
6070
6070
60F0
61E0
E3E0
C760
EEE0
FCE0
70C0
ENDCHAR
STARTCHAR uni1E7C
ENCODING 7804
SWIDTH 687 0
DWIDTH 17 0
BBX 16 21 4 0
BITMAP
07B0
0DE0
0000
E007
E006
E00E
600C
601C
7038
7030
7070
3060
30E0
38C0
39C0
3980
1B00
1F00
1E00
1E00
1C00
ENDCHAR
STARTCHAR uni1E7D
ENCODING 7805
SWIDTH 545 0
DWIDTH 14 0
BBX 12 16 4 0
BITMAP
1EC0
3780
0000
C070
C060
E0E0
E0C0
6180
6380
6300
6600
6600
6C00
7C00
7800
3000
ENDCHAR
STARTCHAR uni1E7E
ENCODING 7806
SWIDTH 687 0
DWIDTH 17 0
BBX 16 21 4 -3
BITMAP
E007
E006
E00E
600C
601C
7038
7030
7070
3060
30E0
38C0
39C0
3980
1B00
1F00
1E00
1E00
1C00
0000
0700
0700
ENDCHAR
STARTCHAR uni1E7F
ENCODING 7807
SWIDTH 545 0
DWIDTH 14 0
BBX 12 16 4 -3
BITMAP
C070
C060
E0E0
E0C0
6180
6380
6300
6600
6600
6C00
7C00
7800
3000
0000
1C00
1C00
ENDCHAR
STARTCHAR Wgrave
ENCODING 7808
SWIDTH 886 0
DWIDTH 22 0
BBX 21 23 4 0
BITMAP
01C000
00C000
00C000
006000
000000
C07018
C07030
E0F030
E0F060
E0F060
E1B0E0
E1B0C0
E331C0
E33180
E63380
663300
6C3700
6C3600
7C3E00
783C00
783C00
703800
703800
ENDCHAR
STARTCHAR wgrave
ENCODING 7809
SWIDTH 795 0
DWIDTH 20 0
BBX 18 18 3 0
BITMAP
038000
018000
018000
00C000
000000
C0C0C0
C1C180
C1C180
E3C300
E3C300
666600
666E00
6C6C00
6C7C00
787800
787800
707000
707000
ENDCHAR
STARTCHAR Wacute
ENCODING 7810
SWIDTH 886 0
DWIDTH 22 0
BBX 21 23 4 0
BITMAP
001C00
003000
006000
00C000
000000
C07018
C07030
E0F030
E0F060
E0F060
E1B0E0
E1B0C0
E331C0
E33180
E63380
663300
6C3700
6C3600
7C3E00
783C00
783C00
703800
703800
ENDCHAR
STARTCHAR wacute
ENCODING 7811
SWIDTH 795 0
DWIDTH 20 0
BBX 18 18 3 0
BITMAP
003800
006000
00C000
018000
000000
C0C0C0
C1C180
C1C180
E3C300
E3C300
666600
666E00
6C6C00
6C7C00
787800
787800
707000
707000
ENDCHAR
STARTCHAR Wdieresis
ENCODING 7812
SWIDTH 886 0
DWIDTH 22 0
BBX 21 21 4 0
BITMAP
031800
031800
000000
C07018
C07030
E0F030
E0F060
E0F060
E1B0E0
E1B0C0
E331C0
E33180
E63380
663300
6C3700
6C3600
7C3E00
783C00
783C00
703800
703800
ENDCHAR
STARTCHAR wdieresis
ENCODING 7813
SWIDTH 795 0
DWIDTH 20 0
BBX 18 16 3 0
BITMAP
063000
063000
000000
C0C0C0
C1C180
C1C180
E3C300
E3C300
666600
666E00
6C6C00
6C7C00
787800
787800
707000
707000
ENDCHAR
STARTCHAR uni1E86
ENCODING 7814
SWIDTH 886 0
DWIDTH 22 0
BBX 21 21 4 0
BITMAP
00E000
00E000
000000
C07018
C07030
E0F030
E0F060
E0F060
E1B0E0
E1B0C0
E331C0
E33180
E63380
663300
6C3700
6C3600
7C3E00
783C00
783C00
703800
703800
ENDCHAR
STARTCHAR uni1E87
ENCODING 7815
SWIDTH 795 0
DWIDTH 20 0
BBX 18 16 3 0
BITMAP
01C000
01C000
000000
C0C0C0
C1C180
C1C180
E3C300
E3C300
666600
666E00
6C6C00
6C7C00
787800
787800
707000
707000
ENDCHAR
STARTCHAR uni1E88
ENCODING 7816
SWIDTH 886 0
DWIDTH 22 0
BBX 21 21 4 -3
BITMAP
C07018
C07030
E0F030
E0F060
E0F060
E1B0E0
E1B0C0
E331C0
E33180
E63380
663300
6C3700
6C3600
7C3E00
783C00
783C00
703800
703800
000000
01C000
01C000
ENDCHAR
STARTCHAR uni1E89
ENCODING 7817
SWIDTH 795 0
DWIDTH 20 0
BBX 18 16 3 -3
BITMAP
C0C0C0
C1C180
C1C180
E3C300
E3C300
666600
666E00
6C6C00
6C7C00
787800
787800
707000
707000
000000
038000
038000
ENDCHAR
STARTCHAR uni1E8A
ENCODING 7818
SWIDTH 620 0
DWIDTH 16 0
BBX 18 21 0 0
BITMAP
007000
007000
000000
0E01C0
060380
070700
030E00
039C00
039800
01F000
01F000
00E000
01E000
03F000
037000
063800
0C3800
1C1800
381C00
700C00
E00E00
ENDCHAR
STARTCHAR uni1E8B
ENCODING 7819
SWIDTH 541 0
DWIDTH 14 0
BBX 15 16 0 0
BITMAP
01C0
01C0
0000
1C0E
0E1C
0638
0770
03E0
03C0
0380
07C0
0EC0
1CE0
3860
7070
E038
ENDCHAR
STARTCHAR uni1E8C
ENCODING 7820
SWIDTH 620 0
DWIDTH 16 0
BBX 18 21 0 0
BITMAP
018C00
018C00
000000
0E01C0
060380
070700
030E00
039C00
039800
01F000
01F000
00E000
01E000
03F000
037000
063800
0C3800
1C1800
381C00
700C00
E00E00
ENDCHAR
STARTCHAR uni1E8D
ENCODING 7821
SWIDTH 541 0
DWIDTH 14 0
BBX 15 16 0 0
BITMAP
0630
0630
0000
1C0E
0E1C
0638
0770
03E0
03C0
0380
07C0
0EC0
1CE0
3860
7070
E038
ENDCHAR
STARTCHAR uni1E8E
ENCODING 7822
SWIDTH 608 0
DWIDTH 15 0
BBX 15 21 4 0
BITMAP
0380
0380
0000
E00E
601C
7038
3030
3860
38C0
1DC0
1F80
0F00
0E00
0E00
0E00
0C00
0C00
1C00
1C00
1C00
1800
ENDCHAR
STARTCHAR uni1E8F
ENCODING 7823
SWIDTH 548 0
DWIDTH 14 0
BBX 14 21 2 -5
BITMAP
0700
0700
0000
601C
7018
7030
7070
3060
30C0
31C0
3980
3B80
3B00
1E00
1E00
1C00
1800
3800
3000
6000
E000
ENDCHAR
STARTCHAR uni1E90
ENCODING 7824
SWIDTH 578 0
DWIDTH 14 0
BBX 16 23 1 0
BITMAP
0078
00F8
01D8
038C
0000
0FFF
0FFF
000E
001C
0038
0078
0070
00E0
01C0
0380
0700
0E00
1E00
3C00
3800
7000
FFF8
FFF8
ENDCHAR
STARTCHAR uni1E91
ENCODING 7825
SWIDTH 536 0
DWIDTH 13 0
BBX 13 18 1 0
BITMAP
01E0
03E0
0760
0E30
0000
1FF8
1FF8
0070
00E0
01C0
0380
0700
0E00
1C00
3800
7000
FFE0
FFE0
ENDCHAR
STARTCHAR uni1E92
ENCODING 7826
SWIDTH 578 0
DWIDTH 14 0
BBX 16 21 1 -3
BITMAP
0FFF
0FFF
000E
001C
0038
0078
0070
00E0
01C0
0380
0700
0E00
1E00
3C00
3800
7000
FFF8
FFF8
0000
0700
0700
ENDCHAR
STARTCHAR uni1E93
ENCODING 7827
SWIDTH 536 0
DWIDTH 13 0
BBX 13 16 1 -3
BITMAP
1FF8
1FF8
0070
00E0
01C0
0380
0700
0E00
1C00
3800
7000
FFE0
FFE0
0000
0E00
0E00
ENDCHAR
STARTCHAR uni1E94
ENCODING 7828
SWIDTH 578 0
DWIDTH 14 0
BBX 16 21 1 -3
BITMAP
0FFF
0FFF
000E
001C
0038
0078
0070
00E0
01C0
0380
0700
0E00
1E00
3C00
3800
7000
FFF8
FFF8
0000
1FC0
1FC0
ENDCHAR
STARTCHAR uni1E95
ENCODING 7829
SWIDTH 536 0
DWIDTH 13 0
BBX 13 16 1 -3
BITMAP
1FF8
1FF8
0070
00E0
01C0
0380
0700
0E00
1C00
3800
7000
FFE0
FFE0
0000
3F80
3F80
ENDCHAR
STARTCHAR uni1E96
ENCODING 7830
SWIDTH 620 0
DWIDTH 16 0
BBX 13 21 2 -3
BITMAP
0C00
0C00
1C00
1C00
1800
1870
39F8
3BB8
3738
3E38
3C38
7830
7030
7070
6070
6060
E060
E060
0000
1FC0
1FC0
ENDCHAR
STARTCHAR uni1E97
ENCODING 7831
SWIDTH 383 0
DWIDTH 10 0
BBX 8 19 3 0
BITMAP
63
63
00
18
18
18
FF
FF
30
30
30
70
70
60
60
E0
60
7C
38
ENDCHAR
STARTCHAR uni1E98
ENCODING 7832
SWIDTH 795 0
DWIDTH 20 0
BBX 18 18 3 0
BITMAP
00C000
012000
012000
00C000
000000
C0C0C0
C1C180
C1C180
E3C300
E3C300
666600
666E00
6C6C00
6C7C00
787800
787800
707000
707000
ENDCHAR
STARTCHAR uni1E99
ENCODING 7833
SWIDTH 548 0
DWIDTH 14 0
BBX 14 23 2 -5
BITMAP
0300
0480
0480
0300
0000
601C
7018
7030
7070
3060
30C0
31C0
3980
3B80
3B00
1E00
1E00
1C00
1800
3800
3000
6000
E000
ENDCHAR
STARTCHAR uni1EA0
ENCODING 7840
SWIDTH 687 0
DWIDTH 17 0
BBX 16 21 1 -3
BITMAP
0038
0078
0078
00F8
01D8
019C
039C
030C
070C
060C
0C0E
0FFE
1FFE
3806
3006
7007
6007
E007
0000
01C0
01C0
ENDCHAR
STARTCHAR uni1EA1
ENCODING 7841
SWIDTH 608 0
DWIDTH 15 0
BBX 13 16 2 -3
BITMAP
03F8
07F8
1E38
3830
3030
7070
60F0
E1F0
E1E0
E360
E760
FCE0
78E0
0000
0E00
0E00
ENDCHAR
STARTCHAR uni1EA4
ENCODING 7844
SWIDTH 687 0
DWIDTH 17 0
BBX 16 28 1 0
BITMAP
001C
0030
0060
00C0
0000
003C
007C
00EC
01C6
0000
0038
0078
0078
00F8
01D8
019C
039C
030C
070C
060C
0C0E
0FFE
1FFE
3806
3006
7007
6007
E007
ENDCHAR
STARTCHAR uni1EA5
ENCODING 7845
SWIDTH 608 0
DWIDTH 15 0
BBX 13 23 2 0
BITMAP
0070
00C0
0180
0300
0000
00F0
01F0
03B0
0718
0000
03F8
07F8
1E38
3830
3030
7070
60F0
E1F0
E1E0
E360
E760
FCE0
78E0
ENDCHAR
STARTCHAR uni1EA6
ENCODING 7846
SWIDTH 687 0
DWIDTH 17 0
BBX 16 28 1 0
BITMAP
00E0
0060
0060
0030
0000
003C
007C
00EC
01C6
0000
0038
0078
0078
00F8
01D8
019C
039C
030C
070C
060C
0C0E
0FFE
1FFE
3806
3006
7007
6007
E007
ENDCHAR
STARTCHAR uni1EA7
ENCODING 7847
SWIDTH 608 0
DWIDTH 15 0
BBX 13 23 2 0
BITMAP
0380
0180
0180
00C0
0000
00F0
01F0
03B0
0718
0000
03F8
07F8
1E38
3830
3030
7070
60F0
E1F0
E1E0
E360
E760
FCE0
78E0
ENDCHAR
STARTCHAR uni1EAA
ENCODING 7850
SWIDTH 687 0
DWIDTH 17 0
BBX 16 26 1 0
BITMAP
01EC
0378
0000
003C
007C
00EC
01C6
0000
0038
0078
0078
00F8
01D8
019C
039C
030C
070C
060C
0C0E
0FFE
1FFE
3806
3006
7007
6007
E007
ENDCHAR
STARTCHAR uni1EAB
ENCODING 7851
SWIDTH 608 0
DWIDTH 15 0
BBX 13 21 2 0
BITMAP
03D8
06F0
0000
00F0
01F0
03B0
0718
0000
03F8
07F8
1E38
3830
3030
7070
60F0
E1F0
E1E0
E360
E760
FCE0
78E0
ENDCHAR
STARTCHAR uni1EAC
ENCODING 7852
SWIDTH 687 0
DWIDTH 17 0
BBX 16 26 1 -3
BITMAP
0078
00F8
01D8
038C
0000
0038
0078
0078
00F8
01D8
019C
039C
030C
070C
060C
0C0E
0FFE
1FFE
3806
3006
7007
6007
E007
0000
01C0
01C0
ENDCHAR
STARTCHAR uni1EAD
ENCODING 7853
SWIDTH 608 0
DWIDTH 15 0
BBX 13 21 2 -3
BITMAP
01E0
03E0
0760
0E30
0000
03F8
07F8
1E38
3830
3030
7070
60F0
E1F0
E1E0
E360
E760
FCE0
78E0
0000
0E00
0E00
ENDCHAR
STARTCHAR uni1EAE
ENCODING 7854
SWIDTH 687 0
DWIDTH 17 0
BBX 16 28 1 0
BITMAP
0038
0060
00C0
0180
0000
030C
0308
01F8
01E0
0000
0038
0078
0078
00F8
01D8
019C
039C
030C
070C
060C
0C0E
0FFE
1FFE
3806
3006
7007
6007
E007
ENDCHAR
STARTCHAR uni1EAF
ENCODING 7855
SWIDTH 608 0
DWIDTH 15 0
BBX 13 23 2 0
BITMAP
00E0
0180
0300
0600
0000
0C30
0C20
07E0
0780
0000
03F8
07F8
1E38
3830
3030
7070
60F0
E1F0
E1E0
E360
E760
FCE0
78E0
ENDCHAR
STARTCHAR uni1EB0
ENCODING 7856
SWIDTH 687 0
DWIDTH 17 0
BBX 16 28 1 0
BITMAP
01C0
00C0
00C0
0060
0000
030C
0308
01F8
01E0
0000
0038
0078
0078
00F8
01D8
019C
039C
030C
070C
060C
0C0E
0FFE
1FFE
3806
3006
7007
6007
E007
ENDCHAR
STARTCHAR uni1EB1
ENCODING 7857
SWIDTH 608 0
DWIDTH 15 0
BBX 13 23 2 0
BITMAP
0700
0300
0300
0180
0000
0C30
0C20
07E0
0780
0000
03F8
07F8
1E38
3830
3030
7070
60F0
E1F0
E1E0
E360
E760
FCE0
78E0
ENDCHAR
STARTCHAR uni1EB4
ENCODING 7860
SWIDTH 687 0
DWIDTH 17 0
BBX 16 26 1 0
BITMAP
03D8
06F0
0000
030C
0308
01F8
01E0
0000
0038
0078
0078
00F8
01D8
019C
039C
030C
070C
060C
0C0E
0FFE
1FFE
3806
3006
7007
6007
E007
ENDCHAR
STARTCHAR uni1EB5
ENCODING 7861
SWIDTH 608 0
DWIDTH 15 0
BBX 13 21 2 0
BITMAP
0F60
1BC0
0000
0C30
0C20
07E0
0780
0000
03F8
07F8
1E38
3830
3030
7070
60F0
E1F0
E1E0
E360
E760
FCE0
78E0
ENDCHAR
STARTCHAR uni1EB6
ENCODING 7862
SWIDTH 687 0
DWIDTH 17 0
BBX 16 26 1 -3
BITMAP
030C
0308
01F8
01E0
0000
0038
0078
0078
00F8
01D8
019C
039C
030C
070C
060C
0C0E
0FFE
1FFE
3806
3006
7007
6007
E007
0000
01C0
01C0
ENDCHAR
STARTCHAR uni1EB7
ENCODING 7863
SWIDTH 608 0
DWIDTH 15 0
BBX 13 21 2 -3
BITMAP
0C30
0C20
07E0
0780
0000
03F8
07F8
1E38
3830
3030
7070
60F0
E1F0
E1E0
E360
E760
FCE0
78E0
0000
0E00
0E00
ENDCHAR
STARTCHAR uni1EB8
ENCODING 7864
SWIDTH 547 0
DWIDTH 14 0
BBX 14 21 2 -3
BITMAP
0FFC
1FFC
1C00
1C00
1800
1800
3800
3800
3FE0
3FE0
3000
7000
7000
7000
6000
6000
FFE0
FFE0
0000
0E00
0E00
ENDCHAR
STARTCHAR uni1EB9
ENCODING 7865
SWIDTH 529 0
DWIDTH 13 0
BBX 11 16 2 -3
BITMAP
07C0
0FE0
18E0
30E0
60C0
6180
FF00
FC00
C000
E020
E0C0
7FC0
3F00
0000
0E00
0E00
ENDCHAR
STARTCHAR uni1EBC
ENCODING 7868
SWIDTH 547 0
DWIDTH 14 0
BBX 14 21 2 0
BITMAP
07B0
0DE0
0000
0FFC
1FFC
1C00
1C00
1800
1800
3800
3800
3FE0
3FE0
3000
7000
7000
7000
6000
6000
FFE0
FFE0
ENDCHAR
STARTCHAR uni1EBD
ENCODING 7869
SWIDTH 529 0
DWIDTH 13 0
BBX 11 16 2 0
BITMAP
0F60
1BC0
0000
07C0
0FE0
18E0
30E0
60C0
6180
FF00
FC00
C000
E020
E0C0
7FC0
3F00
ENDCHAR
STARTCHAR uni1EBE
ENCODING 7870
SWIDTH 547 0
DWIDTH 14 0
BBX 14 28 2 0
BITMAP
0070
00C0
0180
0300
0000
01E0
03E0
0760
0E30
0000
0FFC
1FFC
1C00
1C00
1800
1800
3800
3800
3FE0
3FE0
3000
7000
7000
7000
6000
6000
FFE0
FFE0
ENDCHAR
STARTCHAR uni1EBF
ENCODING 7871
SWIDTH 529 0
DWIDTH 13 0
BBX 12 23 2 0
BITMAP
00E0
0180
0300
0600
0000
01E0
03E0
0760
0E30
0000
07C0
0FE0
18E0
30E0
60C0
6180
FF00
FC00
C000
E020
E0C0
7FC0
3F00
ENDCHAR
STARTCHAR uni1EC0
ENCODING 7872
SWIDTH 547 0
DWIDTH 14 0
BBX 14 28 2 0
BITMAP
0380
0180
0180
00C0
0000
01E0
03E0
0760
0E30
0000
0FFC
1FFC
1C00
1C00
1800
1800
3800
3800
3FE0
3FE0
3000
7000
7000
7000
6000
6000
FFE0
FFE0
ENDCHAR
STARTCHAR uni1EC1
ENCODING 7873
SWIDTH 529 0
DWIDTH 13 0
BBX 12 23 2 0
BITMAP
0700
0300
0300
0180
0000
01E0
03E0
0760
0E30
0000
07C0
0FE0
18E0
30E0
60C0
6180
FF00
FC00
C000
E020
E0C0
7FC0
3F00
ENDCHAR
STARTCHAR uni1EC4
ENCODING 7876
SWIDTH 547 0
DWIDTH 14 0
BBX 14 26 2 0
BITMAP
07B0
0DE0
0000
01E0
03E0
0760
0E30
0000
0FFC
1FFC
1C00
1C00
1800
1800
3800
3800
3FE0
3FE0
3000
7000
7000
7000
6000
6000
FFE0
FFE0
ENDCHAR
STARTCHAR uni1EC5
ENCODING 7877
SWIDTH 529 0
DWIDTH 13 0
BBX 12 21 2 0
BITMAP
07B0
0DE0
0000
01E0
03E0
0760
0E30
0000
07C0
0FE0
18E0
30E0
60C0
6180
FF00
FC00
C000
E020
E0C0
7FC0
3F00
ENDCHAR
STARTCHAR uni1EC6
ENCODING 7878
SWIDTH 547 0
DWIDTH 14 0
BBX 14 26 2 -3
BITMAP
03C0
07C0
0EC0
1C60
0000
0FFC
1FFC
1C00
1C00
1800
1800
3800
3800
3FE0
3FE0
3000
7000
7000
7000
6000
6000
FFE0
FFE0
0000
0E00
0E00
ENDCHAR
STARTCHAR uni1EC7
ENCODING 7879
SWIDTH 529 0
DWIDTH 13 0
BBX 11 21 2 -3
BITMAP
03C0
07C0
0EC0
1C60
0000
07C0
0FE0
18E0
30E0
60C0
6180
FF00
FC00
C000
E020
E0C0
7FC0
3F00
0000
0E00
0E00
ENDCHAR
STARTCHAR uni1ECA
ENCODING 7882
SWIDTH 289 0
DWIDTH 7 0
BBX 6 21 2 -3
BITMAP
1C
1C
1C
18
18
38
38
38
30
30
70
70
70
60
60
E0
E0
E0
00
70
70
ENDCHAR
STARTCHAR uni1ECB
ENCODING 7883
SWIDTH 289 0
DWIDTH 7 0
BBX 6 21 2 -3
BITMAP
1C
1C
00
00
00
18
38
38
30
30
30
70
70
60
60
60
E0
E0
00
70
70
ENDCHAR
STARTCHAR uni1ECC
ENCODING 7884
SWIDTH 777 0
DWIDTH 19 0
BBX 18 21 3 -3
BITMAP
00FC00
03FF00
0F0700
1C0380
380180
3801C0
7001C0
6001C0
E00180
E00380
E00380
E00300
E00700
E00E00
701C00
787800
3FF000
0FC000
000000
038000
038000
ENDCHAR
STARTCHAR uni1ECD
ENCODING 7885
SWIDTH 566 0
DWIDTH 14 0
BBX 12 16 2 -3
BITMAP
07C0
0FE0
1C70
3030
7030
6030
E030
E070
E060
E0E0
E1C0
7F80
3E00
0000
0E00
0E00
ENDCHAR
STARTCHAR uni1ED0
ENCODING 7888
SWIDTH 777 0
DWIDTH 19 0
BBX 18 28 3 0
BITMAP
001C00
003000
006000
00C000
000000
007800
00F800
01D800
038C00
000000
00FC00
03FF00
0F0700
1C0380
380180
3801C0
7001C0
6001C0
E00180
E00380
E00380
E00300
E00700
E00E00
701C00
787800
3FF000
0FC000
ENDCHAR
STARTCHAR uni1ED1
ENCODING 7889
SWIDTH 566 0
DWIDTH 14 0
BBX 12 23 2 0
BITMAP
00E0
0180
0300
0600
0000
01E0
03E0
0760
0E30
0000
07C0
0FE0
1C70
3030
7030
6030
E030
E070
E060
E0E0
E1C0
7F80
3E00
ENDCHAR
STARTCHAR uni1ED2
ENCODING 7890
SWIDTH 777 0
DWIDTH 19 0
BBX 18 28 3 0
BITMAP
00E000
006000
006000
003000
000000
007800
00F800
01D800
038C00
000000
00FC00
03FF00
0F0700
1C0380
380180
3801C0
7001C0
6001C0
E00180
E00380
E00380
E00300
E00700
E00E00
701C00
787800
3FF000
0FC000
ENDCHAR
STARTCHAR uni1ED3
ENCODING 7891
SWIDTH 566 0
DWIDTH 14 0
BBX 12 23 2 0
BITMAP
0700
0300
0300
0180
0000
01E0
03E0
0760
0E30
0000
07C0
0FE0
1C70
3030
7030
6030
E030
E070
E060
E0E0
E1C0
7F80
3E00
ENDCHAR
STARTCHAR uni1ED6
ENCODING 7894
SWIDTH 777 0
DWIDTH 19 0
BBX 18 26 3 0
BITMAP
01EC00
037800
000000
007800
00F800
01D800
038C00
000000
00FC00
03FF00
0F0700
1C0380
380180
3801C0
7001C0
6001C0
E00180
E00380
E00380
E00300
E00700
E00E00
701C00
787800
3FF000
0FC000
ENDCHAR
STARTCHAR uni1ED7
ENCODING 7895
SWIDTH 566 0
DWIDTH 14 0
BBX 12 21 2 0
BITMAP
07B0
0DE0
0000
01E0
03E0
0760
0E30
0000
07C0
0FE0
1C70
3030
7030
6030
E030
E070
E060
E0E0
E1C0
7F80
3E00
ENDCHAR
STARTCHAR uni1ED8
ENCODING 7896
SWIDTH 777 0
DWIDTH 19 0
BBX 18 26 3 -3
BITMAP
007800
00F800
01D800
038C00
000000
00FC00
03FF00
0F0700
1C0380
380180
3801C0
7001C0
6001C0
E00180
E00380
E00380
E00300
E00700
E00E00
701C00
787800
3FF000
0FC000
000000
038000
038000
ENDCHAR
STARTCHAR uni1ED9
ENCODING 7897
SWIDTH 566 0
DWIDTH 14 0
BBX 12 21 2 -3
BITMAP
03C0
07C0
0EC0
1C60
0000
07C0
0FE0
1C70
3030
7030
6030
E030
E070
E060
E0E0
E1C0
7F80
3E00
0000
0E00
0E00
ENDCHAR
STARTCHAR uni1EDA
ENCODING 7898
SWIDTH 777 0
DWIDTH 19 0
BBX 20 23 3 0
BITMAP
000700
000C00
001800
003000
000000
00FC70
03FF70
0F0770
1C03E0
3801E0
3801C0
7001C0
6001C0
E00180
E00380
E00380
E00300
E00700
E00E00
701C00
787800
3FF000
0FC000
ENDCHAR
STARTCHAR uni1EDB
ENCODING 7899
SWIDTH 566 0
DWIDTH 14 0
BBX 15 18 2 0
BITMAP
0038
0060
00C0
0180
0000
07CE
0FEE
1C7E
303C
703C
6038
E030
E070
E060
E0E0
E1C0
7F80
3E00
ENDCHAR
STARTCHAR uni1EDC
ENCODING 7900
SWIDTH 777 0
DWIDTH 19 0
BBX 20 23 3 0
BITMAP
007000
003000
003000
001800
000000
00FC70
03FF70
0F0770
1C03E0
3801E0
3801C0
7001C0
6001C0
E00180
E00380
E00380
E00300
E00700
E00E00
701C00
787800
3FF000
0FC000
ENDCHAR
STARTCHAR uni1EDD
ENCODING 7901
SWIDTH 566 0
DWIDTH 14 0
BBX 15 18 2 0
BITMAP
0380
0180
0180
00C0
0000
07CE
0FEE
1C7E
303C
703C
6038
E030
E070
E060
E0E0
E1C0
7F80
3E00
ENDCHAR
STARTCHAR uni1EE0
ENCODING 7904
SWIDTH 777 0
DWIDTH 19 0
BBX 20 21 3 0
BITMAP
007B00
00DE00
000000
00FC70
03FF70
0F0770
1C03E0
3801E0
3801C0
7001C0
6001C0
E00180
E00380
E00380
E00300
E00700
E00E00
701C00
787800
3FF000
0FC000
ENDCHAR
STARTCHAR uni1EE1
ENCODING 7905
SWIDTH 566 0
DWIDTH 14 0
BBX 15 16 2 0
BITMAP
03D8
06F0
0000
07CE
0FEE
1C7E
303C
703C
6038
E030
E070
E060
E0E0
E1C0
7F80
3E00
ENDCHAR
STARTCHAR uni1EE2
ENCODING 7906
SWIDTH 777 0
DWIDTH 19 0
BBX 20 21 3 -3
BITMAP
00FC70
03FF70
0F0770
1C03E0
3801E0
3801C0
7001C0
6001C0
E00180
E00380
E00380
E00300
E00700
E00E00
701C00
787800
3FF000
0FC000
000000
01C000
01C000
ENDCHAR
STARTCHAR uni1EE3
ENCODING 7907
SWIDTH 566 0
DWIDTH 14 0
BBX 15 16 2 -3
BITMAP
07CE
0FEE
1C7E
303C
703C
6038
E030
E070
E060
E0E0
E1C0
7F80
3E00
0000
0E00
0E00
ENDCHAR
STARTCHAR uni1EE4
ENCODING 7908
SWIDTH 693 0
DWIDTH 17 0
BBX 15 21 3 -3
BITMAP
3806
380E
380E
300C
300C
700C
701C
701C
6018
6018
E018
E038
E030
E030
E070
F0E0
7FC0
3F80
0000
0700
0700
ENDCHAR
STARTCHAR uni1EE5
ENCODING 7909
SWIDTH 620 0
DWIDTH 16 0
BBX 13 16 3 -3
BITMAP
3018
3038
3030
3030
6070
6070
60F0
61E0
E3E0
C760
EEE0
FCE0
70C0
0000
0E00
0E00
ENDCHAR
STARTCHAR uni1EE8
ENCODING 7912
SWIDTH 693 0
DWIDTH 17 0
BBX 18 23 3 0
BITMAP
001C00
003000
006000
00C000
000000
3807C0
380FC0
380FC0
300D80
300D80
700F00
701C00
701C00
601800
601800
E01800
E03800
E03000
E03000
E07000
F0E000
7FC000
3F8000
ENDCHAR
STARTCHAR uni1EE9
ENCODING 7913
SWIDTH 620 0
DWIDTH 16 0
BBX 16 18 3 0
BITMAP
0038
0060
00C0
0180
0000
301F
303F
3037
3036
6076
607C
60F0
61E0
E3E0
C760
EEE0
FCE0
70C0
ENDCHAR
STARTCHAR uni1EEA
ENCODING 7914
SWIDTH 693 0
DWIDTH 17 0
BBX 18 23 3 0
BITMAP
00E000
006000
006000
003000
000000
3807C0
380FC0
380FC0
300D80
300D80
700F00
701C00
701C00
601800
601800
E01800
E03800
E03000
E03000
E07000
F0E000
7FC000
3F8000
ENDCHAR
STARTCHAR uni1EEB
ENCODING 7915
SWIDTH 620 0
DWIDTH 16 0
BBX 16 18 3 0
BITMAP
01C0
00C0
00C0
0060
0000
301F
303F
3037
3036
6076
607C
60F0
61E0
E3E0
C760
EEE0
FCE0
70C0
ENDCHAR
STARTCHAR uni1EEE
ENCODING 7918
SWIDTH 693 0
DWIDTH 17 0
BBX 18 21 3 0
BITMAP
00F600
01BC00
000000
3807C0
380FC0
380FC0
300D80
300D80
700F00
701C00
701C00
601800
601800
E01800
E03800
E03000
E03000
E07000
F0E000
7FC000
3F8000
ENDCHAR
STARTCHAR uni1EEF
ENCODING 7919
SWIDTH 620 0
DWIDTH 16 0
BBX 16 16 3 0
BITMAP
01EC
0378
0000
301F
303F
3037
3036
6076
607C
60F0
61E0
E3E0
C760
EEE0
FCE0
70C0
ENDCHAR
STARTCHAR uni1EF0
ENCODING 7920
SWIDTH 693 0
DWIDTH 17 0
BBX 18 21 3 -3
BITMAP
3807C0
380FC0
380FC0
300D80
300D80
700F00
701C00
701C00
601800
601800
E01800
E03800
E03000
E03000
E07000
F0E000
7FC000
3F8000
000000
070000
070000
ENDCHAR
STARTCHAR uni1EF1
ENCODING 7921
SWIDTH 620 0
DWIDTH 16 0
BBX 16 16 3 -3
BITMAP
301F
303F
3037
3036
6076
607C
60F0
61E0
E3E0
C760
EEE0
FCE0
70C0
0000
0700
0700
ENDCHAR
STARTCHAR Ygrave
ENCODING 7922
SWIDTH 608 0
DWIDTH 15 0
BBX 15 23 4 0
BITMAP
0700
0300
0300
0180
0000
E00E
601C
7038
3030
3860
38C0
1DC0
1F80
0F00
0E00
0E00
0E00
0C00
0C00
1C00
1C00
1C00
1800
ENDCHAR
STARTCHAR ygrave
ENCODING 7923
SWIDTH 548 0
DWIDTH 14 0
BBX 14 23 2 -5
BITMAP
0E00
0600
0600
0300
0000
601C
7018
7030
7070
3060
30C0
31C0
3980
3B80
3B00
1E00
1E00
1C00
1800
3800
3000
6000
E000
ENDCHAR
STARTCHAR uni1EF4
ENCODING 7924
SWIDTH 608 0
DWIDTH 15 0
BBX 15 21 4 -3
BITMAP
E00E
601C
7038
3030
3860
38C0
1DC0
1F80
0F00
0E00
0E00
0E00
0C00
0C00
1C00
1C00
1C00
1800
0000
0E00
0E00
ENDCHAR
STARTCHAR uni1EF5
ENCODING 7925
SWIDTH 548 0
DWIDTH 14 0
BBX 14 21 2 -8
BITMAP
601C
7018
7030
7070
3060
30C0
31C0
3980
3B80
3B00
1E00
1E00
1C00
1800
3800
3000
6000
E000
0000
1C00
1C00
ENDCHAR
STARTCHAR uni1EF8
ENCODING 7928
SWIDTH 608 0
DWIDTH 15 0
BBX 15 21 4 0
BITMAP
07B0
0DE0
0000
E00E
601C
7038
3030
3860
38C0
1DC0
1F80
0F00
0E00
0E00
0E00
0C00
0C00
1C00
1C00
1C00
1800
ENDCHAR
STARTCHAR uni1EF9
ENCODING 7929
SWIDTH 548 0
DWIDTH 14 0
BBX 14 21 2 -5
BITMAP
0F60
1BC0
0000
601C
7018
7030
7070
3060
30C0
31C0
3980
3B80
3B00
1E00
1E00
1C00
1800
3800
3000
6000
E000
ENDCHAR
STARTCHAR uni2000
ENCODING 8192
SWIDTH 500 0
DWIDTH 13 0
BBX 1 1 0 0
BITMAP
00
ENDCHAR
STARTCHAR uni2001
ENCODING 8193
SWIDTH 1000 0
DWIDTH 25 0
BBX 1 1 0 0
BITMAP
00
ENDCHAR
STARTCHAR uni2002
ENCODING 8194
SWIDTH 500 0
DWIDTH 13 0
BBX 1 1 0 0
BITMAP
00
ENDCHAR
STARTCHAR uni2003
ENCODING 8195
SWIDTH 1000 0
DWIDTH 25 0
BBX 1 1 0 0
BITMAP
00
ENDCHAR
STARTCHAR uni2004
ENCODING 8196
SWIDTH 333 0
DWIDTH 8 0
BBX 1 1 0 0
BITMAP
00
ENDCHAR
STARTCHAR uni2005
ENCODING 8197
SWIDTH 250 0
DWIDTH 6 0
BBX 1 1 0 0
BITMAP
00
ENDCHAR
STARTCHAR uni2006
ENCODING 8198
SWIDTH 167 0
DWIDTH 4 0
BBX 1 1 0 0
BITMAP
00
ENDCHAR
STARTCHAR uni2007
ENCODING 8199
SWIDTH 633 0
DWIDTH 16 0
BBX 1 1 0 0
BITMAP
00
ENDCHAR
STARTCHAR uni2008
ENCODING 8200
SWIDTH 316 0
DWIDTH 8 0
BBX 1 1 0 0
BITMAP
00
ENDCHAR
STARTCHAR uni2009
ENCODING 8201
SWIDTH 200 0
DWIDTH 5 0
BBX 1 1 0 0
BITMAP
00
ENDCHAR
STARTCHAR uni200A
ENCODING 8202
SWIDTH 100 0
DWIDTH 3 0
BBX 1 1 0 0
BITMAP
00
ENDCHAR
STARTCHAR uni200B
ENCODING 8203
SWIDTH 0 0
DWIDTH 0 0
BBX 1 1 0 0
BITMAP
00
ENDCHAR
STARTCHAR uni2010
ENCODING 8208
SWIDTH 313 0
DWIDTH 8 0
BBX 6 2 2 7
BITMAP
FC
FC
ENDCHAR
STARTCHAR uni2011
ENCODING 8209
SWIDTH 313 0
DWIDTH 8 0
BBX 6 2 2 7
BITMAP
FC
FC
ENDCHAR
STARTCHAR figuredash
ENCODING 8210
SWIDTH 500 0
DWIDTH 13 0
BBX 11 2 2 6
BITMAP
FFE0
FFE0
ENDCHAR
STARTCHAR endash
ENCODING 8211
SWIDTH 500 0
DWIDTH 13 0
BBX 11 2 2 6
BITMAP
FFE0
FFE0
ENDCHAR
STARTCHAR emdash
ENCODING 8212
SWIDTH 1000 0
DWIDTH 25 0
BBX 23 2 2 6
BITMAP
FFFFFE
FFFFFE
ENDCHAR
STARTCHAR afii00208
ENCODING 8213
SWIDTH 1000 0
DWIDTH 25 0
BBX 23 2 2 6
BITMAP
FFFFFE
FFFFFE
ENDCHAR
STARTCHAR quoteleft
ENCODING 8216
SWIDTH 217 0
DWIDTH 5 0
BBX 4 6 4 12
BITMAP
30
60
40
C0
E0
E0
ENDCHAR
STARTCHAR quoteright
ENCODING 8217
SWIDTH 217 0
DWIDTH 5 0
BBX 4 6 4 12
BITMAP
70
70
70
60
60
C0
ENDCHAR
STARTCHAR quotesinglbase
ENCODING 8218
SWIDTH 217 0
DWIDTH 5 0
BBX 4 7 1 -4
BITMAP
70
70
F0
20
60
60
C0
ENDCHAR
STARTCHAR quotereversed
ENCODING 8219
SWIDTH 217 0
DWIDTH 5 0
BBX 4 6 4 12
BITMAP
E0
E0
E0
60
60
30
ENDCHAR
STARTCHAR quotedblleft
ENCODING 8220
SWIDTH 361 0
DWIDTH 9 0
BBX 8 6 4 12
BITMAP
31
66
46
CE
EE
CE
ENDCHAR
STARTCHAR quotedblright
ENCODING 8221
SWIDTH 361 0
DWIDTH 9 0
BBX 8 6 4 12
BITMAP
77
67
22
62
46
88
ENDCHAR
STARTCHAR quotedblbase
ENCODING 8222
SWIDTH 361 0
DWIDTH 9 0
BBX 8 8 0 -5
BITMAP
77
67
67
22
62
66
CC
88
ENDCHAR
STARTCHAR uni201F
ENCODING 8223
SWIDTH 361 0
DWIDTH 9 0
BBX 8 6 4 12
BITMAP
EE
E6
44
46
62
11
ENDCHAR
STARTCHAR dagger
ENCODING 8224
SWIDTH 633 0
DWIDTH 16 0
BBX 11 22 5 -4
BITMAP
0300
0300
0700
0600
0600
0600
FFE0
FFE0
0C00
0C00
0C00
0C00
1800
1800
1800
1800
1800
3800
3000
3000
3000
7000
ENDCHAR
STARTCHAR daggerdbl
ENCODING 8225
SWIDTH 633 0
DWIDTH 16 0
BBX 12 22 3 -4
BITMAP
0180
0180
0380
0300
0300
0300
3FF0
7FF0
0700
0600
0600
0600
0600
0E00
FFE0
FFC0
0C00
0C00
0C00
1C00
1800
1800
ENDCHAR
STARTCHAR bullet
ENCODING 8226
SWIDTH 633 0
DWIDTH 16 0
BBX 9 8 5 3
BITMAP
7F80
7F80
7F80
7F00
7F00
FF00
FF00
FF00
ENDCHAR
STARTCHAR ellipsis
ENCODING 8230
SWIDTH 1000 0
DWIDTH 25 0
BBX 19 2 3 0
BITMAP
E0E060
E0E0E0
ENDCHAR
STARTCHAR perthousand
ENCODING 8240
SWIDTH 1027 0
DWIDTH 26 0
BBX 24 18 2 0
BITMAP
0F01C0
1F8300
398700
318600
318C00
219800
333000
3F6000
1EC000
019E0E
03BF3F
037333
066361
0C4361
184363
306667
607E7E
C0383C
ENDCHAR
STARTCHAR guilsinglleft
ENCODING 8249
SWIDTH 328 0
DWIDTH 8 0
BBX 7 11 3 1
BITMAP
04
0E
1C
38
70
E0
60
70
30
18
10
ENDCHAR
STARTCHAR guilsinglright
ENCODING 8250
SWIDTH 328 0
DWIDTH 8 0
BBX 7 11 1 1
BITMAP
30
30
18
1C
0C
0E
1C
38
70
E0
40
ENDCHAR
STARTCHAR fraction
ENCODING 8260
SWIDTH 117 0
DWIDTH 3 0
BBX 19 18 -5 0
BITMAP
0000E0
0001C0
000380
000700
000E00
001C00
001800
003000
006000
00C000
018000
030000
070000
0E0000
1C0000
380000
700000
E00000
ENDCHAR
STARTCHAR oneinferior
ENCODING 8321
SWIDTH 392 0
DWIDTH 9 0
BBX 4 11 -15 -6
BITMAP
F0
F0
20
20
20
60
60
40
40
C0
C0
ENDCHAR
STARTCHAR twoinferior
ENCODING 8322
SWIDTH 392 0
DWIDTH 9 0
BBX 8 11 -13 -6
BITMAP
1E
3F
23
03
06
0E
18
30
60
FC
FC
ENDCHAR
STARTCHAR threeinferior
ENCODING 8323
SWIDTH 392 0
DWIDTH 9 0
BBX 8 11 -13 -6
BITMAP
3E
3F
03
02
3C
3C
06
06
06
FC
F8
ENDCHAR
STARTCHAR uni20A5
ENCODING 8357
SWIDTH 934 0
DWIDTH 23 0
BBX 21 22 2 -4
BITMAP
000060
0000C0
000180
000180
000300
187770
19FFF8
3BBFB8
373F38
3E3E38
3C3C30
383830
707830
70F070
60E070
61E060
63E060
C3E0E0
060000
060000
0C0000
180000
ENDCHAR
STARTCHAR uni20A6
ENCODING 8358
SWIDTH 741 0
DWIDTH 19 0
BBX 17 18 3 0
BITMAP
1C0180
1E0180
1E0380
1E0300
1F0300
3B0300
3FFF80
3FFF80
31C600
31C600
7FFF00
7FFF00
606E00
607C00
603C00
E03C00
C03C00
C01C00
ENDCHAR
STARTCHAR uni20A9
ENCODING 8361
SWIDTH 886 0
DWIDTH 22 0
BBX 21 18 4 0
BITMAP
C07018
C07030
E0F030
E0F060
E0F060
E1B0E0
EFFFE0
EFFFE0
E33180
E63380
7FFFC0
7FFFC0
6C3600
7C3E00
783C00
783C00
703800
703800
ENDCHAR
STARTCHAR Euro
ENCODING 8364
SWIDTH 679 0
DWIDTH 17 0
BBX 22 18 -3 0
BITMAP
0007F8
001FFC
00780C
00F000
01E000
01C000
7FFF00
7FFF00
070000
070000
FFFE00
FFFE00
070000
070000
038000
03C060
01FFE0
007F00
ENDCHAR
STARTCHAR uni20AD
ENCODING 8365
SWIDTH 635 0
DWIDTH 16 0
BBX 16 18 2 0
BITMAP
0C07
1C0C
1C18
1C30
1860
18C0
3980
3B00
FFFF
FFFF
3300
7180
71C0
70C0
6060
6070
E030
E018
ENDCHAR
STARTCHAR uni2103
ENCODING 8451
SWIDTH 935 0
DWIDTH 24 0
BBX 21 18 5 0
BITMAP
700FF0
903FF8
90F018
71E000
03C000
038000
070000
070000
0E0000
0E0000
0E0000
0E0000
0E0000
0E0000
070000
0780C0
03FFC0
00FE00
ENDCHAR
STARTCHAR uni2109
ENCODING 8457
SWIDTH 792 0
DWIDTH 20 0
BBX 18 18 5 0
BITMAP
70FFC0
91FFC0
91C000
71C000
018000
018000
038000
038000
03FE00
03FE00
030000
070000
070000
070000
060000
060000
0E0000
0E0000
ENDCHAR
STARTCHAR trademark
ENCODING 8482
SWIDTH 801 0
DWIDTH 20 0
BBX 19 10 3 8
BITMAP
FF38E0
FF38E0
1879E0
1879C0
387BC0
307AC0
305EC0
304CC0
30CD80
70C180
ENDCHAR
STARTCHAR uni212A
ENCODING 8490
SWIDTH 635 0
DWIDTH 16 0
BBX 16 18 2 0
BITMAP
0C07
1C0C
1C18
1C30
1860
18C0
3980
3B00
3E00
3700
3300
7180
71C0
70C0
6060
6070
E030
E018
ENDCHAR
STARTCHAR uni212B
ENCODING 8491
SWIDTH 687 0
DWIDTH 17 0
BBX 16 23 1 0
BITMAP
0018
0024
0024
0018
0000
0038
0078
0078
00F8
01D8
019C
039C
030C
070C
060C
0C0E
0FFE
1FFE
3806
3006
7007
6007
E007
ENDCHAR
STARTCHAR uni2132
ENCODING 8498
SWIDTH 536 0
DWIDTH 13 0
BBX 14 18 2 0
BITMAP
001C
001C
0018
0018
0038
0038
0038
0030
1FF0
1FF0
0070
0070
0060
0060
00E0
00E0
FFE0
FFC0
ENDCHAR
STARTCHAR minus
ENCODING 8722
SWIDTH 633 0
DWIDTH 16 0
BBX 15 2 2 6
BITMAP
FFFE
FFFE
ENDCHAR
STARTCHAR fraction
ENCODING 8725
SWIDTH 117 0
DWIDTH 3 0
BBX 19 18 -5 0
BITMAP
0000E0
0001C0
000380
000700
000E00
001C00
001800
003000
006000
00C000
018000
030000
070000
0E0000
1C0000
380000
700000
E00000
ENDCHAR
STARTCHAR periodcentered
ENCODING 8729
SWIDTH 316 0
DWIDTH 16 0
BBX 4 3 7 6
BITMAP
70
F0
E0
ENDCHAR
STARTCHAR uni2236
ENCODING 8758
SWIDTH 316 0
DWIDTH 8 0
BBX 5 13 3 0
BITMAP
38
38
00
00
00
00
00
00
00
00
00
E0
E0
ENDCHAR
STARTCHAR uni2259
ENCODING 8793
SWIDTH 633 0
DWIDTH 16 0
BBX 16 11 1 4
BITMAP
01E0
03E0
0760
0E30
0000
7FFF
7FFF
0000
0000
FFFE
FFFE
ENDCHAR
STARTCHAR uni225A
ENCODING 8794
SWIDTH 633 0
DWIDTH 16 0
BBX 16 11 1 4
BITMAP
0C70
06E0
06C0
0380
0000
7FFF
7FFF
0000
0000
FFFE
FFFE
ENDCHAR
STARTCHAR notequal
ENCODING 8800
SWIDTH 633 0
DWIDTH 16 0
BBX 16 22 1 -4
BITMAP
0003
0006
000C
000C
0018
0038
0030
0060
7FFF
7FFF
0180
0180
FFFE
FFFE
0600
0C00
1C00
1800
3000
3000
6000
C000
ENDCHAR
STARTCHAR equivalence
ENCODING 8801
SWIDTH 633 0
DWIDTH 16 0
BBX 16 8 0 3
BITMAP
FFFF
FFFF
0000
FFFF
FFFF
0000
FFFF
FFFF
ENDCHAR
STARTCHAR uni2262
ENCODING 8802
SWIDTH 633 0
DWIDTH 16 0
BBX 16 22 0 -4
BITMAP
0003
0006
000C
000C
0018
0038
0030
FFFF
FFFF
00C0
FFFF
FFFF
0300
FFFF
FFFF
0C00
1C00
1800
3000
3000
6000
C000
ENDCHAR
STARTCHAR lessequal
ENCODING 8804
SWIDTH 633 0
DWIDTH 16 0
BBX 16 18 2 -3
BITMAP
0001
0007
001E
0078
03E0
0F80
3C00
F000
3C00
1E00
0780
01E0
00F0
0038
0008
0000
FFFF
FFFF
ENDCHAR
STARTCHAR greaterequal
ENCODING 8805
SWIDTH 633 0
DWIDTH 16 0
BBX 16 18 1 -3
BITMAP
1000
1C00
0F00
0780
01E0
0078
003C
000F
003C
01F0
07C0
1E00
7800
E000
8000
0000
FFFF
FFFF
ENDCHAR
STARTCHAR uni226E
ENCODING 8814
SWIDTH 633 0
DWIDTH 16 0
BBX 16 22 2 -3
BITMAP
0003
0006
000C
000C
0019
003F
003E
0078
03E0
0FC0
3D80
F180
3F00
1E00
0780
0DE0
1CF0
1838
3008
3000
6000
C000
ENDCHAR
STARTCHAR uni226F
ENCODING 8815
SWIDTH 633 0
DWIDTH 16 0
BBX 16 22 1 -3
BITMAP
0003
0006
000C
000C
1018
1C38
0F30
07E0
01E0
00F8
01BC
018F
033C
07F0
07C0
1E00
7C00
F800
B000
3000
6000
C000
ENDCHAR
STARTCHAR uni2270
ENCODING 8816
SWIDTH 633 0
DWIDTH 16 0
BBX 16 22 2 -5
BITMAP
0003
0006
000D
000F
001E
0078
03F0
0FE0
3C60
F0C0
3D80
1F80
0780
07E0
06F0
0C38
1C08
1800
FFFF
FFFF
6000
C000
ENDCHAR
STARTCHAR uni2271
ENCODING 8817
SWIDTH 633 0
DWIDTH 16 0
BBX 16 22 1 -5
BITMAP
0003
0006
100C
1C0C
0F18
07B8
01F0
0078
007C
00CF
01BC
01F0
07C0
1E00
7E00
EC00
9C00
1800
FFFF
FFFF
6000
C000
ENDCHAR
STARTCHAR fi
ENCODING -1
SWIDTH 639 0
DWIDTH 16 0
BBX 15 25 2 -5
BITMAP
01F0
03E0
070E
060E
0E00
0C00
0C00
7FFC
7FFC
181C
1818
1818
3818
3838
3038
3030
3030
7030
7070
7070
6000
6000
E000
E000
E000
ENDCHAR
STARTCHAR fl
ENCODING -1
SWIDTH 639 0
DWIDTH 16 0
BBX 16 25 2 -5
BITMAP
00FF
03FF
0707
0606
0E06
0C0E
0C0E
7FCE
7F8C
1C0C
180C
181C
181C
3818
3818
3018
3038
3038
7030
7030
6000
6000
6000
E000
E000
ENDCHAR
ENDFONT
